<svg version="1.1" id="Layer_1" xmlns="http://www.w3.org/2000/svg" xmlns:xlink="http://www.w3.org/1999/xlink" x="0px" y="0px"
	 width="100%" viewBox="0 0 432 528" enable-background="new 0 0 432 528" xml:space="preserve">
<path fill="#000000" opacity="1.000000" stroke="none" 
	d="
M184.027374,100.050743 
	C183.882523,98.836243 183.737671,97.621742 183.593918,96.416359 
	C185.234619,95.963745 185.384491,97.751709 186.740616,97.922592 
	C187.000885,97.997192 186.980469,97.975609 186.980469,97.975609 
	C189.958862,105.877579 195.244156,111.667313 202.480591,115.912483 
	C206.297226,109.998604 205.971191,104.189407 201.831955,98.286186 
	C198.868317,94.059563 196.352036,89.687828 196.742905,84.190880 
	C203.420044,93.043541 211.960587,101.028915 210.282135,113.733948 
	C208.643265,126.139290 214.127716,135.655792 222.483200,144.016907 
	C223.054901,144.589005 223.781189,145.006622 224.815002,145.779861 
	C228.855728,142.192673 229.910217,137.606445 227.975967,133.204498 
	C223.822479,123.752007 223.124344,114.594284 226.292480,104.614891 
	C227.722794,100.109512 226.534927,94.772942 226.948227,89.732941 
	C230.091232,95.560600 231.939835,102.002686 231.024216,108.401779 
	C229.685913,117.754944 231.051941,126.224411 236.162888,134.470459 
	C239.931198,129.414856 241.719452,123.894661 239.931137,117.464630 
	C238.295288,111.582794 237.931747,105.671097 239.695068,99.753235 
	C240.202942,98.048813 240.723633,96.283211 242.824646,94.971939 
	C244.132568,102.037445 241.405045,109.424622 245.751068,116.489899 
	C250.748566,111.135788 257.002197,107.582962 258.275146,99.538979 
	C259.045746,94.669235 260.758850,89.662872 265.744507,85.909203 
	C266.020355,90.130226 263.505615,92.971153 263.513000,96.190308 
	C263.534729,105.668205 259.569305,112.890678 252.181747,118.656288 
	C250.252884,120.161667 248.077515,122.054085 247.625870,125.176216 
	C251.972076,126.651382 255.240204,122.701012 259.652435,123.301109 
	C257.088837,127.772812 252.869232,129.458664 248.883606,131.114929 
	C246.057800,132.289215 244.129044,133.867752 242.851334,136.581360 
	C241.635880,139.162720 239.766296,141.327621 237.695526,143.279404 
	C232.065155,148.586212 228.551712,155.108337 226.808975,162.567093 
	C225.700348,167.311844 224.064514,171.793900 221.622711,176.012558 
	C215.299179,186.937607 216.613129,198.796204 217.713120,210.547195 
	C218.008072,213.698059 218.443207,216.836761 218.312607,219.988586 
	C217.642654,236.155884 216.919495,252.315338 224.729828,267.854950 
	C224.261093,268.694122 223.951538,268.954193 223.641983,269.214264 
	C217.171448,275.122284 212.475876,282.287415 208.994247,291.099426 
	C207.469696,288.616394 208.117584,286.884430 208.337021,285.179688 
	C209.266830,277.957031 208.642532,270.895264 206.079056,264.045837 
	C203.490448,257.129242 198.689331,252.484940 191.421951,251.073380 
	C180.960632,249.041443 170.834717,249.246216 162.383453,257.234650 
	C160.457626,259.055023 158.185730,260.508453 156.079498,262.139069 
	C150.134445,266.741577 143.546860,268.417358 136.372910,265.781311 
	C129.854858,263.386292 124.616295,264.841431 119.368668,269.256134 
	C113.828094,273.917267 107.216110,276.197418 99.843681,273.937286 
	C97.878059,273.334717 96.697296,274.016449 95.459213,275.295532 
	C90.171074,280.758789 84.269386,281.119476 77.755028,277.559723 
	C73.074402,275.002014 68.627563,272.257904 64.929886,266.854584 
	C72.777100,266.137543 78.640579,261.097321 86.085709,261.726318 
	C90.725533,262.118347 94.328491,263.968567 95.594269,268.731598 
	C94.209839,271.125488 92.072784,269.426819 90.435768,270.116760 
	C101.930199,274.453827 114.358673,271.249939 119.165047,261.913147 
	C108.275352,259.159027 99.045036,251.851379 87.253014,251.309723 
	C92.209221,249.076797 97.553581,248.461319 102.298431,250.352661 
	C113.133003,254.671448 125.002296,253.256104 135.871643,257.212341 
	C139.993729,258.712708 144.224823,256.612823 147.810577,254.673538 
	C156.416138,250.019424 164.350647,244.112259 174.975922,241.248169 
	C166.763428,232.846893 161.278320,222.717453 148.840561,221.594360 
	C142.389954,221.011902 136.326828,223.051865 130.246033,224.725861 
	C126.078636,225.873093 122.001747,227.348709 117.883026,228.673233 
	C112.194206,230.502640 106.567863,231.009521 100.783424,228.761108 
	C94.775238,226.425705 88.681458,227.429001 82.621269,228.948563 
	C81.093605,229.331619 79.590599,230.390396 77.783745,229.680389 
	C77.837524,227.236267 79.958672,226.831604 81.430862,226.150650 
	C87.629265,223.283630 94.184998,221.841461 100.791695,224.187119 
	C109.489227,227.275131 116.564766,223.519257 124.621750,219.768875 
	C118.282387,215.953552 113.927109,209.750549 105.669830,212.834793 
	C102.784744,213.912430 99.323074,213.058060 96.334366,211.980972 
	C89.819809,209.633270 83.864174,205.855240 75.558601,204.890289 
	C79.988449,201.863953 83.358665,202.702530 86.608116,203.412796 
	C91.476578,204.476959 96.057671,206.601868 101.043259,207.322495 
	C104.084007,207.762039 106.989044,207.968887 110.326599,205.653290 
	C106.915726,199.468384 101.813866,195.778381 94.982620,194.432480 
	C89.454445,193.343307 85.476540,190.489471 83.279907,184.984589 
	C90.380219,190.655151 99.569550,188.716064 107.575523,192.859543 
	C110.127083,184.147278 104.238281,179.233139 99.769760,172.774857 
	C107.546768,175.118011 111.926811,179.174316 113.378372,186.197296 
	C114.484489,191.548935 114.810417,197.080597 117.420509,202.077866 
	C121.390808,209.679337 130.620667,214.082169 138.909454,211.987793 
	C135.298218,203.612930 137.598434,193.705521 130.230392,184.776093 
	C134.184402,186.267059 136.072266,185.839111 136.449493,182.983932 
	C138.991714,191.799088 141.117645,200.440796 145.687759,208.053040 
	C148.820694,213.271454 153.636154,214.424042 158.584305,212.577774 
	C161.088913,211.643265 161.861862,210.128052 161.493958,207.607483 
	C159.246231,192.207870 150.053085,181.530670 136.664429,175.368256 
	C130.154495,172.371948 122.945442,170.846237 116.876266,166.513519 
	C114.601456,164.889542 111.686905,166.429703 109.108727,166.795822 
	C100.817039,167.973282 89.344528,164.829285 83.055252,159.366959 
	C86.692307,157.796417 90.058556,159.019409 93.194717,160.179306 
	C99.338997,162.451706 105.557961,162.402298 111.894035,161.715439 
	C115.680130,161.305008 116.209824,159.280243 114.903824,156.134827 
	C113.234726,152.114944 110.202492,149.355286 106.737045,146.928543 
	C104.779816,145.557953 102.411469,144.650421 100.815659,142.311829 
	C109.912437,142.855698 117.522423,148.685272 120.490791,157.089111 
	C123.155220,164.632462 126.587624,167.726166 132.782669,168.171753 
	C136.510223,157.199951 135.210724,147.354172 126.469666,139.049713 
	C120.964127,133.819183 121.199944,125.578835 116.562218,119.742668 
	C121.451218,121.444206 123.770264,125.630348 126.068214,129.587372 
	C127.345551,131.786926 128.549026,133.806473 130.588531,135.384781 
	C138.382935,141.416641 141.669662,149.376312 140.110489,159.122162 
	C139.074783,165.596039 141.764267,170.487167 146.948441,173.497314 
	C153.304214,177.187759 159.450699,181.020859 164.783249,186.779236 
	C171.758743,179.670166 167.628174,171.789795 167.232513,163.282593 
	C173.113571,171.936951 174.651779,179.957993 170.244431,188.465851 
	C168.808411,191.237930 168.613419,193.615738 169.851440,196.453979 
	C172.003647,201.388168 172.441299,206.761444 173.231781,212.015823 
	C175.358643,226.153503 184.953888,236.719711 198.837830,240.197327 
	C200.552612,240.626831 201.626251,240.495636 202.562454,238.867538 
	C205.396606,233.938995 204.799515,227.688904 200.678528,223.648636 
	C197.400528,220.434814 194.642227,216.997589 193.565552,212.434265 
	C193.235916,211.037186 192.397354,209.814957 191.054062,209.553452 
	C183.230423,208.030441 180.845581,200.594543 174.770599,195.303955 
	C182.781311,196.421539 184.998306,204.696304 192.714310,205.653915 
	C191.284378,195.963013 180.573013,190.730682 181.429291,179.647720 
	C186.161743,182.273880 184.149323,187.009308 186.487198,189.701385 
	C189.028412,192.627594 192.111603,194.771851 195.144592,197.436310 
	C198.261627,194.365585 196.330261,190.576920 197.208313,187.001144 
	C199.818115,188.619797 200.332138,190.935913 200.468887,193.476212 
	C201.876404,193.476212 203.189026,193.476212 204.682526,193.476212 
	C202.347519,182.779694 195.493057,175.167877 188.040863,167.916153 
	C182.198700,162.231186 175.750473,157.924652 167.388687,156.704025 
	C161.436035,155.835083 157.050858,152.026978 154.153687,146.910614 
	C148.836456,137.520432 140.771667,129.856079 137.229919,119.319336 
	C136.173950,116.177856 132.624802,114.652161 130.245605,112.247330 
	C135.326630,112.066933 141.043411,116.003899 143.918091,120.942772 
	C149.370529,130.310394 156.174789,138.672684 163.752808,146.408951 
	C165.229172,147.916138 167.043472,148.563293 169.137421,148.664597 
	C170.961838,148.752869 172.777252,149.152451 174.597977,149.161987 
	C177.146286,149.175323 180.567856,152.691589 182.029602,148.884872 
	C183.456161,145.169739 183.730286,140.671082 180.412109,137.140945 
	C177.421051,133.958832 173.485596,132.584122 169.441162,131.519028 
	C161.612045,129.457260 156.565292,124.971237 155.436737,116.575531 
	C154.770798,111.621376 152.701736,107.113800 150.088043,102.786110 
	C154.803955,104.512993 157.482407,108.101875 158.470291,112.705139 
	C160.172455,120.636871 164.503586,125.486763 172.772797,126.407387 
	C176.130859,126.781235 178.825363,129.007431 182.266815,130.142395 
	C183.234512,126.179886 181.779449,122.989464 180.286713,119.947533 
	C178.974426,117.273293 177.312241,114.733955 175.542435,112.327858 
	C170.033569,104.838364 168.417221,99.594505 168.692459,88.748642 
	C171.637222,90.526474 172.568298,93.486176 173.622345,96.130920 
	C176.053741,102.231697 179.243576,107.774155 183.604324,112.718979 
	C190.789597,120.866638 191.428589,131.221985 190.937347,141.045761 
	C190.339035,153.010727 192.540756,162.786972 203.056717,169.668579 
	C205.236450,171.094986 206.190002,173.973846 208.952499,175.563721 
	C215.702240,171.023346 219.779602,164.519333 221.229446,156.606964 
	C221.882660,153.042130 219.289902,149.953018 216.831100,147.430313 
	C211.024887,141.473145 206.625671,134.786346 204.529572,126.616837 
	C203.580719,122.918724 199.970963,121.320938 197.151291,119.493408 
	C190.120697,114.936661 186.123947,108.579102 184.163315,100.305748 
	C184.000183,100.010674 184.027390,100.050743 184.027374,100.050743 
M201.834183,215.494949 
	C203.233109,216.255371 204.292160,217.732330 206.575485,217.573456 
	C207.081650,210.869385 206.691544,204.261810 205.313477,197.588821 
	C203.559860,198.745514 201.674576,197.930420 199.972916,198.276108 
	C197.035004,205.489105 197.373642,209.579559 201.834183,215.494949 
z"/>
<path fill="#000000" opacity="1.000000" stroke="none" 
	d="
M223.605408,269.521667 
	C223.951538,268.954193 224.261093,268.694122 224.783630,268.220398 
	C227.035751,259.200500 225.870529,250.337891 224.261230,241.761810 
	C222.344879,231.549423 223.546951,222.193604 228.724945,213.420456 
	C232.344696,207.287445 233.389267,201.219330 231.152145,194.359222 
	C228.575562,186.458099 230.891830,178.611923 232.485031,170.694901 
	C234.089767,181.134018 235.605667,191.553055 239.151749,201.506439 
	C246.840805,198.857452 248.005005,189.682648 245.979599,183.113983 
	C244.120056,177.083221 241.743164,171.207184 239.476013,165.308395 
	C237.664871,160.596069 236.865295,155.937958 239.173065,149.942856 
	C241.603180,156.587769 242.213211,162.741608 247.019470,167.614716 
	C251.514771,162.831451 251.657471,157.214737 251.543915,151.360443 
	C253.653824,155.493896 255.373856,159.854767 253.807617,164.321304 
	C250.818878,172.844513 250.715775,181.254959 253.388733,189.771896 
	C255.826752,197.540222 252.623062,203.281677 247.109833,208.408997 
	C240.686691,214.382538 236.201797,221.428879 236.257904,230.584854 
	C236.269943,232.551559 236.659470,234.549622 237.123505,236.473297 
	C238.280106,241.267868 240.685226,245.728760 240.607605,251.744614 
	C246.030289,247.866714 249.586014,243.279282 253.687164,239.309906 
	C263.811401,229.510925 269.514313,217.778870 269.938141,203.459259 
	C270.196045,194.746048 268.752655,186.201935 268.393372,177.578430 
	C267.923401,166.297791 264.448456,155.693420 262.178009,144.815552 
	C261.525635,141.689972 261.550110,138.605789 262.083710,134.376541 
	C266.491364,141.042847 265.868378,149.098465 271.833954,154.099274 
	C276.701233,147.978027 277.086395,140.798416 275.308899,134.435471 
	C271.586304,121.109489 277.225555,109.296928 279.133728,96.094208 
	C284.349670,107.931396 275.213043,119.828224 281.616272,131.478607 
	C288.608978,125.850006 296.248596,121.703041 300.487305,113.707031 
	C302.584930,109.749947 305.966705,107.215294 310.628265,106.126816 
	C307.348572,111.367813 301.696564,115.231003 301.111572,122.214775 
	C308.255737,123.975983 314.233307,120.643295 320.638275,119.011642 
	C316.743805,123.161865 311.738342,125.875893 306.296722,126.086639 
	C297.593689,126.423714 291.467712,131.284607 285.087006,136.027191 
	C283.432587,137.256866 282.492828,138.844162 282.219849,141.039764 
	C281.356689,147.982941 279.914734,154.810196 277.644470,161.458908 
	C275.073547,168.988235 276.983093,176.118942 279.698273,183.813293 
	C287.596741,179.456909 292.444733,173.244965 295.556641,165.503036 
	C296.114502,164.115143 296.686188,162.704849 296.997833,161.250534 
	C298.772034,152.971237 303.021423,146.899948 310.843506,142.896393 
	C316.348877,140.078613 319.426483,134.289780 323.375641,129.541794 
	C322.264099,136.904022 319.016663,142.997330 312.828552,147.367157 
	C308.278351,150.580322 304.095245,154.013855 302.737640,159.863220 
	C301.584686,164.830780 302.901398,166.420898 307.959412,165.593033 
	C313.861481,164.627045 318.080597,160.751999 322.344147,157.026627 
	C325.117584,154.603241 328.028320,152.571320 331.735168,152.080338 
	C332.360443,153.232224 331.605560,153.815552 331.129578,154.753265 
	C331.004883,154.998886 331.031891,154.974167 331.031891,154.974167 
	C327.158112,156.792130 324.060303,159.744949 321.759888,163.109680 
	C317.747040,168.979111 312.230316,171.308395 305.564636,171.215591 
	C301.702118,171.161819 299.302338,172.502930 297.734192,175.989471 
	C295.554321,180.836075 291.681946,184.348755 287.592621,187.512421 
	C283.552887,190.637711 280.860992,194.385376 280.647400,199.579178 
	C280.329285,207.314056 279.655518,215.075470 281.083893,222.729828 
	C289.283600,222.382812 295.610626,216.755615 297.687225,208.691071 
	C299.013245,203.541321 300.510712,198.434891 302.002563,193.329880 
	C302.159698,192.792282 302.798767,192.395538 304.300995,190.724731 
	C303.285095,201.929993 302.709381,211.669205 297.438751,220.788437 
	C305.728485,221.664810 311.482697,218.502380 315.717010,212.239914 
	C319.392548,206.803925 320.699890,200.641144 320.634125,194.212433 
	C320.530823,184.113815 323.710754,176.107712 333.252594,171.163254 
	C338.751984,168.313522 341.521973,162.635468 344.934113,157.724884 
	C345.653870,156.689072 345.802216,155.112091 348.540619,154.855392 
	C346.684937,161.650436 343.721802,167.329376 339.350342,172.308884 
	C338.037933,173.803833 336.629120,175.347336 334.960083,176.373444 
	C326.878784,181.341705 326.762268,189.341965 326.305939,197.400085 
	C330.140564,197.368164 354.124939,183.508270 361.176300,177.456909 
	C360.691101,182.496826 354.573822,188.774612 346.843140,192.166122 
	C342.978973,193.861359 342.978973,193.861343 341.898193,196.966324 
	C348.326050,197.435837 353.227814,193.546127 358.908356,191.767670 
	C355.097351,197.761185 349.847534,202.017593 342.539124,202.075119 
	C333.025055,202.150009 327.391388,206.846344 323.902222,215.170746 
	C318.984283,226.903870 310.176636,232.757034 297.351074,232.353851 
	C288.418213,232.072998 281.027405,235.535873 274.303162,241.364807 
	C286.737610,250.989395 302.889313,252.283340 315.786530,245.058258 
	C323.372589,240.808517 330.170990,235.497482 336.644867,229.740173 
	C340.013153,226.744675 344.067810,224.969421 348.437073,224.896439 
	C354.814819,224.789871 360.620514,223.454681 365.948242,219.797226 
	C362.364410,225.642227 357.024170,228.705505 350.284058,229.257050 
	C346.323059,229.581177 342.757233,230.513489 339.824127,233.315918 
	C338.363464,234.711487 337.061340,236.167038 337.013763,238.607346 
	C343.048553,241.170181 349.324432,240.778351 356.208435,240.452377 
	C353.804993,243.955200 350.406677,243.623795 347.602936,244.123566 
	C344.862183,244.612122 341.850220,244.695984 339.150269,244.093201 
	C330.114594,242.075974 324.349579,246.940811 318.404327,253.221924 
	C326.490448,259.451141 333.381958,267.099396 345.023041,263.839569 
	C352.237366,261.819366 358.390503,264.502228 363.951477,269.554260 
	C364.036987,269.967651 363.829132,270.225281 363.829132,270.225281 
	C355.247162,267.721954 346.848724,266.608337 337.974976,269.904175 
	C332.762939,271.839935 327.689667,268.562683 323.852692,265.165833 
	C317.001678,259.100616 309.372925,257.583374 300.670502,259.029907 
	C294.048553,260.130554 287.321136,259.180084 281.757355,255.836914 
	C267.764160,247.428711 243.628922,261.959229 240.632080,279.005890 
	C240.121109,281.912445 241.892395,282.854919 243.531418,284.176239 
	C246.542816,286.603912 250.253098,288.445770 251.104980,293.609619 
	C248.109772,291.888245 245.816940,290.269318 244.298126,287.933685 
	C242.471268,285.124451 240.176605,285.036469 237.972946,286.791351 
	C235.158249,289.032806 232.322922,288.967041 229.050766,288.377197 
	C221.723297,287.056458 216.474747,290.235687 214.236862,297.442596 
	C213.098328,301.109161 210.369736,302.132843 207.215363,302.953583 
	C203.760315,303.852570 200.690750,304.885040 204.496811,309.133514 
	C206.483414,311.351044 205.734558,313.198120 202.937866,313.942230 
	C197.792099,315.311340 192.580429,317.029144 187.398224,314.136230 
	C183.509109,311.965179 179.607132,313.944550 175.801849,314.221130 
	C174.524628,309.351959 177.768280,304.920013 183.384171,302.571503 
	C191.028458,299.374725 199.670029,299.013214 206.710281,294.038513 
	C208.967133,292.443756 210.817673,290.949951 211.777466,288.228607 
	C214.256760,281.198883 219.171463,275.666321 223.605408,269.521667 
z"/>
<path fill="#000000" opacity="1.000000" stroke="none" 
	d="
M278.787903,371.932312 
	C258.841705,379.313171 240.493698,390.086273 219.669754,393.838257 
	C185.727951,399.953735 155.103638,393.709900 130.282562,368.053589 
	C123.591637,361.137573 118.545387,353.113739 117.148354,343.320801 
	C115.967285,335.041748 118.802979,328.264130 125.380623,323.117432 
	C126.646263,322.127106 128.024109,321.015625 130.003723,321.622284 
	C132.007004,330.659241 140.530350,336.687531 141.438553,346.353424 
	C141.601349,348.085999 143.202225,349.762543 144.881882,350.457489 
	C156.291855,355.178162 167.484512,361.970367 180.262985,353.988678 
	C184.142471,351.565460 188.559921,350.634918 193.230392,351.635895 
	C195.391953,352.099213 197.519516,351.599487 199.624573,350.978119 
	C208.137451,348.465179 216.538879,349.466156 224.509720,352.789795 
	C232.279068,356.029388 239.972809,353.530182 247.679138,353.423676 
	C251.794617,353.366821 255.893143,352.227692 260.004089,351.608643 
	C261.235657,351.423187 262.598450,350.699463 264.064362,352.944672 
	C257.811768,354.574158 251.835663,356.131622 245.503174,357.781952 
	C251.061295,360.159424 262.575226,360.019592 267.369781,357.706482 
	C267.668976,357.562164 267.932098,357.281219 268.240662,357.226990 
	C280.067413,355.149536 285.079590,346.681152 287.297546,334.952728 
	C284.689789,330.071167 285.020325,322.127625 278.736267,317.473663 
	C273.224121,313.391388 266.977875,310.200562 262.941376,304.322205 
	C273.385132,309.932281 285.978821,312.709442 290.838593,325.616333 
	C291.769135,328.087738 293.786438,327.949615 295.814423,327.841827 
	C300.781769,327.577850 304.972473,328.906158 307.918610,333.271332 
	C308.617950,334.307526 309.887421,334.993134 310.968658,335.731628 
	C316.319000,339.386047 316.993073,344.243103 312.457672,349.227844 
	C305.530914,356.840851 296.806244,362.097260 287.989258,367.169220 
	C285.106445,368.827515 282.083344,370.241974 278.787903,371.932312 
z"/>
<path fill="#000000" opacity="1.000000" stroke="none" 
	d="
M199.104797,432.032227 
	C199.115067,435.852875 199.138458,439.183960 199.128265,442.514954 
	C199.120117,445.179321 199.371811,447.574310 202.856873,447.861877 
	C204.163757,447.969727 204.928436,448.872223 204.830811,450.276031 
	C204.728516,451.746552 203.708359,452.260376 202.441345,452.275787 
	C198.612534,452.322357 194.782654,452.320770 190.953644,452.285797 
	C189.713074,452.274475 188.608246,451.856720 188.387589,450.428406 
	C188.180359,449.087006 188.786575,448.116364 190.109894,447.806915 
	C192.718582,447.196869 192.809372,445.178436 192.811584,443.130493 
	C192.821472,433.970154 192.786224,424.809753 192.808350,415.649475 
	C192.813568,413.490295 192.327454,411.777649 190.101730,410.824280 
	C188.582840,410.173645 187.794525,408.882751 188.427658,407.159790 
	C189.018509,405.551849 190.518906,405.844849 191.808044,405.654022 
	C199.000824,404.589294 204.497452,406.172363 208.056229,413.485657 
	C210.947266,419.426819 215.185211,424.715607 218.865402,430.267517 
	C219.754959,431.609497 220.335510,433.291992 222.183655,433.800079 
	C223.990677,432.996246 223.635422,431.333374 223.657349,429.925262 
	C223.727341,425.429291 223.640411,420.930817 223.720215,416.435181 
	C223.764496,413.940460 223.438675,411.835297 220.696106,410.808746 
	C219.107376,410.214081 218.417587,408.858643 218.963333,407.165314 
	C219.498917,405.503510 221.033447,405.712555 222.312897,405.692047 
	C225.476028,405.641388 228.641006,405.680603 231.804901,405.715210 
	C233.043259,405.728760 234.152802,406.052765 234.431534,407.486755 
	C234.674545,408.737030 234.425964,410.002502 233.171387,410.440796 
	C229.595001,411.690125 229.895828,414.598450 229.903244,417.451660 
	C229.928360,427.111755 229.994934,436.772430 229.906525,446.431641 
	C229.886887,448.577850 230.758011,451.526062 227.492966,452.183289 
	C224.487274,452.788300 221.658966,452.576111 219.658020,449.417847 
	C214.400497,441.119507 208.937012,432.951447 203.530396,424.748077 
	C202.642960,423.401581 201.627838,422.139282 200.341919,420.389130 
	C198.224030,424.393860 199.408646,428.055420 199.104797,432.032227 
z"/>
<path fill="#000000" opacity="1.000000" stroke="none" 
	d="
M335.607544,451.758392 
	C334.666656,450.353699 334.539307,448.727448 335.626984,448.374115 
	C339.602753,447.082642 339.017365,443.931824 339.035370,441.003021 
	C339.085602,432.841125 339.081940,424.678894 339.099365,416.516815 
	C339.104431,414.152374 339.148041,411.809845 336.509674,410.544830 
	C335.138824,409.887512 334.642151,408.667572 335.130646,407.199982 
	C335.588898,405.823303 336.850342,405.665619 338.007141,405.736420 
	C344.987457,406.163696 351.933014,404.773621 358.934662,405.514221 
	C364.180939,406.069122 369.096619,407.237946 370.926208,412.785370 
	C372.899017,418.766815 371.628387,424.305328 366.875336,428.772369 
	C366.280396,429.331482 365.686859,429.892120 364.600983,430.915344 
	C370.028351,435.718384 370.613220,443.479950 376.287018,448.117920 
	C377.745697,449.310303 377.705017,451.124084 375.599976,452.092163 
	C370.992645,454.210968 364.952911,451.855499 362.821075,447.117889 
	C361.113464,443.322968 359.472656,439.497833 357.746887,435.711334 
	C356.562256,433.112152 354.483368,431.945129 351.666229,432.492279 
	C348.542664,433.098907 349.418427,435.721344 349.280396,437.742004 
	C349.167175,439.399658 349.281311,441.071899 349.267059,442.737457 
	C349.246124,445.183441 349.312927,447.483185 352.621735,447.801971 
	C354.191315,447.953186 354.953400,449.078186 354.646362,450.647736 
	C354.367371,452.074005 353.149994,452.339355 351.940918,452.321716 
	C346.620239,452.244171 341.300232,452.118042 335.607544,451.758392 
M349.259003,419.428619 
	C349.275055,420.920471 349.346130,422.414215 349.295227,423.903778 
	C349.199707,426.700348 350.608337,427.643677 353.273682,427.674896 
	C357.386597,427.723083 359.768951,425.754089 360.887451,421.938721 
	C362.084564,417.855225 362.207062,413.929382 358.315002,411.209686 
	C356.029083,409.612396 353.141724,409.597137 350.674469,410.644409 
	C348.381683,411.617584 349.484406,414.137756 349.265625,416.011169 
	C349.170135,416.828796 349.251251,417.667023 349.259003,419.428619 
z"/>
<path fill="#000000" opacity="1.000000" stroke="none" 
	d="
M96.673874,424.022522 
	C96.673508,420.865509 96.650955,418.203705 96.678093,415.542419 
	C96.700958,413.299225 96.627304,411.160675 93.955963,410.301849 
	C92.665245,409.886871 92.125381,408.886810 92.369682,407.573273 
	C92.688484,405.859131 94.084328,405.641357 95.441803,405.721191 
	C103.065559,406.169403 110.648369,404.151001 118.314049,405.623962 
	C126.385124,407.174835 131.938324,411.224304 134.233490,419.422363 
	C139.333130,437.637604 128.377045,452.350220 109.566093,452.369629 
	C104.908455,452.374420 100.250511,452.377777 95.593307,452.326782 
	C94.107323,452.310516 92.479034,452.345093 92.070915,450.355377 
	C91.730179,448.694214 92.761520,447.954895 94.096878,447.406433 
	C96.587372,446.383453 96.671036,444.225800 96.662743,441.984650 
	C96.641205,436.162506 96.666565,430.340240 96.673874,424.022522 
M124.629799,431.195557 
	C124.942772,427.500458 124.374985,423.872314 123.535324,420.313232 
	C121.872238,413.263885 116.928131,409.650543 110.215263,410.176117 
	C107.880699,410.358887 106.371994,411.103424 106.373131,413.683441 
	C106.377609,423.830597 106.388298,433.977753 106.378250,444.124908 
	C106.376053,446.342316 107.369972,447.472290 109.640999,447.631165 
	C114.692444,447.984497 118.814499,446.493195 121.550804,441.996307 
	C123.410835,438.939453 124.104622,435.531525 124.629799,431.195557 
z"/>
<path fill="#000000" opacity="1.000000" stroke="none" 
	d="
M289.522308,440.566467 
	C292.983704,430.277924 296.414673,420.391968 299.638031,410.438751 
	C300.684418,407.207642 302.139313,405.477905 305.925476,405.536316 
	C309.587891,405.592773 311.706818,406.552765 312.893097,410.252991 
	C316.187866,420.530304 319.780670,430.712738 323.311554,440.913300 
	C324.265411,443.668915 324.590698,446.841034 327.911194,448.183716 
	C328.942230,448.600586 329.125153,449.725586 328.867004,450.763641 
	C328.578461,451.923798 327.587921,452.255890 326.561371,452.267181 
	C322.075348,452.316650 317.588562,452.325439 313.102203,452.308533 
	C311.877167,452.303894 310.847321,452.023621 310.647461,450.459320 
	C310.318787,447.886719 313.078217,448.105316 313.979736,446.686493 
	C313.997314,441.742920 311.565582,439.791016 306.755402,440.336121 
	C304.620422,440.578033 302.438446,440.388977 300.278503,440.431793 
	C297.833191,440.480194 296.880188,442.110504 296.282318,444.184875 
	C295.742645,446.057190 295.966858,447.384766 298.121704,448.008392 
	C299.409424,448.380981 299.873352,449.583191 299.612579,450.817810 
	C299.307373,452.262817 297.994781,452.331268 296.824768,452.335449 
	C293.335571,452.347931 289.845612,452.330597 286.357147,452.263763 
	C285.355499,452.244568 284.320801,452.021851 284.004364,450.840698 
	C283.732697,449.826660 283.767273,448.622070 284.797424,448.217163 
	C288.172913,446.890472 288.210907,443.572662 289.522308,440.566467 
M302.409454,422.048859 
	C301.550568,425.410950 300.671295,428.768036 299.839752,432.136902 
	C299.267151,434.456696 300.238617,435.704437 302.612183,435.599701 
	C305.021698,435.493347 307.551361,436.294769 310.349518,434.558167 
	C309.338928,428.611053 307.278625,422.922974 305.267792,416.966614 
	C303.060913,418.332611 303.232513,420.030762 302.409454,422.048859 
z"/>
<path fill="#000000" opacity="1.000000" stroke="none" 
	d="
M401.946808,431.380066 
	C399.603363,431.341003 398.305084,432.062653 398.294495,434.223816 
	C398.277313,437.722717 398.233398,441.222961 398.317719,444.719818 
	C398.336029,445.478394 398.643463,446.441010 399.168701,446.940552 
	C401.715179,449.362335 412.107483,447.179291 413.644073,443.977661 
	C414.147827,442.928070 414.463898,441.726807 415.180664,440.853271 
	C416.856689,438.810699 419.156586,439.186493 420.210846,441.049377 
	C421.868378,443.978333 420.166046,447.203888 419.679077,450.248016 
	C419.294891,452.649689 417.013336,452.360199 415.210663,452.363953 
	C405.877533,452.383270 396.544250,452.382782 387.211273,452.334595 
	C385.956482,452.328125 384.335449,452.730438 383.737183,451.109222 
	C383.061371,449.277802 384.233307,448.321899 385.810181,447.774506 
	C388.134216,446.967712 387.860291,444.964203 387.870361,443.180756 
	C387.922089,434.014496 387.921875,424.847900 387.922180,415.681427 
	C387.922272,413.480927 387.938843,411.229675 385.260162,410.365753 
	C383.634613,409.841522 383.365997,408.621338 383.664062,407.188812 
	C383.983337,405.654327 385.294922,405.708679 386.445007,405.705475 
	C395.444580,405.680298 404.444275,405.687866 413.443909,405.680145 
	C415.294617,405.678558 416.845367,406.199249 416.987671,408.323486 
	C417.161621,410.920380 418.378479,413.972626 416.398224,415.976929 
	C414.620911,417.775879 412.861206,416.289825 411.740662,414.220703 
	C409.924286,410.866486 403.295471,408.984711 399.810760,410.619995 
	C398.269836,411.343079 398.257355,412.655029 398.236725,413.977600 
	C398.192596,416.810089 398.194336,419.644012 398.225128,422.476807 
	C398.245148,424.319092 398.112122,426.348785 400.733246,426.570038 
	C403.094299,426.769318 405.509399,427.033966 406.213623,423.792877 
	C406.579895,422.107361 407.219208,420.445709 409.489319,420.933960 
	C411.859741,421.443695 411.215271,423.473694 411.277252,425.009003 
	C411.384705,427.671051 411.330688,430.341492 411.279816,433.007202 
	C411.254272,434.344818 411.204834,435.762665 409.450043,436.099945 
	C407.898163,436.398132 406.810516,435.741669 406.350311,434.278442 
	C405.718628,432.270203 404.547546,431.143494 401.946808,431.380066 
z"/>
<path fill="#000000" opacity="1.000000" stroke="none" 
	d="
M146.522980,405.685211 
	C155.290176,405.665955 163.616837,405.626190 171.942841,405.681244 
	C173.674179,405.692688 175.958725,405.073608 176.683456,407.373657 
	C177.533798,410.072357 178.179916,413.255798 176.675735,415.614136 
	C175.323715,417.733887 173.224365,416.638367 171.926712,414.593628 
	C169.585983,410.905243 164.022324,409.033936 160.212891,410.564880 
	C159.206177,410.969482 158.427246,411.619995 158.404144,412.714569 
	C158.323502,416.538757 158.275482,420.365997 158.340363,424.189972 
	C158.373184,426.124237 159.798874,426.587433 161.458878,426.637604 
	C163.513992,426.699646 165.509460,426.777771 166.241669,424.176483 
	C166.672501,422.645844 166.812241,420.605743 169.216446,420.961365 
	C171.936325,421.363770 171.190018,423.646667 171.264130,425.321106 
	C171.381805,427.979584 171.306290,430.648743 171.248230,433.311951 
	C171.222473,434.493591 171.055634,435.726379 169.612106,436.051697 
	C168.128799,436.385925 166.876785,435.917908 166.449066,434.384186 
	C165.535095,431.106812 163.062393,431.025787 160.497177,431.507629 
	C157.335556,432.101501 158.526443,434.833191 158.205795,436.794830 
	C158.152786,437.119110 158.194290,437.459808 158.201294,437.792725 
	C158.433212,448.828735 156.383820,447.489807 168.524765,447.690063 
	C171.664215,447.741821 172.903320,446.007172 173.976135,443.554047 
	C174.811996,441.642731 175.459351,439.129608 178.452515,439.946838 
	C181.465942,440.769653 180.653671,443.139343 180.395920,445.282043 
	C179.544220,452.362732 179.561569,452.373138 172.611343,452.377350 
	C164.284897,452.382416 155.958237,452.400848 147.632217,452.338470 
	C146.241959,452.328064 144.408096,452.893555 143.755722,450.984161 
	C143.118912,449.120300 144.417282,448.266235 145.951691,447.715973 
	C147.730942,447.077911 147.868301,445.553131 147.872986,444.031097 
	C147.902695,434.372833 147.896103,424.714478 147.910461,415.056152 
	C147.913681,412.898438 147.080582,411.518402 145.142853,410.217163 
	C142.706345,408.580902 142.205597,406.466553 146.522980,405.685211 
z"/>
<path fill="#000000" opacity="1.000000" stroke="none" 
	d="
M61.982349,414.041565 
	C61.956074,417.282104 61.917122,420.106964 61.948311,422.931000 
	C61.970280,424.920013 62.426170,426.628540 64.949936,426.621979 
	C66.936485,426.616821 69.049179,426.964813 69.760338,424.260132 
	C70.227798,422.482330 70.725494,420.409332 73.251312,420.987030 
	C75.730843,421.554199 75.130035,423.804626 75.192245,425.527740 
	C75.282227,428.020233 75.220779,430.520752 75.145607,433.015503 
	C75.104958,434.364166 74.933212,435.740936 73.239037,436.094910 
	C71.686447,436.419342 70.471939,435.752228 70.122803,434.311829 
	C69.191246,430.468658 66.240982,431.137024 63.730469,431.531403 
	C60.671642,432.011871 62.167847,434.640564 61.945663,436.423462 
	C61.884338,436.915497 61.940212,437.421204 61.924603,437.920044 
	C61.623962,447.530487 64.436104,449.763916 73.873009,447.597687 
	C76.493523,446.996155 76.935776,444.784027 77.874870,442.915955 
	C78.810646,441.054443 79.709122,439.191406 82.296745,439.938110 
	C85.020874,440.724152 84.425743,442.912201 84.202339,444.879242 
	C83.350731,452.377808 83.343758,452.379608 75.647766,452.373657 
	C67.491737,452.367340 59.335503,452.382263 51.179867,452.320343 
	C49.774281,452.309692 47.899052,452.799622 47.336117,450.894592 
	C46.780010,449.012665 48.293587,448.262726 49.766918,447.748596 
	C51.854935,447.019928 51.696167,445.265320 51.700871,443.613678 
	C51.727909,434.126129 51.720078,424.638458 51.747143,415.150909 
	C51.753147,413.046539 51.560925,411.101532 49.103996,410.391418 
	C47.564865,409.946564 46.917549,408.863495 47.217854,407.365784 
	C47.500870,405.954285 48.734367,405.711487 49.941456,405.710083 
	C59.095562,405.699432 68.249702,405.722900 77.403809,405.716217 
	C79.503067,405.714691 80.352295,406.907928 80.544876,408.808014 
	C80.789337,411.219940 82.325653,414.145538 80.078873,415.864655 
	C77.423973,417.896027 75.983757,415.616852 75.083122,413.180756 
	C73.405769,408.643951 69.471939,410.805481 66.455376,410.406982 
	C64.148491,410.102234 62.014977,410.525513 61.982349,414.041565 
z"/>
<path fill="#000000" opacity="1.000000" stroke="none" 
	d="
M259.014465,405.668579 
	C262.736115,404.833099 266.031006,405.315308 269.356537,405.594910 
	C279.925323,406.483429 278.324005,407.162628 278.049438,416.746460 
	C277.999176,418.501892 277.416351,420.032227 275.224457,420.202026 
	C273.161530,420.361847 271.408813,419.827850 271.028320,417.622498 
	C270.212402,412.893524 268.679626,409.447632 262.762085,410.101837 
	C257.087158,410.729279 254.724503,414.515198 253.430847,419.168762 
	C251.322754,426.751862 251.651733,434.359192 254.689835,441.690216 
	C256.279846,445.526978 259.094086,447.712341 263.515320,447.875153 
	C267.584991,448.024994 270.193024,446.529114 271.534973,442.656982 
	C272.106506,441.007874 273.118927,439.694916 275.252716,440.152191 
	C277.519623,440.638031 277.913147,442.213593 278.008484,444.244873 
	C278.197266,448.267365 277.065308,450.863708 272.544281,451.621002 
	C268.100494,452.365417 263.762054,453.393188 259.205078,452.651215 
	C248.528503,450.912781 242.099808,443.759857 241.584900,432.910522 
	C240.845718,417.335449 245.750671,409.493774 259.014465,405.668579 
z"/>
<path fill="#000000" opacity="1.000000" stroke="none" 
	d="
M155.998566,514.642700 
	C175.150131,514.541687 193.806244,514.855896 212.449387,513.991638 
	C213.941971,513.922424 215.449661,513.975586 216.939117,514.102966 
	C218.289795,514.218445 218.962692,515.046204 218.986023,516.443848 
	C219.009216,517.831543 218.398026,518.727783 217.038391,518.859619 
	C215.385696,519.019897 213.714035,519.050964 212.051605,519.034424 
	C185.750244,518.773254 159.448685,518.527161 133.147964,518.211426 
	C111.332199,517.949524 89.517273,517.613098 67.702667,517.266846 
	C66.102325,517.241516 64.380669,517.687683 61.937302,515.919006 
	C93.774178,515.486084 124.636322,515.066406 155.998566,514.642700 
z"/>
<path fill="#000000" opacity="1.000000" stroke="none" 
	d="
M344.000000,518.059570 
	C311.549377,518.406189 279.598999,518.793274 247.647491,519.006775 
	C245.283676,519.022583 240.915573,520.792725 241.150574,516.224548 
	C241.351715,512.314392 245.400558,514.029419 247.698730,514.046021 
	C280.647797,514.284485 313.601227,514.427185 346.541504,515.146362 
	C361.851257,515.480591 377.157257,515.444092 392.462708,515.716797 
	C394.038940,515.744873 395.775909,515.218079 397.997772,517.168213 
	C379.620544,517.473572 362.060272,517.765320 344.000000,518.059570 
z"/>
<path fill="#000000" opacity="1.000000" stroke="none" 
	d="
M96.538635,277.282043 
	C99.259560,276.685852 101.639870,275.379303 103.816429,276.943542 
	C104.891830,278.713135 102.838493,279.503937 103.108414,280.852448 
	C103.235291,280.953003 103.416122,281.166138 103.475021,281.136566 
	C107.447777,279.140656 108.563103,281.151550 108.489204,284.735443 
	C108.392479,289.425934 106.372261,293.191772 102.298569,295.428864 
	C96.607849,298.553864 90.526588,300.467712 82.716736,299.971008 
	C88.292816,292.388092 86.812248,281.895508 96.538635,277.282043 
z"/>
<path fill="#000000" opacity="1.000000" stroke="none" 
	d="
M74.629990,231.945251 
	C74.871399,237.842163 70.123840,238.271027 66.418884,239.050125 
	C59.958622,240.408554 48.738007,233.459488 45.593475,226.296967 
	C51.972500,225.551682 57.331547,221.930099 63.562309,220.991348 
	C69.095604,220.157669 73.579735,223.123917 75.208488,228.486755 
	C73.662224,229.883591 71.658730,228.790283 69.313217,229.664368 
	C71.298088,230.483719 72.830078,231.116119 74.629990,231.945251 
z"/>
<path fill="#000000" opacity="1.000000" stroke="none" 
	d="
M386.490906,198.585266 
	C388.243835,197.959305 389.511444,197.031143 391.100189,197.325851 
	C392.434387,207.070663 383.857483,221.214218 375.808167,220.433075 
	C373.870911,220.245071 371.550537,221.019730 370.280579,219.132416 
	C368.990387,217.215042 371.527466,215.973709 371.835175,214.173080 
	C370.163788,213.568558 369.566559,216.239883 367.308838,214.933929 
	C367.508575,215.175812 367.002899,214.845764 366.943573,214.448990 
	C366.117584,208.923279 368.883911,205.349213 373.323669,202.588318 
	C377.264130,200.137924 381.899231,200.150513 386.490906,198.585266 
z"/>
<path fill="#000000" opacity="1.000000" stroke="none" 
	d="
M382.003937,154.302612 
	C381.719666,161.120773 381.086975,167.427261 375.719513,171.933273 
	C374.467468,172.984360 372.940948,173.749207 371.456177,174.472092 
	C369.603851,175.373947 367.483704,175.908264 365.813110,174.435928 
	C364.022644,172.857910 366.533295,171.142838 366.196533,169.364258 
	C364.560272,169.253479 364.096069,171.605072 362.352905,171.119141 
	C359.527802,166.009277 360.977936,160.453217 366.205688,156.464294 
	C366.863800,155.962112 367.580688,155.523575 368.311340,155.132065 
	C372.224152,153.035431 376.149963,150.963058 380.001984,148.919113 
	C382.117920,150.157730 381.787323,152.122543 382.003937,154.302612 
z"/>
<path fill="#000000" opacity="1.000000" stroke="none" 
	d="
M364.140228,269.838318 
	C366.573090,269.969788 368.844299,269.974823 371.223785,267.908661 
	C369.490112,267.565247 368.155121,267.300812 366.819672,267.036285 
	C368.864838,258.272095 375.075195,257.778137 395.948029,265.019135 
	C391.982300,270.635284 387.032013,274.402466 380.990051,276.668945 
	C373.868530,279.340363 368.951721,275.274933 364.101685,270.415344 
	C363.829132,270.225281 364.036987,269.967651 364.140228,269.838318 
z"/>
<path fill="#000000" opacity="1.000000" stroke="none" 
	d="
M349.146606,144.806335 
	C347.564606,138.135284 350.750397,133.866562 355.550354,130.609268 
	C358.688263,128.479889 362.175385,126.856003 365.546875,125.083282 
	C367.643585,123.980858 368.840332,125.123276 369.013306,127.080765 
	C369.511444,132.717072 369.837677,138.369888 366.702698,143.523849 
	C365.557281,145.406998 364.171021,147.072784 362.172607,148.014557 
	C359.936371,149.068420 357.262695,150.539673 355.129211,149.060806 
	C352.618378,147.320374 355.296021,144.880814 355.538391,142.436554 
	C352.897858,142.237503 352.956970,148.463013 349.146606,144.806335 
z"/>
<path fill="#000000" opacity="1.000000" stroke="none" 
	d="
M283.826172,489.330322 
	C283.554443,491.593689 284.079865,494.209229 281.071228,494.050110 
	C278.425934,493.910248 278.874756,491.474609 278.856598,489.780151 
	C278.781708,482.799255 278.813995,475.816315 278.898438,468.835236 
	C278.917297,467.277313 278.543152,465.237457 280.948029,464.948212 
	C282.876343,464.716309 283.335602,466.393158 284.021759,467.692963 
	C285.588684,470.661133 285.990936,474.264099 288.971832,477.157410 
	C290.158051,473.919250 289.543396,471.091858 289.748260,468.354492 
	C289.858398,466.883087 289.698914,465.132996 291.804260,464.987122 
	C293.897278,464.842041 294.203583,466.442047 294.211578,468.007385 
	C294.250519,475.653839 294.247894,483.300598 294.223602,490.947174 
	C294.219940,492.093445 294.238800,493.443909 292.861267,493.869232 
	C291.241974,494.369141 290.408600,493.193787 289.821075,491.953613 
	C288.287872,488.717438 286.821136,485.449768 285.179504,481.871155 
	C282.981903,484.376556 283.699402,486.703125 283.826172,489.330322 
z"/>
<path fill="#000000" opacity="1.000000" stroke="none" 
	d="
M346.919312,113.549294 
	C350.535339,121.118591 348.163818,127.879028 344.252625,134.163635 
	C341.702026,138.262039 337.142242,139.554703 332.631287,138.404205 
	C331.284607,135.929092 334.251617,134.287643 333.986938,131.898331 
	C331.944611,132.472580 331.728302,135.513397 329.214081,135.109314 
	C326.718750,130.034393 327.607910,125.076332 332.486694,121.629585 
	C336.907043,118.506660 341.859863,116.137375 346.919312,113.549294 
M338.360748,125.699745 
	C340.515961,126.082413 342.010437,125.490936 341.730072,122.999687 
	C341.575165,121.623573 340.363953,121.088638 339.165802,121.501190 
	C337.225708,122.169205 336.045166,123.347618 338.360748,125.699745 
z"/>
<path fill="#000000" opacity="1.000000" stroke="none" 
	d="
M175.914307,74.706284 
	C169.494919,73.067596 167.262344,68.484489 166.798294,62.809055 
	C166.423355,58.223404 167.086533,53.594135 166.126465,48.985855 
	C174.628403,49.237465 184.336594,58.455006 184.259415,65.922508 
	C184.233597,68.420090 184.194702,71.329964 181.608780,72.438919 
	C179.232849,73.457802 178.892761,70.025177 177.077698,69.237259 
	C176.010147,70.998184 179.583267,73.395950 175.914307,74.706284 
z"/>
<path fill="#000000" opacity="1.000000" stroke="none" 
	d="
M169.558182,482.807800 
	C169.017700,481.837158 168.604034,481.171143 168.190353,480.505127 
	C167.852966,480.540985 167.515579,480.576874 167.178192,480.612732 
	C167.178192,484.011078 167.223495,487.410339 167.157410,490.807434 
	C167.128174,492.309937 167.026047,494.016663 164.913452,494.014526 
	C162.757416,494.012360 162.753860,492.252441 162.745972,490.781036 
	C162.704895,483.124054 162.721298,475.466614 162.755081,467.809509 
	C162.760162,466.655853 162.795029,465.326050 164.260437,465.009888 
	C165.825424,464.672302 166.712555,465.612579 167.297241,466.972321 
	C168.989197,470.907318 170.711227,474.829407 172.421448,478.756531 
	C172.839020,478.703827 173.256592,478.651093 173.674164,478.598358 
	C173.674164,475.217590 173.627518,471.835876 173.696259,468.456512 
	C173.725235,467.032318 173.426132,465.151917 175.592590,465.023315 
	C177.699646,464.898224 177.892563,466.660553 177.903656,468.157959 
	C177.960358,475.814209 177.954071,483.471161 177.913132,491.127563 
	C177.907028,492.268646 177.793411,493.619843 176.373535,493.941711 
	C174.726822,494.315063 173.998856,493.085236 173.443710,491.820862 
	C172.172684,488.925995 170.935760,486.016174 169.558182,482.807800 
z"/>
<path fill="#000000" opacity="1.000000" stroke="none" 
	d="
M373.208649,230.529831 
	C378.184753,232.323990 382.698730,234.192871 387.619781,234.915192 
	C384.491333,243.700699 371.476349,250.241455 364.335876,247.061218 
	C362.199005,246.109497 359.763763,244.883072 359.449280,242.481247 
	C359.053986,239.461792 362.604614,240.261032 364.367706,238.530060 
	C362.871826,237.633942 360.060089,238.064621 360.250061,235.524979 
	C360.419250,233.263504 362.397705,232.294495 364.137207,231.348267 
	C366.877899,229.857452 369.801819,229.614120 373.208649,230.529831 
M373.110657,234.395157 
	C370.355347,234.032669 369.092010,235.353973 369.085022,238.018829 
	C369.080902,239.589600 369.389740,241.127640 371.259460,241.372604 
	C373.372528,241.649475 375.359375,240.867538 376.332214,239.018417 
	C377.600830,236.607056 375.746674,235.463333 373.110657,234.395157 
z"/>
<path fill="#000000" opacity="1.000000" stroke="none" 
	d="
M148.931015,494.337646 
	C143.184921,494.428131 141.045883,491.182068 140.772339,486.487640 
	C140.501633,481.841675 140.490341,477.162994 140.686447,472.512177 
	C140.899338,467.463776 143.402603,464.965576 147.949615,464.689819 
	C153.281631,464.366455 156.441467,466.538910 156.943512,471.788422 
	C157.416595,476.735016 157.409912,481.784576 157.011215,486.740326 
	C156.659393,491.113190 154.319824,494.238098 148.931015,494.337646 
M151.546555,488.443176 
	C152.410019,483.021362 152.183640,477.574890 151.865295,472.132385 
	C151.762405,470.373627 151.120697,468.796143 149.097794,468.573456 
	C146.963501,468.338531 146.107239,469.947601 145.860367,471.618591 
	C145.085983,476.860321 144.797302,482.173218 145.857437,487.378967 
	C146.474838,490.410767 148.383331,491.672791 151.546555,488.443176 
z"/>
<path fill="#000000" opacity="1.000000" stroke="none" 
	d="
M267.930756,488.274658 
	C264.922729,486.695618 263.754456,488.058197 263.036163,490.578644 
	C262.555634,492.264832 262.154541,494.649323 259.672699,494.014587 
	C256.758484,493.269257 258.094666,490.842743 258.455475,489.056396 
	C259.834534,482.229126 261.306000,475.420258 262.783356,468.613251 
	C263.166565,466.847382 263.405060,464.862213 265.911865,464.817596 
	C268.371613,464.773834 268.844391,466.643921 269.234222,468.445709 
	C270.741608,475.413025 272.219727,482.387054 273.634430,489.373688 
	C273.968811,491.025055 275.209991,493.205200 272.596191,494.005371 
	C270.102844,494.768616 269.667572,492.556763 269.051544,490.847473 
	C268.771545,490.070618 268.476379,489.299194 267.930756,488.274658 
z"/>
<path fill="#000000" opacity="1.000000" stroke="none" 
	d="
M214.625305,470.154205 
	C214.953262,467.906677 213.766830,465.103577 216.835999,465.033997 
	C219.906403,464.964447 219.166672,467.746277 219.199966,469.559448 
	C219.297638,474.878601 219.359634,480.206818 219.156418,485.520813 
	C218.937057,491.257507 216.375580,494.112518 211.725616,494.338531 
	C206.499496,494.592529 203.590591,492.183197 203.152054,486.228851 
	C202.713501,480.274139 202.944046,474.267303 202.962250,468.283569 
	C202.967392,466.590759 203.174606,464.747314 205.561371,464.869781 
	C207.921280,464.990845 207.896301,466.917450 207.923203,468.551849 
	C208.013535,474.038239 207.912842,479.529114 208.078476,485.012390 
	C208.144257,487.189972 207.634705,490.330383 211.014038,490.334625 
	C214.088745,490.338501 214.334274,487.319824 214.455490,485.093872 
	C214.717316,480.285309 214.595200,475.455872 214.625305,470.154205 
z"/>
<path fill="#000000" opacity="1.000000" stroke="none" 
	d="
M307.831360,490.432709 
	C310.635010,489.620514 310.679138,487.548157 310.802704,485.528717 
	C310.910736,483.762939 311.633636,482.654144 313.599701,482.900787 
	C315.463440,483.134613 315.380127,484.560730 315.386993,485.915558 
	C315.407349,489.929016 314.278259,493.249969 309.852081,494.220978 
	C305.085175,495.266815 301.276154,493.211914 300.328949,488.513458 
	C299.107330,482.454010 299.144745,476.216980 300.268127,470.145935 
	C301.060791,465.862244 304.765900,463.987000 309.551239,464.738373 
	C314.067841,465.447449 315.386993,468.651184 315.556488,472.669556 
	C315.615448,474.066864 315.472321,475.461304 313.649963,475.596680 
	C312.101868,475.711670 311.121155,474.956726 310.899170,473.354889 
	C310.611359,471.278259 310.931366,468.348419 307.718353,468.855194 
	C304.710785,469.329620 305.063171,472.307800 304.994171,474.578491 
	C304.882874,478.241425 304.884460,481.912384 304.990692,485.575500 
	C305.046967,487.516327 304.870300,489.732178 307.831360,490.432709 
z"/>
<path fill="#000000" opacity="1.000000" stroke="none" 
	d="
M192.161697,66.871803 
	C187.790482,64.615211 186.463303,60.741066 186.256149,56.740170 
	C186.047607,52.712662 186.738647,48.631653 185.985962,44.511425 
	C193.045517,45.119858 201.245132,52.542412 201.980362,58.586319 
	C202.229156,60.631500 202.021881,62.591541 200.329498,64.055222 
	C198.567749,65.578896 197.350159,63.549839 195.444641,63.161270 
	C195.882416,65.607887 197.072739,68.945023 192.161697,66.871803 
z"/>
<path fill="#000000" opacity="1.000000" stroke="none" 
	d="
M129.311859,489.828857 
	C130.811646,488.462860 130.697281,486.900818 130.873352,485.430206 
	C131.052444,483.934296 131.659317,482.839172 133.381699,483.013977 
	C135.177567,483.196198 135.271210,484.600250 135.317810,485.970001 
	C135.448212,489.803589 134.341522,492.965057 130.283829,494.130737 
	C125.856255,495.402679 121.800407,493.651917 120.643486,489.405090 
	C118.876427,482.918518 119.066864,476.192139 120.475594,469.673798 
	C121.370453,465.533234 125.472130,463.752686 130.064651,464.811920 
	C134.207169,465.767365 135.400223,468.913086 135.584869,472.690643 
	C135.654739,474.120148 135.430115,475.445618 133.607407,475.535278 
	C132.043015,475.612213 131.113098,474.835571 130.911453,473.237976 
	C130.646790,471.140991 130.878052,468.300507 127.652878,468.833893 
	C124.946930,469.281403 125.090401,471.990906 124.996246,474.129730 
	C124.835342,477.785309 124.605766,481.456268 124.785446,485.102051 
	C124.908493,487.598602 124.752869,490.870087 129.311859,489.828857 
z"/>
<path fill="#000000" opacity="1.000000" stroke="none" 
	d="
M190.195770,494.302917 
	C186.488098,493.697144 184.400681,491.842804 183.745209,488.513977 
	C183.471375,487.123291 183.535248,485.786835 185.111099,485.187195 
	C186.807861,484.541565 187.527069,485.649353 188.039505,487.001282 
	C188.838867,489.110260 189.879944,491.650848 192.523392,489.746429 
	C194.982864,487.974579 193.621185,485.539246 191.920761,483.737000 
	C189.757278,481.443939 187.205566,479.481018 185.259903,477.027863 
	C182.906754,474.060883 182.634445,470.511627 184.650803,467.243408 
	C186.514099,464.223267 189.720963,464.341888 192.722107,464.902374 
	C195.167709,465.359100 196.809280,466.960449 197.433380,469.493744 
	C197.782135,470.909393 197.837936,472.207001 196.269989,472.846313 
	C194.934341,473.390930 194.137909,472.677490 193.541107,471.460602 
	C192.712387,469.770905 191.535812,467.754730 189.468353,469.480042 
	C187.267502,471.316742 188.561066,473.316315 190.256454,474.995697 
	C192.491913,477.210052 195.047958,479.222687 196.800186,481.778625 
	C201.007645,487.915802 198.069885,493.617737 190.195770,494.302917 
z"/>
<path fill="#000000" opacity="1.000000" stroke="none" 
	d="
M369.675934,191.813019 
	C367.232941,192.495102 365.139374,192.885529 363.286987,191.818939 
	C362.160706,189.849503 364.159424,188.937332 364.260437,187.420486 
	C362.876587,186.222748 361.720367,189.036667 360.332764,187.666458 
	C358.471375,181.068024 365.217712,176.839447 378.897797,174.422195 
	C379.971802,180.331329 375.971588,188.101608 369.675934,191.813019 
z"/>
<path fill="#000000" opacity="1.000000" stroke="none" 
	d="
M79.170998,159.944778 
	C81.152618,161.115723 80.538338,162.245804 79.477890,163.287445 
	C77.059319,165.663116 74.090393,166.869293 70.812622,165.962143 
	C65.433624,164.473434 60.997765,161.468338 57.244370,156.576950 
	C61.750164,154.922852 65.570351,153.394180 69.476631,152.131943 
	C71.974106,151.324936 74.499680,151.952881 76.689690,153.263016 
	C78.774437,154.510193 81.502548,155.796310 77.652626,158.484787 
	C76.669296,159.171448 78.271202,159.518112 79.170998,159.944778 
z"/>
<path fill="#000000" opacity="1.000000" stroke="none" 
	d="
M53.638283,203.371780 
	C52.651302,202.198563 51.641747,200.713776 53.166710,200.296326 
	C58.191471,198.920868 62.802490,195.668961 68.418282,196.770370 
	C72.349571,197.541397 71.923431,199.056961 72.994049,203.366730 
	C73.718361,206.282440 74.098495,207.517731 71.644859,208.882187 
	C68.533363,210.612457 65.348610,210.483643 62.103954,209.079025 
	C59.026123,207.746628 56.247780,206.017990 53.638283,203.371780 
z"/>
<path fill="#000000" opacity="1.000000" stroke="none" 
	d="
M354.716583,216.304779 
	C353.164001,217.083115 353.044952,219.051468 351.031708,219.480072 
	C348.304352,217.914978 348.217194,215.223267 349.250519,212.725967 
	C352.059875,205.936493 357.950043,203.275955 364.721710,201.341858 
	C364.071136,216.654984 361.884399,220.862198 354.222931,222.066711 
	C352.404419,219.879593 356.231873,218.376633 354.716583,216.304779 
z"/>
<path fill="#000000" opacity="1.000000" stroke="none" 
	d="
M80.728027,207.971619 
	C83.542351,208.040253 85.110802,209.564499 86.501595,211.232178 
	C88.278419,213.362732 86.723839,214.038818 84.269691,214.588638 
	C87.853806,216.085236 88.396439,217.784256 85.184547,219.738312 
	C81.228333,222.145172 77.305321,221.845078 73.390640,219.675400 
	C70.339760,217.984467 67.415863,216.139511 65.075386,212.185303 
	C70.490875,211.075058 74.882690,207.975174 80.728027,207.971619 
z"/>
<path fill="#000000" opacity="1.000000" stroke="none" 
	d="
M217.310822,60.084621 
	C218.541382,63.253242 218.637787,67.895233 216.462082,67.836151 
	C213.441711,67.754135 212.107162,72.037766 208.963989,69.800545 
	C205.679489,67.462723 204.186462,64.139153 204.266373,60.414707 
	C204.350281,56.504345 205.088303,52.556946 207.737076,48.252026 
	C210.897964,52.462467 215.051529,55.152931 217.310822,60.084621 
z"/>
<path fill="#000000" opacity="1.000000" stroke="none" 
	d="
M384.555237,196.777863 
	C379.979462,200.090698 378.218231,195.573242 375.959137,193.854996 
	C373.739929,192.167114 375.505646,189.600189 376.567902,187.524536 
	C379.255737,182.272263 384.882629,181.399521 389.237885,178.484116 
	C392.091125,185.239777 390.398621,191.866882 384.555237,196.777863 
z"/>
<path fill="#000000" opacity="1.000000" stroke="none" 
	d="
M399.436127,218.697754 
	C397.210846,225.071014 393.955719,230.088272 387.291016,231.859344 
	C385.376526,232.368103 383.517456,231.900864 382.187134,230.582764 
	C380.487915,228.899185 382.914917,228.118851 383.413330,226.714691 
	C381.243774,226.591263 378.978668,226.440582 380.418304,223.256821 
	C381.050629,221.858505 381.880890,220.569397 383.221710,219.840149 
	C388.404846,217.021133 393.875336,216.918488 399.436127,218.697754 
z"/>
<path fill="#000000" opacity="1.000000" stroke="none" 
	d="
M73.654388,256.936493 
	C69.134163,255.063812 65.312172,252.906570 62.366539,248.374573 
	C66.692650,246.845398 70.582024,245.102707 74.655716,244.139542 
	C78.343155,243.267731 82.339806,244.746307 83.049332,248.308701 
	C83.324097,249.688232 84.796677,252.774094 82.791313,254.749115 
	C80.320053,257.182953 77.317436,257.645966 73.654388,256.936493 
z"/>
<path fill="#000000" opacity="1.000000" stroke="none" 
	d="
M330.023071,492.640808 
	C328.112061,494.747681 325.828552,494.589355 325.966187,492.213959 
	C326.499664,483.008026 321.851837,475.166718 319.960052,466.627777 
	C319.895233,466.335175 320.085297,465.986115 320.184967,465.534637 
	C323.728271,463.536224 324.262787,466.399353 325.140594,468.693573 
	C326.007507,470.959351 326.181335,473.509583 327.840942,475.547302 
	C333.181610,465.125519 333.181610,465.125519 336.046539,465.704163 
	C334.063354,474.533752 329.157471,482.768036 330.023071,492.640808 
z"/>
<path fill="#000000" opacity="1.000000" stroke="none" 
	d="
M96.006210,142.413879 
	C93.736275,145.709167 90.577774,145.577240 87.473167,144.757187 
	C82.325043,143.397354 76.911331,136.934937 76.145416,131.616028 
	C86.543633,130.001770 96.342178,130.203354 97.285690,138.745773 
	C96.097527,140.461304 94.558578,138.579575 93.153366,139.130722 
	C93.328232,140.844727 95.546944,140.668686 96.006210,142.413879 
M86.328232,139.193192 
	C89.187485,140.117676 90.027245,138.497086 89.785233,136.145523 
	C89.585068,134.200546 88.105644,133.021423 86.265541,133.904877 
	C83.844887,135.067047 84.283508,136.992493 86.328232,139.193192 
z"/>
<path fill="#000000" opacity="1.000000" stroke="none" 
	d="
M85.507599,242.326569 
	C85.176956,241.703735 84.955154,241.417480 84.904823,241.103714 
	C84.450645,238.272659 80.716995,235.312637 82.997490,233.002090 
	C85.688675,230.275436 89.564148,232.920364 92.825958,233.772827 
	C96.084007,234.624298 98.333260,236.843994 99.234200,240.119614 
	C99.728958,241.918457 100.774307,244.155670 97.182922,244.308487 
	C95.473083,244.381256 96.939957,248.030426 93.756424,247.638824 
	C90.113091,247.190674 87.505447,245.736389 85.507599,242.326569 
z"/>
<path fill="#000000" opacity="1.000000" stroke="none" 
	d="
M351.647980,278.349854 
	C353.343506,279.371613 354.748627,280.529968 356.500397,278.511658 
	C354.527557,275.684906 350.658386,274.863983 349.039215,271.599335 
	C349.500061,269.144806 351.300781,269.057007 353.179901,269.598236 
	C360.503357,271.707581 362.366821,278.457367 365.886688,283.939941 
	C361.141754,286.450409 352.052917,285.468231 348.684662,282.152832 
	C346.536957,280.038818 344.904480,277.560425 346.854492,274.415771 
	C349.804108,274.256287 349.779755,277.115540 351.647980,278.349854 
z"/>
<path fill="#000000" opacity="1.000000" stroke="none" 
	d="
M244.774139,487.861115 
	C244.776077,484.390289 244.813171,481.400269 244.771698,478.411346 
	C244.709686,473.940491 246.046509,468.938263 239.911148,466.309204 
	C244.653625,463.755615 249.191193,464.866302 253.546051,464.958923 
	C253.785324,465.763550 254.038162,466.294098 253.949020,466.359650 
	C248.499268,470.367523 250.201828,476.206909 250.043533,481.553955 
	C249.974747,483.877411 250.142807,486.214081 249.963623,488.526184 
	C249.799423,490.644714 250.906311,493.984924 247.495895,494.049500 
	C243.585464,494.123535 245.204941,490.515045 244.774139,487.861115 
z"/>
<path fill="#000000" opacity="1.000000" stroke="none" 
	d="
M142.585083,67.514679 
	C148.201950,64.790634 150.758255,69.421890 153.610474,72.309731 
	C157.866653,76.619102 157.759430,79.894806 154.258392,84.819572 
	C151.475693,83.734589 151.354385,81.152855 150.827972,78.785843 
	C150.412949,76.919632 149.622437,75.257004 147.460754,74.971550 
	C146.525467,74.848061 145.907104,75.581459 145.688583,76.429474 
	C145.177155,78.413940 146.565445,79.448395 147.848022,80.548492 
	C149.092148,81.615623 150.484329,82.617203 150.544037,84.509705 
	C146.660797,85.294830 143.753143,82.598541 143.098236,77.335434 
	C142.709045,74.207680 142.690475,71.033813 142.585083,67.514679 
z"/>
<path fill="#000000" opacity="1.000000" stroke="none" 
	d="
M228.188416,494.332428 
	C225.215652,494.134003 224.924561,492.327850 224.919128,490.400055 
	C224.898956,483.250244 224.880356,476.100006 224.947708,468.950714 
	C224.964340,467.184845 224.772522,464.960846 227.439407,464.883881 
	C230.146545,464.805756 230.027481,466.996796 230.053131,468.796326 
	C230.128983,474.116272 230.200500,479.439484 230.093307,484.757751 
	C230.023407,488.224701 230.142715,491.237183 234.898438,490.863220 
	C235.943512,490.781036 236.790344,491.431335 236.841568,493.007751 
	C234.560547,495.449249 231.408066,493.934631 228.188416,494.332428 
z"/>
<path fill="#000000" opacity="1.000000" stroke="none" 
	d="
M76.187988,185.180908 
	C70.025513,182.393280 66.956573,176.904587 67.341125,169.253082 
	C71.856201,170.960587 76.718224,171.164154 80.415222,174.517822 
	C83.300644,177.135300 82.532318,178.030640 80.455811,181.390289 
	C79.326485,183.217453 79.997375,185.899948 76.187988,185.180908 
z"/>
<path fill="#000000" opacity="1.000000" stroke="none" 
	d="
M235.706223,519.911743 
	C230.780182,525.227356 224.535599,523.988037 221.946060,517.466980 
	C221.524612,516.405640 221.716324,515.523560 222.487091,514.763977 
	C224.241669,513.034790 225.952286,511.250092 227.818344,509.648163 
	C229.452927,508.244934 232.657761,508.827454 232.418854,509.950348 
	C231.472763,514.397034 242.490799,512.833191 236.701920,519.015320 
	C236.476318,519.256226 236.224792,519.472778 235.706223,519.911743 
z"/>
<path fill="#000000" opacity="1.000000" stroke="none" 
	d="
M377.950958,253.335632 
	C380.270752,245.958969 386.276550,243.273544 395.091461,245.618973 
	C393.163086,249.296631 391.954529,253.492569 388.569824,255.896164 
	C386.319458,257.494232 382.694458,261.452484 380.788940,255.004150 
	C380.489777,253.991745 378.400513,255.288177 377.950958,253.335632 
z"/>
<path fill="#000000" opacity="1.000000" stroke="none" 
	d="
M366.555237,253.581818 
	C365.364624,255.599411 364.548309,257.450867 363.342010,258.998291 
	C361.643127,261.177582 359.066864,263.066406 356.526672,261.837097 
	C354.564453,260.887482 352.600586,258.321442 352.192352,256.177948 
	C351.644867,253.303268 354.354919,251.367661 356.888885,250.540939 
	C360.535339,249.351257 364.329010,247.843323 368.171997,249.588913 
	C368.795197,251.468918 367.365112,252.196381 366.555237,253.581818 
z"/>
<path fill="#000000" opacity="1.000000" stroke="none" 
	d="
M320.668701,91.316956 
	C324.841614,89.489143 328.863007,89.916222 332.800568,90.187584 
	C335.727142,90.389282 336.909088,91.616196 335.038391,94.796082 
	C332.617889,98.910561 327.700714,100.288849 325.325073,104.362106 
	C324.992493,104.932312 323.790863,104.834015 322.865387,103.871490 
	C323.786041,100.954483 329.845184,98.677078 325.944275,95.172897 
	C322.675842,92.236900 319.701508,97.366989 315.884064,98.210403 
	C315.421051,94.525032 317.627991,92.859085 320.668701,91.316956 
z"/>
<path fill="#000000" opacity="1.000000" stroke="none" 
	d="
M173.800537,83.913200 
	C174.022598,81.711739 173.560974,79.842659 174.453751,78.150597 
	C178.934738,78.415932 184.327194,82.895393 185.067612,86.935471 
	C185.387451,88.680542 184.720520,91.468864 183.782806,91.257256 
	C181.115234,90.655251 178.267380,94.309319 175.904938,90.837143 
	C174.559570,88.859772 173.786377,86.731804 173.800537,83.913200 
z"/>
<path fill="#000000" opacity="1.000000" stroke="none" 
	d="
M165.782257,85.471588 
	C162.331711,88.339722 161.522354,84.900162 160.350998,83.237228 
	C157.946457,79.823608 159.719833,75.909828 159.405502,72.217140 
	C164.373505,72.227036 169.670654,76.645790 170.116516,81.130402 
	C170.420395,84.186913 169.539490,86.178589 165.782257,85.471588 
z"/>
<path fill="#000000" opacity="1.000000" stroke="none" 
	d="
M194.766357,70.331345 
	C196.316071,71.915688 197.439514,73.360733 197.988388,75.152969 
	C199.146225,78.933685 197.282394,80.740952 193.870865,81.895775 
	C190.654221,82.984642 189.570602,80.688019 188.639740,78.727791 
	C186.866364,74.993416 187.878403,70.946304 187.690933,66.717369 
	C190.630173,67.037682 192.493225,68.708908 194.766357,70.331345 
z"/>
<path fill="#000000" opacity="1.000000" stroke="none" 
	d="
M345.993530,252.200226 
	C344.184814,254.681686 343.462799,257.577667 340.325134,258.529114 
	C337.600494,259.355316 331.634155,257.899139 331.434448,255.833282 
	C331.076904,252.134018 333.846985,250.822128 336.790405,249.774185 
	C339.330048,248.869965 341.933563,248.690918 344.581451,248.794128 
	C346.922607,248.885361 347.564301,249.890381 345.993530,252.200226 
z"/>
<path fill="#000000" opacity="1.000000" stroke="none" 
	d="
M328.931000,116.363571 
	C329.858521,116.011246 330.539673,115.899467 331.111420,115.587303 
	C333.548309,114.256874 335.286346,111.926102 333.931580,109.525459 
	C332.324951,106.678558 329.627106,108.305641 327.435547,109.557404 
	C326.607697,110.030251 326.152130,111.147148 324.961548,110.992981 
	C325.710541,106.117760 333.743896,103.048225 341.442932,104.687782 
	C341.265778,110.718590 336.329529,117.273163 330.833374,118.775650 
	C329.134674,119.240021 328.786865,118.881973 328.931000,116.363571 
z"/>
<path fill="#000000" opacity="1.000000" stroke="none" 
	d="
M222.570282,68.982635 
	C225.177460,70.238434 227.123795,71.939850 228.088730,74.253319 
	C229.268127,77.080887 230.944641,80.494164 225.709854,81.342262 
	C224.197281,81.587311 225.096054,83.541847 223.853836,83.966759 
	C218.030914,80.628227 217.295517,73.666885 222.570282,68.982635 
z"/>
<path fill="#000000" opacity="1.000000" stroke="none" 
	d="
M114.984787,132.774597 
	C114.765671,134.961472 113.752060,135.608551 111.895889,135.304108 
	C107.034073,134.506668 103.452835,130.505066 102.785271,124.770401 
	C106.085838,124.643204 109.391907,124.374954 112.571945,125.348038 
	C116.885750,126.668076 117.478447,128.632812 114.984787,132.774597 
z"/>
<path fill="#000000" opacity="1.000000" stroke="none" 
	d="
M112.087212,237.418945 
	C113.085281,238.235489 114.231766,238.510010 114.099602,239.938431 
	C112.401871,241.158218 109.062492,239.037750 108.352730,242.225510 
	C107.174911,247.515427 113.423752,246.399445 115.059608,249.407349 
	C109.260582,251.901245 103.964027,246.730179 100.849358,235.505859 
	C104.730080,234.995392 108.317818,235.667618 112.087212,237.418945 
z"/>
<path fill="#000000" opacity="1.000000" stroke="none" 
	d="
M143.854126,88.994499 
	C144.964417,90.012390 145.922501,90.743607 146.525375,91.698959 
	C147.132126,92.660454 147.621307,93.918564 146.297150,94.790710 
	C145.179565,95.526794 144.077835,95.279739 143.130905,94.354065 
	C142.893158,94.121666 142.680191,93.863403 142.437241,93.636963 
	C140.523193,91.852913 138.502365,88.942375 135.742737,90.805275 
	C132.412079,93.053673 135.854172,95.792175 136.326843,98.321899 
	C132.573532,96.419785 130.233688,90.702072 131.021118,84.864777 
	C135.531448,85.127304 139.662674,86.530334 143.854126,88.994499 
z"/>
<path fill="#000000" opacity="1.000000" stroke="none" 
	d="
M111.012161,109.876717 
	C112.192642,111.317207 113.247467,112.460396 112.152069,114.456985 
	C109.039497,114.875755 107.315521,112.505501 105.260735,110.716103 
	C103.684021,109.343048 101.987610,108.142334 100.299889,110.680016 
	C97.083229,115.516624 95.581825,115.412476 92.807243,110.147736 
	C92.511070,109.585747 92.441391,108.904396 92.061607,107.543945 
	C98.644676,106.965370 104.895187,105.614952 111.012161,109.876717 
z"/>
<path fill="#000000" opacity="1.000000" stroke="none" 
	d="
M239.418381,45.344261 
	C239.161041,47.525635 238.164886,48.566414 236.299133,49.076221 
	C231.562378,50.370518 229.088959,53.462940 229.027588,58.498543 
	C229.009521,59.981300 229.370117,62.403358 226.741837,61.960499 
	C224.586136,61.597267 224.104630,59.596718 224.400375,57.619770 
	C224.860352,54.544853 226.353500,51.926941 228.600388,49.847340 
	C230.914368,47.705635 233.419418,45.769051 235.859070,43.764866 
	C237.706116,42.247490 238.863235,42.805534 239.418381,45.344261 
z"/>
<path fill="#000000" opacity="1.000000" stroke="none" 
	d="
M354.460297,155.494720 
	C356.064392,154.676117 357.152466,153.498657 358.791290,153.794464 
	C361.336914,159.577377 359.291382,164.309067 353.110291,166.978622 
	C348.400330,160.389221 348.483826,159.474274 354.460297,155.494720 
z"/>
<path fill="#000000" opacity="1.000000" stroke="none" 
	d="
M124.892990,95.181053 
	C123.884590,97.826294 122.755943,96.256088 122.031105,95.419800 
	C121.078072,94.320236 120.343361,92.989494 119.710876,91.664551 
	C118.900909,89.967796 118.162308,88.226669 115.917290,88.308121 
	C113.971725,88.378708 113.136383,89.878571 112.457626,91.449348 
	C112.141632,92.180626 111.842613,92.919235 111.317574,94.177895 
	C108.576546,90.925430 107.135895,87.916901 108.293030,84.070656 
	C115.785004,84.330612 123.471924,89.394302 124.892990,95.181053 
z"/>
<path fill="#000000" opacity="1.000000" stroke="none" 
	d="
M348.219543,172.313263 
	C350.815765,169.893005 353.422791,168.237808 356.598694,167.647919 
	C358.220764,171.851288 353.898621,180.740753 350.363617,180.790939 
	C349.325562,178.845901 352.585663,177.321579 350.943787,175.271118 
	C348.778748,175.426270 348.866547,178.248657 346.620026,178.673782 
	C345.229462,176.230209 346.448090,174.379929 348.219543,172.313263 
z"/>
<path fill="#000000" opacity="1.000000" stroke="none" 
	d="
M95.300285,173.247070 
	C90.360985,175.393738 87.666954,173.787125 84.604340,167.024200 
	C88.078598,164.617981 91.466377,164.615692 94.852097,167.204010 
	C97.062447,168.893799 97.558762,170.812500 95.300285,173.247070 
z"/>
<path fill="#000000" opacity="1.000000" stroke="none" 
	d="
M187.012085,98.007248 
	C184.958344,92.804024 186.986832,88.350624 189.441132,83.907845 
	C193.586548,86.232780 195.713821,92.867630 194.012115,97.769913 
	C191.636795,97.672630 192.546829,95.050812 191.194489,94.110817 
	C188.589493,94.068626 190.033401,97.965416 187.240524,97.987823 
	C186.980469,97.975609 187.000885,97.997192 187.012085,98.007248 
z"/>
<path fill="#000000" opacity="1.000000" stroke="none" 
	d="
M83.034447,154.803986 
	C81.561378,152.557816 80.643669,150.490204 80.443115,147.748795 
	C84.916367,147.236237 88.487495,148.120789 90.781288,151.976883 
	C92.019737,154.058823 90.427719,155.270462 88.990845,156.463837 
	C86.435081,158.586502 84.796227,157.075729 83.034447,154.803986 
z"/>
<path fill="#000000" opacity="1.000000" stroke="none" 
	d="
M96.473450,129.856400 
	C93.618416,132.393051 92.165138,129.995071 90.821930,128.340042 
	C89.274841,126.433830 88.463791,124.076660 88.093269,121.277191 
	C92.254906,119.965462 95.365494,121.488136 98.020164,124.471313 
	C100.181114,126.899658 97.840332,128.104614 96.473450,129.856400 
z"/>
<path fill="#000000" opacity="1.000000" stroke="none" 
	d="
M83.303787,189.742828 
	C82.197243,191.983063 83.620003,195.589478 80.128273,195.907745 
	C76.422005,196.245605 73.711342,194.120972 70.881332,190.625610 
	C75.285553,189.299255 78.705666,185.769012 83.303787,189.742828 
z"/>
<path fill="#000000" opacity="1.000000" stroke="none" 
	d="
M136.492859,104.614944 
	C137.702637,106.062103 137.738800,107.985535 136.205170,107.779335 
	C133.885651,107.467453 133.840454,109.612976 132.366791,110.228127 
	C128.357819,107.763969 128.775421,103.893555 129.215881,100.168861 
	C129.439133,98.280823 130.733627,97.890755 132.499710,98.842186 
	C134.771576,100.066086 135.234070,102.420914 136.492859,104.614944 
z"/>
<path fill="#000000" opacity="1.000000" stroke="none" 
	d="
M124.494629,177.010986 
	C130.129944,178.174240 128.264694,181.607315 127.447365,185.113434 
	C121.650116,186.028641 120.007416,181.696289 117.525558,178.136017 
	C119.816566,176.248611 122.031311,177.088837 124.494629,177.010986 
z"/>
<path fill="#000000" opacity="1.000000" stroke="none" 
	d="
M121.789719,111.687332 
	C116.633316,111.354568 115.214867,109.983208 113.403702,103.744377 
	C117.780510,102.251328 121.344505,103.095108 124.534752,107.077438 
	C123.116066,108.276588 122.525925,109.868828 121.789719,111.687332 
z"/>
<path fill="#000000" opacity="1.000000" stroke="none" 
	d="
M151.588654,95.655380 
	C152.256317,93.763924 152.838348,92.234116 153.670319,90.047363 
	C157.812866,92.856667 159.532333,96.042023 158.887375,100.429794 
	C156.594131,102.040192 154.326218,99.825333 152.860748,101.767563 
	C151.057648,99.630272 150.991257,97.874161 151.588654,95.655380 
z"/>
<path fill="#000000" opacity="1.000000" stroke="none" 
	d="
M347.910187,210.667664 
	C347.544281,212.436264 347.688965,214.016251 345.928345,215.278275 
	C344.731079,212.191376 342.258179,210.706146 338.781158,210.294556 
	C340.654877,205.968277 344.049896,204.793137 347.783691,203.822937 
	C348.832306,206.137650 347.741241,208.228668 347.910187,210.667664 
z"/>
<path fill="#000000" opacity="1.000000" stroke="none" 
	d="
M105.128334,155.723862 
	C103.935188,157.718689 104.060425,161.400284 101.038376,160.466034 
	C97.105598,159.250214 96.643005,155.284134 95.981308,151.483505 
	C100.306686,150.358337 103.108253,151.955902 105.128334,155.723862 
z"/>
<path fill="#000000" opacity="1.000000" stroke="none" 
	d="
M98.516418,265.986023 
	C96.191681,264.974152 94.109436,264.226624 93.252510,261.536774 
	C96.200050,259.230072 99.420486,257.834076 103.137230,259.389130 
	C105.306892,260.296875 104.494461,262.923523 104.249359,264.282349 
	C103.721230,267.210327 100.969284,266.227295 98.516418,265.986023 
z"/>
<path fill="#000000" opacity="1.000000" stroke="none" 
	d="
M99.089973,180.757645 
	C101.331360,183.103683 100.297600,185.302689 99.356331,187.365509 
	C98.926506,188.307495 97.793640,188.395706 96.750427,188.034836 
	C94.644539,187.306351 92.955185,183.708786 92.604286,178.902222 
	C95.065468,177.905243 96.861038,179.580673 99.089973,180.757645 
z"/>
<path fill="#000000" opacity="1.000000" stroke="none" 
	d="
M93.413147,198.546951 
	C99.146561,196.461716 100.490677,197.019943 100.225296,201.105194 
	C100.120605,202.716766 100.404778,204.568420 98.135155,204.943253 
	C95.683342,205.348160 93.506615,204.440613 91.876740,202.772797 
	C90.029861,200.882919 92.841209,200.120361 93.413147,198.546951 
z"/>
<path fill="#000000" opacity="1.000000" stroke="none" 
	d="
M344.055939,150.287567 
	C342.446106,151.468246 341.085236,152.419464 338.904572,152.366837 
	C338.256866,150.592941 334.971222,149.239731 336.983154,146.830383 
	C339.680115,143.600632 343.299957,146.041718 346.568756,145.766083 
	C346.613678,148.137421 345.169189,148.917999 344.055939,150.287567 
z"/>
<path fill="#000000" opacity="1.000000" stroke="none" 
	d="
M100.788383,220.617157 
	C102.517685,216.487244 106.128410,218.318192 108.921494,217.913879 
	C110.075706,217.746780 110.529678,219.837753 110.576744,221.136230 
	C110.643555,222.979279 109.233162,223.785934 107.710274,223.930038 
	C104.959076,224.190338 102.485130,223.481171 100.788383,220.617157 
z"/>
<path fill="#000000" opacity="1.000000" stroke="none" 
	d="
M330.656067,141.716446 
	C331.973511,141.146912 332.963684,140.352722 334.366882,141.443069 
	C334.273346,142.398346 334.253998,143.522705 334.038269,144.608017 
	C333.571991,146.954193 333.752380,149.956085 330.608093,150.442505 
	C328.628540,150.748749 328.239075,148.458893 327.520020,147.093674 
	C325.919952,144.055710 328.550934,143.144608 330.656067,141.716446 
z"/>
<path fill="#000000" opacity="1.000000" stroke="none" 
	d="
M194.160797,152.282349 
	C194.099960,149.644119 193.468216,147.342941 194.627960,144.928574 
	C198.151764,145.094055 199.518158,147.770081 200.638306,150.372437 
	C201.563324,152.521439 199.271286,153.001480 198.052750,153.895523 
	C196.302811,155.179443 195.014542,154.622757 194.160797,152.282349 
z"/>
<path fill="#000000" opacity="1.000000" stroke="none" 
	d="
M165.799225,99.997803 
	C160.438156,96.436646 160.282761,95.723747 163.515549,90.667953 
	C168.332275,92.726540 169.578491,97.333488 165.799225,99.997803 
z"/>
<path fill="#000000" opacity="1.000000" stroke="none" 
	d="
M141.909744,113.493889 
	C141.970016,111.376770 141.312042,109.485832 143.054703,107.801086 
	C145.779861,108.547234 147.617203,110.156853 147.772690,113.156784 
	C147.868698,115.009125 146.593964,116.444534 145.004654,116.880043 
	C142.752731,117.497139 142.489044,115.392395 141.909744,113.493889 
z"/>
<path fill="#000000" opacity="1.000000" stroke="none" 
	d="
M118.659973,277.838470 
	C122.445442,271.730011 123.120651,278.381592 125.620483,278.695160 
	C124.006584,282.374878 121.153297,282.087524 118.775795,282.545776 
	C117.171104,280.809937 117.962280,279.468811 118.659973,277.838470 
z"/>
<path fill="#000000" opacity="1.000000" stroke="none" 
	d="
M122.960556,156.295242 
	C122.521324,154.826614 121.180054,153.550308 122.831871,152.530930 
	C124.158112,151.712479 125.612846,152.260452 126.162041,153.576141 
	C127.089516,155.798065 129.788773,155.663681 131.159241,157.779892 
	C128.016022,159.402618 125.208420,160.852188 122.960556,156.295242 
z"/>
<path fill="#000000" opacity="1.000000" stroke="none" 
	d="
M237.948944,77.156197 
	C239.801086,79.674461 239.515274,82.223671 239.221283,85.125893 
	C236.520477,84.567497 234.789276,82.470772 231.429077,82.986656 
	C233.584137,79.969086 234.974457,77.826561 237.948944,77.156197 
z"/>
<path fill="#000000" opacity="1.000000" stroke="none" 
	d="
M330.991882,155.011780 
	C331.308960,154.989609 331.638397,154.946335 331.969208,154.920883 
	C334.157867,154.752548 337.201202,153.410400 337.530853,156.926239 
	C337.842590,160.251404 335.261505,161.315720 331.866119,161.161514 
	C331.567963,159.251251 331.274719,157.372528 331.006714,155.233978 
	C331.031891,154.974167 331.004883,154.998886 330.991882,155.011780 
z"/>
<path fill="#000000" opacity="1.000000" stroke="none" 
	d="
M192.487610,235.500580 
	C190.768738,233.834045 189.392960,232.172302 190.021729,230.058777 
	C190.563248,228.238495 192.323166,228.603729 193.883911,228.891953 
	C194.783447,231.284424 195.679337,233.667145 196.552811,235.990311 
	C194.997238,237.317673 193.917511,236.213226 192.487610,235.500580 
z"/>
<path fill="#000000" opacity="1.000000" stroke="none" 
	d="
M179.774109,184.746750 
	C179.102997,187.778641 177.681610,187.591629 175.887344,186.126190 
	C173.140076,183.882401 173.432022,181.529190 175.320770,178.927628 
	C178.541870,179.638885 179.236633,181.963806 179.774109,184.746750 
z"/>
<path fill="#000000" opacity="1.000000" stroke="none" 
	d="
M130.194458,191.576355 
	C127.008850,194.772720 125.808449,194.318008 122.822327,188.821213 
	C126.053925,187.775574 129.044205,186.345795 130.194458,191.576355 
z"/>
<path fill="#000000" opacity="1.000000" stroke="none" 
	d="
M261.010132,80.879242 
	C259.136353,82.180290 256.849030,83.172813 255.583191,81.361618 
	C254.012619,79.114456 255.820831,77.175415 257.375214,75.458214 
	C260.017944,76.505859 260.812744,78.370659 261.010132,80.879242 
z"/>
<path fill="#000000" opacity="1.000000" stroke="none" 
	d="
M133.022049,200.789215 
	C132.012680,203.727219 130.380310,204.482727 128.106613,202.612350 
	C126.952560,201.662994 125.605858,199.991394 127.004707,198.860138 
	C129.312317,196.993942 131.577957,197.849869 133.022049,200.789215 
z"/>
<path fill="#000000" opacity="1.000000" stroke="none" 
	d="
M293.672516,197.566437 
	C294.182281,198.944611 294.681580,200.017624 294.753479,201.118530 
	C294.819092,202.123108 294.225098,203.027100 293.031860,203.107910 
	C292.052979,203.174225 291.541229,202.455750 291.295898,201.662399 
	C290.725983,199.819580 290.256348,197.945755 289.739716,196.061157 
	C291.665436,194.776260 292.438385,196.410370 293.672516,197.566437 
z"/>
<path fill="#000000" opacity="1.000000" stroke="none" 
	d="
M192.841095,184.004242 
	C189.798981,179.501266 193.767136,179.958145 195.645905,178.828705 
	C197.666794,180.841003 197.918716,182.444626 196.093643,184.529846 
	C194.643402,186.186798 193.959473,185.285095 192.841095,184.004242 
z"/>
<path fill="#000000" opacity="1.000000" stroke="none" 
	d="
M330.104706,168.833694 
	C328.670624,170.037491 327.464081,170.890533 325.661133,169.638687 
	C326.266052,166.682892 329.275696,165.774979 330.159302,162.646942 
	C332.612793,165.425598 331.905029,167.038055 330.104706,168.833694 
z"/>
<path fill="#000000" opacity="1.000000" stroke="none" 
	d="
M111.277817,170.626633 
	C115.835518,171.066986 116.565742,172.991577 113.837166,176.516388 
	C110.711517,175.511932 109.063744,174.052094 111.277817,170.626633 
z"/>
<path fill="#000000" opacity="1.000000" stroke="none" 
	d="
M183.984634,99.992134 
	C183.954529,101.408936 184.507248,102.921234 183.418182,104.208214 
	C178.405640,104.077591 178.110428,103.358994 180.601013,97.347694 
	C182.222351,97.316765 182.540482,98.933784 183.781342,99.869308 
	C184.027390,100.050743 184.000183,100.010674 183.984634,99.992134 
z"/>
<path fill="#000000" opacity="1.000000" stroke="none" 
	d="
M161.176117,171.863678 
	C162.132141,174.050598 161.134171,175.105606 159.452606,175.330673 
	C157.802567,175.551544 157.352203,174.060562 156.909729,172.789230 
	C156.418991,171.379166 156.570892,170.039856 157.961197,169.353973 
	C160.190277,168.254288 160.102875,170.671539 161.176117,171.863678 
z"/>
<path fill="#000000" opacity="1.000000" stroke="none" 
	d="
M174.708282,144.150330 
	C173.331482,146.739502 172.120590,146.506851 171.329529,144.215454 
	C170.519165,141.868118 170.974640,139.737228 173.136139,137.893082 
	C175.354599,139.578369 174.827866,141.769012 174.708282,144.150330 
z"/>
<path fill="#000000" opacity="1.000000" stroke="none" 
	d="
M207.248535,77.049744 
	C206.094025,79.089737 204.325500,79.301712 203.009857,78.236061 
	C200.896698,76.524452 203.048264,74.821548 203.134598,73.052879 
	C206.078842,73.045387 206.796036,74.779739 207.248535,77.049744 
z"/>
<path fill="#000000" opacity="1.000000" stroke="none" 
	d="
M335.454346,189.414520 
	C335.150543,185.987198 335.501007,185.706100 340.242859,185.502563 
	C340.009979,188.400543 338.167755,189.253860 335.454346,189.414520 
z"/>
<path fill="#000000" opacity="1.000000" stroke="none" 
	d="
M319.805603,114.208183 
	C319.440155,115.564545 319.538147,117.024666 317.939453,116.984497 
	C317.464417,116.972565 316.827240,116.306618 316.574615,115.788933 
	C315.522797,113.633408 316.415802,112.042274 318.111328,110.709450 
	C320.091003,111.158882 319.611481,112.710281 319.805603,114.208183 
z"/>
<path fill="#000000" opacity="1.000000" stroke="none" 
	d="
M183.742035,194.628418 
	C182.831573,196.231445 181.697113,196.788574 180.400543,195.811432 
	C178.781067,194.590958 178.479080,192.945770 179.448776,191.031982 
	C182.193298,190.450745 183.233963,192.066528 183.742035,194.628418 
z"/>
<path fill="#000000" opacity="1.000000" stroke="none" 
	d="
M339.288696,279.162933 
	C341.973602,279.780762 342.946655,281.324158 342.334625,284.611969 
	C339.428497,283.567169 337.143829,282.915344 339.288696,279.162933 
z"/>
<path fill="#000000" opacity="1.000000" stroke="none" 
	d="
M319.896912,125.493370 
	C322.613739,126.998726 320.886871,128.465668 319.999451,129.788574 
	C319.502594,130.529312 318.458008,130.472794 317.933777,129.682358 
	C316.538452,127.578575 317.878601,126.452911 319.896912,125.493370 
z"/>
<path fill="#000000" opacity="1.000000" stroke="none" 
	d="
M190.370331,191.152634 
	C190.141876,189.762054 189.650360,188.470840 191.030838,187.897263 
	C192.135162,187.438416 192.823166,188.377411 193.348267,189.181366 
	C194.039703,190.240005 194.001465,191.401062 193.098297,192.292664 
	C191.810669,193.563736 191.151535,192.384796 190.370331,191.152634 
z"/>
<path fill="#000000" opacity="1.000000" stroke="none" 
	d="
M164.547226,137.553955 
	C166.804962,137.670380 168.368713,138.367950 167.987778,140.732666 
	C167.841705,141.639313 166.871231,141.983780 166.064377,141.634949 
	C164.324829,140.882919 162.945068,139.835739 164.547226,137.553955 
z"/>
<path fill="#000000" opacity="1.000000" stroke="none" 
	d="
M205.748627,208.476410 
	C205.934647,210.467560 206.381561,212.382874 203.727890,212.244278 
	C202.244476,212.166824 200.654129,211.947220 200.193069,210.155746 
	C199.721069,208.321747 200.509521,206.800079 202.088318,206.002518 
	C204.138519,204.966843 205.072418,206.386978 205.748627,208.476410 
z"/>
</svg>