<svg id="_0150_pipeline" xmlns="http://www.w3.org/2000/svg" viewBox="0 0 500 500" data-imageid="pipeline-20" imageName="Pipeline" class="illustrations_image" style="width: 166px;"><defs><style>.cls-1_pipeline-20{fill:#fff;}.cls-2_pipeline-20{opacity:.39;}.cls-2_pipeline-20,.cls-3_pipeline-20,.cls-4_pipeline-20{fill:none;}.cls-5_pipeline-20{fill:#a5a5a5;}.cls-6_pipeline-20{fill:#e6e6e6;}.cls-3_pipeline-20{opacity:.03;}.cls-4_pipeline-20{opacity:.08;}.cls-7_pipeline-20{fill:#24285b;}.cls-8_pipeline-20{fill:#000001;}.cls-9_pipeline-20{fill:#ffd200;}.cls-10_pipeline-20{fill:#68e1fd;}</style></defs><g id="sd_pipeline-20" class="cls-3_pipeline-20"><ellipse class="cls-8_pipeline-20" cx="278.58" cy="412.27" rx="204.14" ry="19.58"/></g><g id="pipe_pipeline-20"><path class="cls-10_pipeline-20 targetColor" d="m408.05,300.94s-19.84,44.09,0,49.38c19.84,5.29,0-49.38,0-49.38Z" style="fill: rgb(104, 225, 253);"/><g class="cls-4_pipeline-20"><path class="cls-8_pipeline-20" d="m408.05,300.94s-19.84,44.09,0,49.38c19.84,5.29,0-49.38,0-49.38Z"/></g><rect class="cls-10_pipeline-20 targetColor" x="215.79" y="146.79" width="57.56" height="265.48" style="fill: rgb(104, 225, 253);"/><path class="cls-10_pipeline-20 targetColor" d="m439.35,302.15h-57.56v-56.27c0-2.65-2.16-4.81-4.81-4.81H102.22v-57.56h274.75c34.39,0,62.37,27.98,62.37,62.37v56.27Z" style="fill: rgb(104, 225, 253);"/><rect class="cls-10_pipeline-20 targetColor" x="294.82" y="175.79" width="41.43" height="74.81" style="fill: rgb(104, 225, 253);"/><g class="cls-2_pipeline-20"><rect class="cls-1_pipeline-20" x="294.82" y="175.79" width="41.43" height="74.81"/></g><rect class="cls-10_pipeline-20 targetColor" x="153.73" y="175.79" width="41.43" height="74.81" style="fill: rgb(104, 225, 253);"/><g class="cls-2_pipeline-20"><rect class="cls-1_pipeline-20" x="153.73" y="175.79" width="41.43" height="74.81"/></g><rect class="cls-10_pipeline-20 targetColor" x="224.2" y="255.29" width="41.43" height="74.81" transform="translate(537.62 47.78) rotate(90)" style="fill: rgb(104, 225, 253);"/><g class="cls-2_pipeline-20"><rect class="cls-1_pipeline-20" x="224.2" y="255.29" width="41.43" height="74.81" transform="translate(537.62 47.78) rotate(90)"/></g><rect class="cls-10_pipeline-20 targetColor" x="389.64" y="255.29" width="41.43" height="74.81" transform="translate(703.06 -117.66) rotate(90)" style="fill: rgb(104, 225, 253);"/><g class="cls-2_pipeline-20"><rect class="cls-1_pipeline-20" x="389.64" y="255.29" width="41.43" height="74.81" transform="translate(703.06 -117.66) rotate(90)"/></g><rect class="cls-7_pipeline-20" x="200.92" y="78.13" width="86.29" height="11" rx="3.98" ry="3.98"/><rect class="cls-7_pipeline-20" x="197.4" y="121.59" width="97.42" height="32.47"/><path class="cls-9_pipeline-20" d="m231.26,110.1l7.29-37.7c1.08-5.6,9.07-5.68,10.26-.1l8.06,37.8h-25.61Z"/><rect class="cls-9_pipeline-20" x="212.17" y="109.83" width="65.5" height="11.76"/><circle class="cls-7_pipeline-20" cx="72.27" cy="212.29" r="50.25"/><circle class="cls-1_pipeline-20" cx="72.27" cy="212.29" r="34.71"/><g class="cls-3_pipeline-20"><circle class="cls-8_pipeline-20" cx="72.27" cy="212.29" r="24.84"/></g><path class="cls-9_pipeline-20" d="m80.73,214.47h0s4.28-22.45,4.28-22.45c.26-1.36-1.4-2.24-2.38-1.26l-16.15,16.1.03.02c-1.5,1.37-2.65,3.2-2.69,5.91-.04,3.27,1.6,6.47,4.5,7.98,4.17,2.17,9.33.57,11.53-3.59.46-.87.72-1.79.86-2.71Z"/><g class="cls-4_pipeline-20"><path class="cls-8_pipeline-20" d="m224.61,381.65s38.86,1.33,29.34,30.62h-24.63l-4.71-30.62Z"/></g><circle class="cls-7_pipeline-20" cx="72.72" cy="212.99" r="4.77"/><path class="cls-6_pipeline-20" d="m229.98,415.97s19.47-27.99-9.57-35.71c-29.04-7.72,7-45.43-20.03-50.39-27.03-4.96-22.53,34.94-22.53,34.94,0,0-18.66-16.09-31.54-2.57-12.87,13.52,5.15,28.34,5.15,28.34,0,0-26,8.98-9.78,25.39h88.3Z"/><path class="cls-5_pipeline-20" d="m190.93,419.69s12.37-21.15,30.59-18.54c18.22,2.6,16.27,18.54,16.27,18.54h-46.86Z"/><path class="cls-10_pipeline-20 targetColor" d="m392.61,412.26c-2.16.05-4.3-.3-6.33-1.05-7.69-2.81-25.48-10.68-17.55-20.93,10-12.91,16.78,10.32,24.84,2.9,8.07-7.42,10.32-17.08,20-12.25s-7.76,21.47,6.12,19.44c13.88-2.03,18.72-17.3,26.14-12.57,6.39,4.08,3.45,16.01-9.85,21.46-3.45,1.41-7.17,2.07-10.9,2.16l-32.49.82Z" style="fill: rgb(104, 225, 253);"/><g class="cls-4_pipeline-20"><path class="cls-8_pipeline-20" d="m392.61,412.26c-2.16.05-4.3-.3-6.33-1.05-7.69-2.81-25.48-10.68-17.55-20.93,10-12.91,16.78,10.32,24.84,2.9,8.07-7.42,10.32-17.08,20-12.25s-7.76,21.47,6.12,19.44c13.88-2.03,18.72-17.3,26.14-12.57,6.39,4.08,3.45,16.01-9.85,21.46-3.45,1.41-7.17,2.07-10.9,2.16l-32.49.82Z"/></g></g></svg>