<svg id="_0214_global_warming" xmlns="http://www.w3.org/2000/svg" xmlns:xlink="http://www.w3.org/1999/xlink" viewBox="0 0 500 500" data-imageid="global-warming-4" imageName="Global Warming" class="illustrations_image" style="width: 166px;"><defs><style>.cls-1_global-warming-4{fill:url(#linear-gradient);}.cls-1_global-warming-4,.cls-2_global-warming-4,.cls-3_global-warming-4,.cls-4_global-warming-4,.cls-5_global-warming-4,.cls-6_global-warming-4,.cls-7_global-warming-4,.cls-8_global-warming-4,.cls-9_global-warming-4,.cls-10_global-warming-4,.cls-11_global-warming-4,.cls-12_global-warming-4,.cls-13_global-warming-4,.cls-14_global-warming-4,.cls-15_global-warming-4,.cls-16_global-warming-4,.cls-17_global-warming-4,.cls-18_global-warming-4,.cls-19_global-warming-4,.cls-20_global-warming-4,.cls-21_global-warming-4,.cls-22_global-warming-4,.cls-23_global-warming-4,.cls-24_global-warming-4,.cls-25_global-warming-4,.cls-26_global-warming-4,.cls-27_global-warming-4,.cls-28_global-warming-4,.cls-29_global-warming-4,.cls-30_global-warming-4,.cls-31_global-warming-4,.cls-32_global-warming-4,.cls-33_global-warming-4{stroke-width:0px;}.cls-2_global-warming-4{fill:url(#linear-gradient-29-global-warming-4);}.cls-3_global-warming-4{fill:url(#linear-gradient-30-global-warming-4);}.cls-4_global-warming-4{fill:url(#linear-gradient-28-global-warming-4);}.cls-5_global-warming-4{fill:url(#linear-gradient-25-global-warming-4);}.cls-6_global-warming-4{fill:url(#linear-gradient-11-global-warming-4);}.cls-7_global-warming-4{fill:url(#linear-gradient-12-global-warming-4);}.cls-8_global-warming-4{fill:url(#linear-gradient-13-global-warming-4);}.cls-9_global-warming-4{fill:url(#linear-gradient-10-global-warming-4);}.cls-10_global-warming-4{fill:url(#linear-gradient-17-global-warming-4);}.cls-11_global-warming-4{fill:url(#linear-gradient-16-global-warming-4);}.cls-12_global-warming-4{fill:url(#linear-gradient-19-global-warming-4);}.cls-13_global-warming-4{fill:url(#linear-gradient-15-global-warming-4);}.cls-14_global-warming-4{fill:url(#linear-gradient-23-global-warming-4);}.cls-15_global-warming-4{fill:url(#linear-gradient-21-global-warming-4);}.cls-16_global-warming-4{fill:url(#linear-gradient-18-global-warming-4);}.cls-17_global-warming-4{fill:url(#linear-gradient-14-global-warming-4);}.cls-18_global-warming-4{fill:url(#linear-gradient-22-global-warming-4);}.cls-19_global-warming-4{fill:url(#linear-gradient-20-global-warming-4);}.cls-20_global-warming-4{fill:url(#linear-gradient-27-global-warming-4);}.cls-21_global-warming-4{fill:url(#linear-gradient-24-global-warming-4);}.cls-22_global-warming-4{fill:url(#linear-gradient-26-global-warming-4);}.cls-23_global-warming-4{opacity:.53;}.cls-23_global-warming-4,.cls-32_global-warming-4{isolation:isolate;}.cls-23_global-warming-4,.cls-32_global-warming-4,.cls-33_global-warming-4{fill:#68e1fd;}.cls-24_global-warming-4{fill:url(#linear-gradient-4-global-warming-4);}.cls-25_global-warming-4{fill:url(#linear-gradient-2-global-warming-4);}.cls-26_global-warming-4{fill:url(#linear-gradient-3-global-warming-4);}.cls-27_global-warming-4{fill:url(#linear-gradient-8-global-warming-4);}.cls-28_global-warming-4{fill:url(#linear-gradient-9-global-warming-4);}.cls-29_global-warming-4{fill:url(#linear-gradient-7-global-warming-4);}.cls-30_global-warming-4{fill:url(#linear-gradient-5-global-warming-4);}.cls-31_global-warming-4{fill:url(#linear-gradient-6-global-warming-4);}.cls-32_global-warming-4{opacity:.24;}</style><linearGradient id="linear-gradient-global-warming-4" x1="-1385.24" y1="4155.85" x2="-1123.26" y2="3986.68" gradientTransform="translate(1289 4175.55) scale(1 -1)" gradientUnits="userSpaceOnUse"><stop offset="0" stop-color="#fff" stop-opacity="0"/><stop offset=".95" stop-color="#fff"/></linearGradient><linearGradient id="linear-gradient-2-global-warming-4" x1="-1077.16" y1="3808.25" x2="-948.79" y2="4130.12" gradientTransform="translate(1261.66 4174.36) scale(1 -1)" xlink:href="#linear-gradient-global-warming-4"/><linearGradient id="linear-gradient-3-global-warming-4" x1="-1047.19" y1="4063.69" x2="-1054.67" y2="3693.91" gradientTransform="translate(1261.66 4174.36) scale(1 -1)" gradientUnits="userSpaceOnUse"><stop offset="0" stop-color="#231f20" stop-opacity="0"/><stop offset="1" stop-color="#231f20"/></linearGradient><linearGradient id="linear-gradient-4-global-warming-4" x1="-964.96" y1="4061.97" x2="-972.44" y2="3692.2" xlink:href="#linear-gradient-3-global-warming-4"/><linearGradient id="linear-gradient-5-global-warming-4" x1="-965.12" y1="4062.03" x2="-972.61" y2="3692.25" xlink:href="#linear-gradient-3-global-warming-4"/><linearGradient id="linear-gradient-6-global-warming-4" x1="-1002.88" y1="4062.79" x2="-1010.36" y2="3693.02" xlink:href="#linear-gradient-3-global-warming-4"/><linearGradient id="linear-gradient-7-global-warming-4" x1="-1025.33" y1="4063.25" x2="-1032.81" y2="3693.47" xlink:href="#linear-gradient-3-global-warming-4"/><linearGradient id="linear-gradient-8-global-warming-4" x1="-1051.93" y1="4063.79" x2="-1059.41" y2="3694.01" xlink:href="#linear-gradient-3-global-warming-4"/><linearGradient id="linear-gradient-9-global-warming-4" x1="-976.42" y1="4062.25" x2="-983.9" y2="3692.48" xlink:href="#linear-gradient-3-global-warming-4"/><linearGradient id="linear-gradient-10-global-warming-4" x1="-1020.56" y1="4063.15" x2="-1028.04" y2="3693.37" xlink:href="#linear-gradient-3-global-warming-4"/><linearGradient id="linear-gradient-11-global-warming-4" x1="-1017.34" y1="4063.09" x2="-1024.83" y2="3693.31" xlink:href="#linear-gradient-3-global-warming-4"/><linearGradient id="linear-gradient-12-global-warming-4" x1="-1022.85" y1="4063.19" x2="-1030.33" y2="3693.43" xlink:href="#linear-gradient-3-global-warming-4"/><linearGradient id="linear-gradient-13-global-warming-4" x1="-1044.42" y1="4063.64" x2="-1051.9" y2="3693.86" xlink:href="#linear-gradient-3-global-warming-4"/><linearGradient id="linear-gradient-14-global-warming-4" x1="-989.03" y1="4062.51" x2="-996.51" y2="3692.74" xlink:href="#linear-gradient-3-global-warming-4"/><linearGradient id="linear-gradient-15-global-warming-4" x1="-980.64" y1="4062.35" x2="-988.12" y2="3692.57" xlink:href="#linear-gradient-3-global-warming-4"/><linearGradient id="linear-gradient-16-global-warming-4" x1="-1027.62" y1="4063.29" x2="-1035.11" y2="3693.52" xlink:href="#linear-gradient-3-global-warming-4"/><linearGradient id="linear-gradient-17-global-warming-4" x1="-1049.48" y1="4063.73" x2="-1056.98" y2="3693.97" xlink:href="#linear-gradient-3-global-warming-4"/><linearGradient id="linear-gradient-18-global-warming-4" x1="-1034.41" y1="4063.43" x2="-1041.89" y2="3693.65" xlink:href="#linear-gradient-3-global-warming-4"/><linearGradient id="linear-gradient-19-global-warming-4" x1="-1047.92" y1="4063.7" x2="-1055.41" y2="3693.93" xlink:href="#linear-gradient-3-global-warming-4"/><linearGradient id="linear-gradient-20-global-warming-4" x1="-1033.32" y1="4063.41" x2="-1040.8" y2="3693.63" xlink:href="#linear-gradient-3-global-warming-4"/><linearGradient id="linear-gradient-21-global-warming-4" x1="-1037.31" y1="4063.49" x2="-1044.79" y2="3693.71" xlink:href="#linear-gradient-3-global-warming-4"/><linearGradient id="linear-gradient-22-global-warming-4" x1="-1026.54" y1="4063.27" x2="-1034.02" y2="3693.5" xlink:href="#linear-gradient-3-global-warming-4"/><linearGradient id="linear-gradient-23-global-warming-4" x1="-949.8" y1="4061.72" x2="-957.3" y2="3691.94" xlink:href="#linear-gradient-3-global-warming-4"/><linearGradient id="linear-gradient-24-global-warming-4" x1="-1038.72" y1="4063.52" x2="-1046.21" y2="3693.75" xlink:href="#linear-gradient-3-global-warming-4"/><linearGradient id="linear-gradient-25-global-warming-4" x1="-977.4" y1="4062.28" x2="-984.88" y2="3692.5" xlink:href="#linear-gradient-3-global-warming-4"/><linearGradient id="linear-gradient-26-global-warming-4" x1="-1020.71" y1="4063.16" x2="-1028.2" y2="3693.38" xlink:href="#linear-gradient-3-global-warming-4"/><linearGradient id="linear-gradient-27-global-warming-4" x1="-964.45" y1="4062.01" x2="-971.94" y2="3692.24" xlink:href="#linear-gradient-3-global-warming-4"/><linearGradient id="linear-gradient-28-global-warming-4" x1="-1050.64" y1="4063.76" x2="-1058.13" y2="3693.99" xlink:href="#linear-gradient-3-global-warming-4"/><linearGradient id="linear-gradient-29-global-warming-4" x1="-1033.81" y1="4063.42" x2="-1041.3" y2="3693.65" xlink:href="#linear-gradient-3-global-warming-4"/><linearGradient id="linear-gradient-30-global-warming-4" x1="-950.4" y1="4061.73" x2="-957.88" y2="3691.96" xlink:href="#linear-gradient-3-global-warming-4"/></defs><g id="background_global-warming-4"><path class="cls-32_global-warming-4 targetColor" d="M272.77,214.64c-27.67-1.71-54.05,10.62-79.01,22.65-13.16,6.32-26.45,12.76-37.81,21.99-11.35,9.23-20.68,21.64-23.37,35.99-13.2-31.02-49.04-45.48-80.07-32.28-.63.27-1.25.54-1.87.83,3.79-5.66,2.61-13.19.85-19.77-5.87-22.09-18.45-44.24-39.5-53.2,9.2-5.4,15.26-15.07,18.2-25.31,2.61-9.14,2.93-18.8,2.56-28.34,3.14-4.06,6.46-7.98,9.94-11.67,7.23-7.68,15.21-14.86,24.57-19.71,16.75-8.69,36.34-9.36,54.82-13.26,25.31-5.31,48.75-16.89,72.6-26.99,1.72.78,3.23,1.97,4.39,3.46,4.28,5.56,4.97,15.41,8.99,21.82,9.14,14.63,24.3,25.63,41.34,28.81-11.37,7.29-15.6,22.57-13.29,35.92s9.94,25.1,18,35.97c5.89,7.94,12.11,15.64,18.67,23.1Z" style="fill: rgb(104, 225, 253);"/><ellipse class="cls-33_global-warming-4 targetColor" cx="136.54" cy="170.01" rx="73.73" ry="75.22" style="fill: rgb(104, 225, 253);"/><ellipse class="cls-1_global-warming-4" cx="136.54" cy="170.01" rx="73.73" ry="75.22"/></g><g id="earth_global-warming-4"><path class="cls-33_global-warming-4 targetColor" d="M307.81,269.24c-3.38,7.48-13.96,17.17-11.37,25.61,1.04,3.35,2.27,7.52-.27,9.94-.3.33-.7.55-1.14.61-.75-.06-1.44-.47-1.86-1.09-1.44-1.52-2.84-3.11-4.28-4.68-4.59,6.54-3.64,15.29-3.03,23.23.47,6.24.61,12.49.42,18.74.04.95-.14,1.9-.54,2.77-1.27,2.37-5.18,1.89-6.82-.27-1.65-2.15-1.81-5.05-1.92-7.76-.31-6.8-1.07-13.58-2.27-20.28v-.19c-.29-1.52-.69-3.16-2.02-3.9-2.13-1.2-4.71,1.06-5.24,3.43-.53,2.37.08,4.89-.39,7.26-.48,2.37-2.85,4.78-5.06,3.79-2.71-1.23-1.77-5.43-3.5-7.85-1.52-2.15-5.03-2.15-7.13-.48-2.1,1.68-2.95,4.44-3.11,7.1-.16,2.18-.08,4.74-1.83,6.01-.38.28-.81.47-1.27.55-1.22.15-2.45-.21-3.38-1.01-1.04-.73-1.88-1.72-2.42-2.87-1.27-2.71-1.78-5.98-4.09-7.9-2.92-2.42-8.14-.82-9.25,2.82-.76,2.6.3,5.66-1.04,8.03-.78,1.29-2.12,2.15-3.62,2.31-1.09.13-2.19,0-3.21-.4-.37-.12-.71-.29-1.04-.5-2.52-1.57-3.85-4.55-4.44-7.48-.58-2.93-.58-5.95-1.2-8.88-2.18-.69-4.59.93-5.56,3.03-.96,2.1-.87,4.55-.82,6.82.18,5.93.13,11.88-.16,17.81-.05.87-.2,1.74-.45,2.58-.45,1.33-1.25,2.4-2.58,2.45-1.46,0-2.58-1.36-3.25-2.68-2.47-4.94-2.55-10.48-2.34-16.08.21-5.96.69-12-1.07-17.55-.42-1.35-1.83-2.97-2.97-2.1s.16,2.98-.42,4.39c-.67,1.62-3.33,1.01-4.12-.53s-.42-3.4-.42-5.13-.76-3.79-2.45-4.15c-1.4-.29-2.81.85-3.29,2.24-.39,1.4-.44,2.88-.14,4.31.51,4.04,1.01,8.08,1.52,12.13.2,1.23.14,2.49-.19,3.69-.31,1.39-1.69,2.26-3.08,1.95-.28-.06-.56-.18-.8-.33-1.42-.96-2.48-2.36-3.03-3.99-1.95-5.22-2.97-10.73-3.03-16.29,0-4.74.61-9.58-.86-14.04-.37-1.19-1.19-2.52-2.44-2.47-1.68,0-2.13,2.31-2.13,3.99s-.69,3.97-2.37,3.79c-2.68-2.4-3.79-6.12-4.15-9.71s.11-7.2-.08-10.8c-.42-7.92-4.92-13.16-7.04-20.28-2.29-7.6-3.43-15.5-3.4-23.44-.02-17.39,5.48-34.35,15.71-48.41h0c26.72-36.82,78.22-45.01,115.04-18.29,31.58,22.92,42.75,64.85,26.75,100.44h-.04Z" style="fill: rgb(104, 225, 253);"/><path class="cls-25_global-warming-4" d="M307.81,269.24c-3.38,7.48-13.96,17.17-11.37,25.61,1.04,3.35,2.27,7.52-.27,9.94-.3.33-.7.55-1.14.61-.75-.06-1.44-.47-1.86-1.09-1.44-1.52-2.84-3.11-4.28-4.68-4.59,6.54-3.64,15.29-3.03,23.23.47,6.24.61,12.49.42,18.74.04.95-.14,1.9-.54,2.77-1.27,2.37-5.18,1.89-6.82-.27-1.65-2.15-1.81-5.05-1.92-7.76-.31-6.8-1.07-13.58-2.27-20.28v-.19c-.29-1.52-.69-3.16-2.02-3.9-2.13-1.2-4.71,1.06-5.24,3.43-.53,2.37.08,4.89-.39,7.26-.48,2.37-2.85,4.78-5.06,3.79-2.71-1.23-1.77-5.43-3.5-7.85-1.52-2.15-5.03-2.15-7.13-.48-2.1,1.68-2.95,4.44-3.11,7.1-.16,2.18-.08,4.74-1.83,6.01-.38.28-.81.47-1.27.55-1.22.15-2.45-.21-3.38-1.01-1.04-.73-1.88-1.72-2.42-2.87-1.27-2.71-1.78-5.98-4.09-7.9-2.92-2.42-8.14-.82-9.25,2.82-.76,2.6.3,5.66-1.04,8.03-.78,1.29-2.12,2.15-3.62,2.31-1.09.13-2.19,0-3.21-.4-.37-.12-.71-.29-1.04-.5-2.52-1.57-3.85-4.55-4.44-7.48-.58-2.93-.58-5.95-1.2-8.88-2.18-.69-4.59.93-5.56,3.03-.96,2.1-.87,4.55-.82,6.82.18,5.93.13,11.88-.16,17.81-.05.87-.2,1.74-.45,2.58-.45,1.33-1.25,2.4-2.58,2.45-1.46,0-2.58-1.36-3.25-2.68-2.47-4.94-2.55-10.48-2.34-16.08.21-5.96.69-12-1.07-17.55-.42-1.35-1.83-2.97-2.97-2.1s.16,2.98-.42,4.39c-.67,1.62-3.33,1.01-4.12-.53s-.42-3.4-.42-5.13-.76-3.79-2.45-4.15c-1.4-.29-2.81.85-3.29,2.24-.39,1.4-.44,2.88-.14,4.31.51,4.04,1.01,8.08,1.52,12.13.2,1.23.14,2.49-.19,3.69-.31,1.39-1.69,2.26-3.08,1.95-.28-.06-.56-.18-.8-.33-1.42-.96-2.48-2.36-3.03-3.99-1.95-5.22-2.97-10.73-3.03-16.29,0-4.74.61-9.58-.86-14.04-.37-1.19-1.19-2.52-2.44-2.47-1.68,0-2.13,2.31-2.13,3.99s-.69,3.97-2.37,3.79c-2.68-2.4-3.79-6.12-4.15-9.71s.11-7.2-.08-10.8c-.42-7.92-4.92-13.16-7.04-20.28-2.29-7.6-3.43-15.5-3.4-23.44-.02-17.39,5.48-34.35,15.71-48.41h0c26.72-36.82,78.22-45.01,115.04-18.29,31.58,22.92,42.75,64.85,26.75,100.44h-.04Z"/><path class="cls-33_global-warming-4 targetColor" d="M295.07,283.09c-3.35,7.47-13.96,17.15-11.37,25.61,1.01,3.34,2.24,7.52-.3,9.94-.29.34-.7.55-1.14.61-.75-.07-1.44-.47-1.87-1.09l-4.28-4.68c-.58.81-1.07,1.67-1.46,2.58v-.19c-.29-1.52-.69-3.16-2.02-3.9-2.13-1.2-4.71,1.06-5.24,3.43s.08,4.89-.39,7.26c-.48,2.37-2.85,4.78-5.06,3.79-2.71-1.23-1.77-5.43-3.5-7.85-1.52-2.15-5.03-2.15-7.13-.48s-2.95,4.44-3.11,7.1c-.16,2.18-.08,4.74-1.83,6.01-.38.28-.81.47-1.27.55-.95-.77-2.17-1.13-3.38-1.01-1.04-.73-1.88-1.72-2.42-2.87-1.27-2.71-1.78-5.98-4.09-7.9-2.92-2.42-8.14-.82-9.25,2.82-.76,2.6.3,5.66-1.04,8.03-.78,1.29-2.12,2.15-3.62,2.31-1.01-.44-2.13-.58-3.21-.4-.37-.12-.71-.29-1.04-.5-2.52-1.57-3.85-4.55-4.44-7.48-.58-2.93-.58-5.95-1.2-8.88-2.18-.69-4.59.93-5.56,3.03-.96,2.1-.87,4.55-.82,6.82.18,5.93.13,11.88-.16,17.81-.05.87-.2,1.74-.45,2.58-.04,0-.08-.02-.11-.05-2.52-1.59-3.85-4.55-4.44-7.47s-.58-5.95-1.17-8.88c-.8-.25-1.66-.22-2.44.08.21-5.96.69-12-1.07-17.55-.42-1.35-1.83-2.97-2.97-2.1-1.14.87.16,2.98-.42,4.39-.67,1.62-3.33,1.01-4.12-.53s-.42-3.4-.42-5.13-.76-3.79-2.45-4.15c-1.4-.29-2.81.85-3.29,2.24-.39,1.4-.44,2.88-.14,4.31.51,4.04,1.01,8.08,1.52,12.13.2,1.23.14,2.49-.19,3.69-.08-.32-.16-.67-.27-.99-.42-1.38-1.83-2.98-2.98-2.1-1.14.88.16,2.98-.42,4.39-.05.12-.12.23-.21.32-1.42-.96-2.48-2.36-3.03-3.99-1.95-5.22-2.97-10.73-3.03-16.29,0-4.74.61-9.58-.86-14.04-.37-1.19-1.19-2.52-2.44-2.47-1.68,0-2.13,2.31-2.13,3.99s-.69,3.97-2.37,3.79c-2.68-2.4-3.79-6.12-4.15-9.71-.36-3.59.11-7.2-.08-10.8-.42-7.92-4.92-13.16-7.04-20.28-2.29-7.6-3.43-15.5-3.4-23.44-.02-17.39,5.48-34.35,15.71-48.41h0c34.36-29.8,86.38-26.1,116.18,8.26,21.02,24.24,26.05,58.48,12.89,87.74Z" style="fill: rgb(104, 225, 253);"/><path class="cls-33_global-warming-4 targetColor" d="M252.86,254.94c-2.79-1.61-5.79-2.58-9.1-1.57-.35-2.62-1.68-3.22-4.02-1.84-.38.28-.84.43-1.31.45-.99-.07-1.96-.3-3.1-.5.45-.64.92-1.34,1.43-2.02.66-.86,1.07-1.71.24-2.71-.16-.23-.26-.49-.32-.76-.65-2.56-1.94-3.72-4.55-4-2.15-.23-4.03-.86-5-3.03-.16-.3-.39-.56-.67-.76-.94-.69-1.26-1.39-.25-2.27.21-.2.24-.61.34-.92-1.3.35-2.27,1.33-3.33,1.39-2.23.19-4.44-.48-6.19-1.87-1.06-.87-1.84-.66-2.19.71-.18.7-.33,1.4-.5,2.09l-.61-.13c.24-1.22.46-2.44.71-3.79-.3,0-.84-.08-.97.11-1.04,1.52-3.26,1.62-4,3.48-.36.93-1,.98-1.97.57-.86-.35-1.82-.41-2.72-.17-1.85.58-3.26-.27-3.21-2.24.05-1.43.2-2.87.32-4.3.16-.88-.42-1.73-1.3-1.89-.07-.01-.15-.02-.22-.03-.84-.14-1.69-.2-2.71-.31.14-.6.24-1.1.39-1.58.42-1.27.91-2.53,1.3-3.79.39-1.26-.13-1.77-1.26-1.29-.94.4-1.75,1.05-2.36,1.87-.82,1.18-1.65,2.1-3.18,2.05-1.41,0-2.63-.95-2.96-2.32-.31-1.09-.36-2.24-.13-3.35.27-1.29,1.07-2.46,1.44-3.73.76-2.51,2.76-3.59,4.87-4.55.64-.2,1.33-.13,1.92.17,1.23.65,2.1.61,2.93-.63.66-.99,4.55-.6,5.11.47.15.45.21.92.17,1.4-.04.76,0,1.52.11,2.27.12.45.71.76,1.08,1.14.33-.35.91-.67.96-1.06.16-1.18.19-2.38.09-3.57-.29-3.29,1.58-5.13,4.31-6.18,1.73-.54,2.99-2.03,3.25-3.83.3-2.04,1.83-2.87,3.21-3.87s3.03-1.99,4.48-2.99c.18-.16.31-.36.39-.58,1.02-2.16,4.5-3.79,7.09-3.26l-2.02,1.52.21.34c2.04-.22,3.42-1.87,5.26-2.62-.91-.38-2.15-.34-2.58-.91s-.1-1.78-.1-2.81l-1.59-.5c.76-.21,1.08-.35,1.42-.4,1.76-.2,3.52-.5,5.25-.89,1.32-.37,2.56-.99,3.65-1.83,1.07-.86.76-1.72-.51-2.34-.24-.14-.45-.31-.64-.51-1.02-.99-1.11-2.19-.95-3.54-.03-.66-.18-1.32-.44-1.93-.59.21-1.2.41-1.78.66-.3.13-.55.43-.86.52-.47.11-.96.18-1.44.21.06-.45.14-.89.17-1.34s.26-1.29,0-1.67c-.64-.94-4.59-1.39-5.27-.53-.93,1.18-1.96,2.53-2.18,3.93-.24,1.72-1.33,3.21-2.91,3.94-.74.49-1.38,1.13-1.88,1.87-.49.64-.49,2.03-1.59,1.62s-.4-1.57-.17-2.37c.23-.8.2-1.19-.6-1.45-1.18-.37-2.35-.76-3.51-1.18-1.05-.36-1.66-1.8-1.11-2.59,1.75-2.5,4.44-3.71,7.02-5.07.67-.36,1.86-.8,1.87-1.21,0-1.08.66-1.05,1.27-1.14,1.1-.08,2.19-.22,3.28-.42.8-.23,1.54-.65,2.14-1.23.4-.38.44-1.13.64-1.71-.73-.01-1.46.03-2.19.12-.33.06-.57.49-.86.76s-.76.61-1.05.76l-1.83-2.89c-1.65.17-2.39,1.36-3.03,2.67.04-.29.08-.58.17-1.18l-1.99.61c.21.44.42.89.68,1.44-.27.13-.64.46-1.01.45-1.16-.04-2.32-.19-3.47-.33-.44-.07-.87-.16-1.3-.27v-.41c1.46.42,3.03-.06,4.01-1.22-.06-1.12-.1-1.93-.14-2.81-1.8.96-3.63,1.3-5.56.24-.55-.18-1.15-.13-1.65.16-1.33.76-2.62,1.59-3.86,2.49-.21.14-.19.62-.28.95.33.03.67,0,.99-.07.71-.29,1.37-.65,1.92-.92.31.6.48.92.64,1.24l-1.05.51v.42l3.84.36c-.72.48-1.25,1.11-1.85,1.17-.8,0-1.59-.16-2.33-.46-3.57-1.08-6.82-.21-9.95,1.52-1.3.67-2.66,1.23-4.06,1.67-2.7.95-5.52,1.62-8.11,2.8-4.78,2.18-8.16,6.31-12.33,9.35-.07.05-.09.16-.15.27l.76.31c-2.74,1.32-4.92,3.58-6.13,6.38.34-.18.66-.39.96-.64,3.18-2.13,6.29-4.38,9.58-6.29,1.02-.59,2.57-.35,3.87-.34.3,0,.59.62.95,1.02l-1.93.53,1.73.54c-1.8,1.63-1.24,4.26-3.2,5.67-.24.17-.28.76-.2,1.13.16.27.45.43.76.44.36-.16.67-.42.89-.76.14-.28.23-.59.28-.9.35.25.58.66.49.76-.71.85-1.47,1.66-2.27,2.43-.42.4-1.12.55-1.48.99-1.84,2.31-3.65,4.66-5.38,7.06-.31.58-.47,1.23-.47,1.9-.07.76.07,1.52,0,2.27-.18.9.12,1.83.8,2.44.41.36.42,1.27.45,1.93.05,1.58,0,3.15,0,4.73.01.1.05.19.1.27.49,1,.99,2,1.46,3.03.13.36.24.73.32,1.11l.71-.57c-.06-.45-.1-.91-.19-1.35-.36-1.93-.76-3.84-1.08-5.78-.07-.45.32-.98.5-1.46.28.41.76.76.81,1.23.24,2.36,1.07,4.63,2.4,6.59.77,1.05,1.08,2.38.83,3.66-.13.63.02,1.29.41,1.8,1.58,1.32,3.26,2.5,5.04,3.53.91.4,1.93.48,2.89.24.92-.27,1.91-.07,2.65.53,1.47,1.08,2.62,2.71,4.7,2.85.23,0,.41.58.61.89.86,1.46,1.81,2.85,2.86,4.19.69.76,1.85,1.14,2.78,1.74.76.48,1.27.64,1.52-.49.17-.4.52-.7.94-.81.23-.04.76.48.81.82.76,2.92,1.3,5.82-.67,8.55-.56.76-.95,1.68-1.52,2.44-.64.69-.67,1.75-.08,2.48.26.49.31,1.07.11,1.6-.66,1.52-.2,2.78.69,4.02.79.96,1.45,2.02,1.96,3.15.67,1.81,2.2,2.35,3.62,3.12l.32-.25c-.39-1.22-.83-2.43-1.14-3.67-.1-.4.18-.89.29-1.33.3.3.76.54.88.89.58,1.67,1.14,3.36,1.58,5.07.43,1.22.62,2.5.58,3.79-.21,1.02.21,2.07,1.08,2.65,2.59,2.16,4.64,4.63,3.92,8.34-.02.29,0,.58.07.86.67,4.55,1.26,9.1,2.09,13.65.45,1.83,1.09,3.61,1.9,5.31.47,1.18,1.12,2.27,1.6,3.45.09.37,0,.76-.25,1.05-.76.7-.27,1.12.19,1.68.64.76,1.52,1.52,1.68,2.43.27,1.58,1.35,2.4,2.39,3.25.57.3,1.24.34,1.85.13.27-.08.31-.93.4-1.43.05-.74.17-1.48.34-2.2.31-.7.21-1.52-.26-2.12-.31-.64-.44-1.36-.37-2.07,0-1.27,1.01-2.57-.32-3.87,1.85-.11,1.7-1.52,1.87-2.58,1.18-.4,2.97.25,3.03-1.58,0-1.21-.61-2.44-.98-3.75.31-.02.61,0,.91.08,1.32.55,2.16.15,3.03-.99,1.22-1.52,2.15-3.25,2.74-5.11.24-.86.76-1.77.62-2.58-.3-1.82.51-2.87,1.96-3.56,1.11-.52,2.27-.84,3.43-1.34.5-.22.92-.59,1.21-1.05,1.81-3.08,2.68-6.62,2.48-10.19-.13-1.64.36-3.26,1.38-4.55.67-.88,1.41-1.71,2.15-2.52,1.64-1.71,1.52-3.92-.57-5.16Z" style="fill: rgb(104, 225, 253);"/><path class="cls-33_global-warming-4 targetColor" d="M314.66,236.86c.31-6.99-.35-13.99-1.96-20.81-.13-.38-.4-.69-.76-.87-1.12-.61-2.27-1.18-3.44-1.69-.67-.25-1.36-.47-2.05-.65-.2.96-.32,1.58-.45,2.2-.73-.17-1.44-.38-2.14-.64-.36-.15-.59-.6-.91-.87-.61-.65-1.31-1.21-2.08-1.65-1.62-.66-2.84-1.52-3.13-3.37-.11-1.05-1.04-1.82-2.09-1.71-.01,0-.02,0-.03,0-1.28,0-2.56-.34-3.84-.44-.88-.17-1.79-.15-2.67.07-1.9.76-3.67,1.01-5.15-.31-.67.69-1.4,1.32-2.18,1.9-.81.52-1.31,1.39-1.35,2.35-.16.95-.53,1.86-1.09,2.65-1.52,2.09-3.24,4.03-4.75,6.12-.92,1.33-1.06,3.04-.38,4.5.36.99.68,2.34.3,3.2-.74,1.65-1,3.47-.76,5.26.12.74.41,1.45.84,2.07.76,1.18,2.03,2.16,2.49,3.43.85,2.15,2.36,3.97,4.31,5.19.49.35,1.11.46,1.69.29,1.42-.71,3.03-.96,4.6-.69.56-.02,1.12-.15,1.62-.39,1.39-.49,2.74-1.11,4.15-1.52.84-.26,1.73.22,1.99,1.06.01.04.02.08.03.11.22.41.63.68,1.08.72.83-.05,1.45-.08,1.52.96,0,.16.32.27.44.44.26.35.69.76.67,1.08-.11.66-.31,1.3-.59,1.9-.58,1.52-.59,2.78.61,4.09.9.9,1.33,2.17,1.17,3.43-.05,1.15-.02,2.3.08,3.44.07.56-.02,1.12-.27,1.63-3.41,4.45-2.34,9.69-2.66,14.68,0,.14.03.29.11.41.89,1.18.7,2.85-.43,3.79-.18.18-.14.58-.27,1.22.68-.29,1.09-.43,1.47-.64.76-.41,1.46-.92,2.27-1.27,1.72-.75,3.15-2.05,4.06-3.7,2.98-5.42,5.34-11.16,7.02-17.11.76-2.5,1.21-5.07,1.8-7.58.78-4.05,1.15-8.16,1.1-12.28Z" style="fill: rgb(104, 225, 253);"/><path class="cls-33_global-warming-4 targetColor" d="M289.84,186.46c1.23.05,2.02.9,2.04,2.41l-1.25-1.16-.45.17c.22.76.44,1.48.67,2.27-.49-.01-.97.07-1.43.23-1.75,1.04-3.39,2.27-5.6,2.15-.24,0-.71.31-.72.49.02.36.17.7.43.96.47.46,1.24.76,1.52,1.27.34.7.64,2.12.36,2.27-1.17.76-.64,1.59-.45,2.46-.46-.08-.93-.1-1.4-.07-2.68.55-3.3,0-3.03-2.69,0-.05-.13-.11-.28-.24-.14.26-.37.49-.35.71.16,1.86.33,3.72.58,5.56.09.37.32.68.64.88,1.48.91,3.2,1.36,4.94,1.3.88.06,1.68-.52,1.89-1.38.28-.75.65-1.46,1.11-2.11.47-.61.98-1.2,1.52-1.76.82-.05,1.81.14,2.54-.21.99-.49,1.45-.2,2.05.5.73.8,1.51,1.56,2.34,2.27.84.76,1.75,1.47,2.55,2.27.26.42.44.89.54,1.38l-1.86.08c-.06.14-.13.29-.19.42.52.32,1.32,1.02,1.52.89.87-.74,1.7-1.53,2.46-2.39l-6.07-5.69.26-.27c4.27,2.38,7.13,6.21,9.99,10.15,1.16-1.34-.27-1.95-.5-3.03h3.37c-.49-1.43-.83-2.74-1.36-3.97-2.49-5.93-5.81-11.47-9.86-16.46-1.65-1.97-3.95-3.4-6.07-4.97-.7-.68-1.81-.66-2.49.03-.04.04-.07.08-.11.12-.6.72-1.21,1.33-2.27,1.18-.21,0-.71.51-.72.8-.04,1.37,1.71,3.1,3.15,3.15Z" style="fill: rgb(104, 225, 253);"/><path class="cls-33_global-warming-4 targetColor" d="M268.13,168.79c-.27-.28-.52-.57-.76-.87,2.23-.46,2.7-.76,2.57-2.23-.11-1.24.36-1.21,1.23-.82.25.08.5.14.76.16l.05-.25c-.56-.25-1.1-.54-1.61-.88-3.55-2.84-7.66-4.22-12.09-4.9-1.82-.27-3.57-.96-5.38-1.35-.96-.23-1.95-.31-2.93-.24-1.84.18-3.67.53-5.5.85-.34.06-.87.22-.92.42-.05.37.1.74.39.98.9.52,1.87.91,2.88,1.14,2.46.37,4.75,3.6,3.62,5.76-.9,1.73-.7,3.49-1,5.22-.21,1.27,2.09,3.89,3.39,3.86.56-.04,1.09-.26,1.52-.62.44-.44.81-.96,1.08-1.52.59-1.18,1.82-1.91,3.14-1.87.84-.06,1.66-.32,2.38-.76.94-.63,2.11-.81,3.2-.49,1.52.45,3.4,1,4.92-.92-.32-.21-.63-.44-.93-.68Z" style="fill: rgb(104, 225, 253);"/><path class="cls-33_global-warming-4 targetColor" d="M229.77,165.14c1.34,0,2.68-.18,4.03-.27.19-.03.38.01.54.12.99,1.05,1.96,2.12,3.1,3.36-1.14.06-2.1-.17-2.6.21-.76.65-1.72,1.01-2.71,1.02-.44.08-.86.24-1.25.46,0,.13.04.27.06.39.2.08.47.27.61.2,1.64-.76,2.34.32,3.21,1.39.76.96,2.11,1.21,3.16.6l-1.02-1.52,2,.76v-3.07c.53.27,1.08.48,1.65.63.46.06.93-.06,1.31-.33.17-.15,0-.82-.16-1.18-.31-.64-.85-1.18-1.12-1.83-.64-1.41-1.94-2.4-3.47-2.62-1.75-.22-3.03-1.62-5.07-1.33-1.2.17-2.27.13-3.11,1.05-.34.36-.49.86-.42,1.36.3.39.77.61,1.26.6Z" style="fill: rgb(104, 225, 253);"/><path class="cls-33_global-warming-4 targetColor" d="M212.71,222.98c-1.81-1.62-3.99-2.78-6.34-3.4-.75-.16-1.53-.14-2.27.07-.66.28-1.28.66-1.83,1.11l.36.52,1.04-.36c1.22-.43,3.89.37,4.42,1.32.96,1.67,2.96,2.09,4.63.74Z" style="fill: rgb(104, 225, 253);"/><path class="cls-33_global-warming-4 targetColor" d="M282.11,186.58c.7.35,1.21.76.38,1.64-.25.26-.1.96-.06,1.45.08.43.2.86.34,1.27.89.09,1.93.24,2.96.27.28,0,.64-.34.82-.61.09-.26.04-.54-.12-.76-1.38-1.77-2.79-3.52-4.22-5.24-.41-.36-.86-.67-1.34-.92-.13,1.46.14,2.34,1.24,2.9Z" style="fill: rgb(104, 225, 253);"/><path class="cls-33_global-warming-4 targetColor" d="M242.4,188.04c.1-.25-.24-.76-.51-1.02-.61-.61-1.3-1.13-2.27-1.92-1.44.78-2.51,2.12-2.95,3.7,1.71.09,3.22.24,4.72.21.39,0,.86-.57,1.01-.97Z" style="fill: rgb(104, 225, 253);"/><path class="cls-33_global-warming-4 targetColor" d="M243.46,157.6c.09.09.37,0,.56,0,1.09-.12,2.19-.21,3.28-.39.61-.13,1.21-.3,1.8-.51-2.43-1.27-10.11-1.44-11.37-.64.07.07.13.16.2.18,1.8.53,3.96-.27,5.54,1.35Z" style="fill: rgb(104, 225, 253);"/><path class="cls-33_global-warming-4 targetColor" d="M233.59,158.83v.4c1.43.32,2.92,1.05,4.26.83,1.52-.24,2.86-1.35,4.28-2.09l-.14-.39c-1.52-.17-3-.35-4.49-.51-.14,0-.35,0-.4.11-.7,1.24-2.11,1.9-3.5,1.64Z" style="fill: rgb(104, 225, 253);"/><path class="cls-33_global-warming-4 targetColor" d="M214.14,225.89c1.16-.06,2.33-.05,3.48-.2.34-.16.57-.48.61-.85-.27-1.03-4.13-1.9-4.39-.99-.36,1.27-1.36,1.08-2.14,1.43,0,.17-.05.33-.08.5.49.08.97.17,1.46.2.35-.01.7-.05,1.05-.1Z" style="fill: rgb(104, 225, 253);"/><path class="cls-33_global-warming-4 targetColor" d="M272.23,174.5c-.65-.3-1.36-.44-2.08-.41-.43,0-.86.4-1.29.62.24.36.39.86.76,1.05.8.4,1.62.76,2.46,1.06l1.75-.96c-.48-.52-1.02-.98-1.61-1.37Z" style="fill: rgb(104, 225, 253);"/><path class="cls-33_global-warming-4 targetColor" d="M280.89,188.51c0-2.98-.66-3.57-2.78-2.39q.42,3.23,2.78,2.39Z" style="fill: rgb(104, 225, 253);"/><path class="cls-33_global-warming-4 targetColor" d="M236.48,160.75c-1.91-.27-3.79-.56-5.68-.76-.31,0-.67.45-1.22.85,3.72.9,6.23.85,6.9-.09Z" style="fill: rgb(104, 225, 253);"/><path class="cls-33_global-warming-4 targetColor" d="M211.14,214.47c-.43-.11-.94-.42-1.27-.28s-.53.7-.72,1.11c-.12.28-.18.57-.19.87v1.68l.39-.15c.46-.63.97-1.23,1.37-1.89.19-.43.33-.87.42-1.33Z" style="fill: rgb(104, 225, 253);"/><path class="cls-33_global-warming-4 targetColor" d="M224.34,171.69l3.32-.2c.2-.95-.13-1.52-1.21-1.68s-1.96.61-2.12,1.89Z" style="fill: rgb(104, 225, 253);"/><path class="cls-33_global-warming-4 targetColor" d="M208.94,265.4l2.92,3.75c.88-2.05.2-2.79-2.92-3.75Z" style="fill: rgb(104, 225, 253);"/><path class="cls-33_global-warming-4 targetColor" d="M226.98,228.99c-.36-.69-.67-1.62-2.27-1.33,2.4,1.52,1.52,3.35.99,5.19.61-1.3,2.12-2.27,1.29-3.87Z" style="fill: rgb(104, 225, 253);"/><path class="cls-33_global-warming-4 targetColor" d="M222.94,164.43c.81-.42,1.57-.93,2.27-1.52l-.43-.6-3.36,1.42-.07.35c.52.12,1.18.53,1.58.35Z" style="fill: rgb(104, 225, 253);"/><path class="cls-33_global-warming-4 targetColor" d="M235.83,157.2c-1.23-1.16-2.7-1.22-3.25-.44-.14.2.26,1.08.33,1.06.86-.11,1.71-.34,2.91-.62Z" style="fill: rgb(104, 225, 253);"/><path class="cls-33_global-warming-4 targetColor" d="M311.03,211.12c.08-2.55-.76-3.79-2.27-3.53l2.27,3.53Z" style="fill: rgb(104, 225, 253);"/><path class="cls-33_global-warming-4 targetColor" d="M220.99,226.33c.21.08.62-.36.94-.55l-1.46-1.36-1.17.88c.53.4,1.09.75,1.68,1.04Z" style="fill: rgb(104, 225, 253);"/><path class="cls-33_global-warming-4 targetColor" d="M283.53,198.27c-.34-.25-.76-.76-1.02-.7-.45.15-.82.48-1.01.92-.08.19.43.62.88,1.22l1.14-1.44Z" style="fill: rgb(104, 225, 253);"/><path class="cls-33_global-warming-4 targetColor" d="M237.13,250.4c.27.33.54.66.99,1.21.47-.53.95-.85,1.02-1.24.05-.23-.61-.83-.89-.8s-.74.53-1.11.83Z" style="fill: rgb(104, 225, 253);"/><path class="cls-33_global-warming-4 targetColor" d="M294.39,203.25c.29.54.64,1.05,1.03,1.52,0,0,.43-.27.92-.58l-1.46-1.59c-.16.24-.54.55-.49.66Z" style="fill: rgb(104, 225, 253);"/><path class="cls-33_global-warming-4 targetColor" d="M207.63,225.93l1.91.53c.08-.29.14-.58.22-.86-.6-.12-1.2-.27-1.8-.33-.09,0-.22.43-.33.67Z" style="fill: rgb(104, 225, 253);"/><path class="cls-33_global-warming-4 targetColor" d="M227.99,162.34c-1.21-.61-1.94-.25-2.38.67l.24.33,2.15-1.01Z" style="fill: rgb(104, 225, 253);"/><path class="cls-33_global-warming-4 targetColor" d="M308.08,211.39l2.13.72.22-.61-2.12-.76-.23.65Z" style="fill: rgb(104, 225, 253);"/><path class="cls-26_global-warming-4" d="M252.86,254.94c-2.79-1.61-5.79-2.58-9.1-1.57-.35-2.62-1.68-3.22-4.02-1.84-.38.28-.84.43-1.31.45-.99-.07-1.96-.3-3.1-.5.45-.64.92-1.34,1.43-2.02.66-.86,1.07-1.71.24-2.71-.16-.23-.26-.49-.32-.76-.65-2.56-1.94-3.72-4.55-4-2.15-.23-4.03-.86-5-3.03-.16-.3-.39-.56-.67-.76-.94-.69-1.26-1.39-.25-2.27.21-.2.24-.61.34-.92-1.3.35-2.27,1.33-3.33,1.39-2.23.19-4.44-.48-6.19-1.87-1.06-.87-1.84-.66-2.19.71-.18.7-.33,1.4-.5,2.09l-.61-.13c.24-1.22.46-2.44.71-3.79-.3,0-.84-.08-.97.11-1.04,1.52-3.26,1.62-4,3.48-.36.93-1,.98-1.97.57-.86-.35-1.82-.41-2.72-.17-1.85.58-3.26-.27-3.21-2.24.05-1.43.2-2.87.32-4.3.16-.88-.42-1.73-1.3-1.89-.07-.01-.15-.02-.22-.03-.84-.14-1.69-.2-2.71-.31.14-.6.24-1.1.39-1.58.42-1.27.91-2.53,1.3-3.79.39-1.26-.13-1.77-1.26-1.29-.94.4-1.75,1.05-2.36,1.87-.82,1.18-1.65,2.1-3.18,2.05-1.41,0-2.63-.95-2.96-2.32-.31-1.09-.36-2.24-.13-3.35.27-1.29,1.07-2.46,1.44-3.73.76-2.51,2.76-3.59,4.87-4.55.64-.2,1.33-.13,1.92.17,1.23.65,2.1.61,2.93-.63.66-.99,4.55-.6,5.11.47.15.45.21.92.17,1.4-.04.76,0,1.52.11,2.27.12.45.71.76,1.08,1.14.33-.35.91-.67.96-1.06.16-1.18.19-2.38.09-3.57-.29-3.29,1.58-5.13,4.31-6.18,1.73-.54,2.99-2.03,3.25-3.83.3-2.04,1.83-2.87,3.21-3.87s3.03-1.99,4.48-2.99c.18-.16.31-.36.39-.58,1.02-2.16,4.5-3.79,7.09-3.26l-2.02,1.52.21.34c2.04-.22,3.42-1.87,5.26-2.62-.91-.38-2.15-.34-2.58-.91s-.1-1.78-.1-2.81l-1.59-.5c.76-.21,1.08-.35,1.42-.4,1.76-.2,3.52-.5,5.25-.89,1.32-.37,2.56-.99,3.65-1.83,1.07-.86.76-1.72-.51-2.34-.24-.14-.45-.31-.64-.51-1.02-.99-1.11-2.19-.95-3.54-.03-.66-.18-1.32-.44-1.93-.59.21-1.2.41-1.78.66-.3.13-.55.43-.86.52-.47.11-.96.18-1.44.21.06-.45.14-.89.17-1.34s.26-1.29,0-1.67c-.64-.94-4.59-1.39-5.27-.53-.93,1.18-1.96,2.53-2.18,3.93-.24,1.72-1.33,3.21-2.91,3.94-.74.49-1.38,1.13-1.88,1.87-.49.64-.49,2.03-1.59,1.62s-.4-1.57-.17-2.37c.23-.8.2-1.19-.6-1.45-1.18-.37-2.35-.76-3.51-1.18-1.05-.36-1.66-1.8-1.11-2.59,1.75-2.5,4.44-3.71,7.02-5.07.67-.36,1.86-.8,1.87-1.21,0-1.08.66-1.05,1.27-1.14,1.1-.08,2.19-.22,3.28-.42.8-.23,1.54-.65,2.14-1.23.4-.38.44-1.13.64-1.71-.73-.01-1.46.03-2.19.12-.33.06-.57.49-.86.76s-.76.61-1.05.76l-1.83-2.89c-1.65.17-2.39,1.36-3.03,2.67.04-.29.08-.58.17-1.18l-1.99.61c.21.44.42.89.68,1.44-.27.13-.64.46-1.01.45-1.16-.04-2.32-.19-3.47-.33-.44-.07-.87-.16-1.3-.27v-.41c1.46.42,3.03-.06,4.01-1.22-.06-1.12-.1-1.93-.14-2.81-1.8.96-3.63,1.3-5.56.24-.55-.18-1.15-.13-1.65.16-1.33.76-2.62,1.59-3.86,2.49-.21.14-.19.62-.28.95.33.03.67,0,.99-.07.71-.29,1.37-.65,1.92-.92.31.6.48.92.64,1.24l-1.05.51v.42l3.84.36c-.72.48-1.25,1.11-1.85,1.17-.8,0-1.59-.16-2.33-.46-3.57-1.08-6.82-.21-9.95,1.52-1.3.67-2.66,1.23-4.06,1.67-2.7.95-5.52,1.62-8.11,2.8-4.78,2.18-8.16,6.31-12.33,9.35-.07.05-.09.16-.15.27l.76.31c-2.74,1.32-4.92,3.58-6.13,6.38.34-.18.66-.39.96-.64,3.18-2.13,6.29-4.38,9.58-6.29,1.02-.59,2.57-.35,3.87-.34.3,0,.59.62.95,1.02l-1.93.53,1.73.54c-1.8,1.63-1.24,4.26-3.2,5.67-.24.17-.28.76-.2,1.13.16.27.45.43.76.44.36-.16.67-.42.89-.76.14-.28.23-.59.28-.9.35.25.58.66.49.76-.71.85-1.47,1.66-2.27,2.43-.42.4-1.12.55-1.48.99-1.84,2.31-3.65,4.66-5.38,7.06-.31.58-.47,1.23-.47,1.9-.07.76.07,1.52,0,2.27-.18.9.12,1.83.8,2.44.41.36.42,1.27.45,1.93.05,1.58,0,3.15,0,4.73.01.1.05.19.1.27.49,1,.99,2,1.46,3.03.13.36.24.73.32,1.11l.71-.57c-.06-.45-.1-.91-.19-1.35-.36-1.93-.76-3.84-1.08-5.78-.07-.45.32-.98.5-1.46.28.41.76.76.81,1.23.24,2.36,1.07,4.63,2.4,6.59.77,1.05,1.08,2.38.83,3.66-.13.63.02,1.29.41,1.8,1.58,1.32,3.26,2.5,5.04,3.53.91.4,1.93.48,2.89.24.92-.27,1.91-.07,2.65.53,1.47,1.08,2.62,2.71,4.7,2.85.23,0,.41.58.61.89.86,1.46,1.81,2.85,2.86,4.19.69.76,1.85,1.14,2.78,1.74.76.48,1.27.64,1.52-.49.17-.4.52-.7.94-.81.23-.04.76.48.81.82.76,2.92,1.3,5.82-.67,8.55-.56.76-.95,1.68-1.52,2.44-.64.69-.67,1.75-.08,2.48.26.49.31,1.07.11,1.6-.66,1.52-.2,2.78.69,4.02.79.96,1.45,2.02,1.96,3.15.67,1.81,2.2,2.35,3.62,3.12l.32-.25c-.39-1.22-.83-2.43-1.14-3.67-.1-.4.18-.89.29-1.33.3.3.76.54.88.89.58,1.67,1.14,3.36,1.58,5.07.43,1.22.62,2.5.58,3.79-.21,1.02.21,2.07,1.08,2.65,2.59,2.16,4.64,4.63,3.92,8.34-.02.29,0,.58.07.86.67,4.55,1.26,9.1,2.09,13.65.45,1.83,1.09,3.61,1.9,5.31.47,1.18,1.12,2.27,1.6,3.45.09.37,0,.76-.25,1.05-.76.7-.27,1.12.19,1.68.64.76,1.52,1.52,1.68,2.43.27,1.58,1.35,2.4,2.39,3.25.57.3,1.24.34,1.85.13.27-.08.31-.93.4-1.43.05-.74.17-1.48.34-2.2.31-.7.21-1.52-.26-2.12-.31-.64-.44-1.36-.37-2.07,0-1.27,1.01-2.57-.32-3.87,1.85-.11,1.7-1.52,1.87-2.58,1.18-.4,2.97.25,3.03-1.58,0-1.21-.61-2.44-.98-3.75.31-.02.61,0,.91.08,1.32.55,2.16.15,3.03-.99,1.22-1.52,2.15-3.25,2.74-5.11.24-.86.76-1.77.62-2.58-.3-1.82.51-2.87,1.96-3.56,1.11-.52,2.27-.84,3.43-1.34.5-.22.92-.59,1.21-1.05,1.81-3.08,2.68-6.62,2.48-10.19-.13-1.64.36-3.26,1.38-4.55.67-.88,1.41-1.71,2.15-2.52,1.64-1.71,1.52-3.92-.57-5.16Z"/><path class="cls-24_global-warming-4" d="M314.25,242.06c.3-.78.46-1.61.46-2.44,0-1.27.05-2.68.05-2.71.06-1.19.09-2.39.08-3.58-.03-5.8-.72-11.58-2.04-17.23-.13-.38-.41-.69-.76-.87-1.13-.61-2.27-1.18-3.45-1.69-.67-.25-1.36-.47-2.05-.65-.19.96-.32,1.58-.45,2.2-.72-.17-1.44-.38-2.14-.63-.36-.16-.59-.61-.91-.88-.6-.65-1.3-1.21-2.08-1.65-1.62-.66-2.84-1.52-3.13-3.37-.11-1.05-1.04-1.81-2.09-1.71,0,0-.01,0-.02,0-1.29,0-2.56-.34-3.85-.44-.88-.17-1.79-.15-2.66.07-1.91.76-3.68,1.01-5.16-.31-.67.69-1.4,1.33-2.18,1.9-.81.52-1.31,1.39-1.35,2.35-.15.95-.52,1.85-1.08,2.63-1.52,2.09-3.25,4.04-4.76,6.13-.92,1.33-1.06,3.04-.38,4.5.36.99.68,2.34.3,3.2-.74,1.65-1,3.47-.76,5.26.12.74.41,1.45.84,2.07.76,1.18,2.03,2.16,2.49,3.43.85,2.15,2.36,3.97,4.31,5.19.49.35,1.11.46,1.69.29,1.42-.71,3.03-.96,4.6-.69.56-.02,1.12-.15,1.62-.39,1.39-.49,2.74-1.11,4.15-1.52.94-.26,1.65.2,2.03,1.23.19.42.62.68,1.08.67.82-.05,1.44-.08,1.52.96,0,.16.32.27.44.44.26.35.69.76.67,1.08-.11.66-.31,1.3-.59,1.9-.58,1.52-.59,2.78.61,4.09.9.9,1.33,2.17,1.17,3.43-.05,1.15-.02,2.3.08,3.44.07.56-.02,1.12-.27,1.63-3.41,4.45-2.34,9.69-2.66,14.68,0,.14.03.29.11.41.89,1.18.7,2.85-.43,3.79-.18.18-.14.58-.27,1.22.68-.29,1.09-.43,1.47-.64.76-.41,1.47-.92,2.27-1.27,1.72-.75,3.15-2.05,4.06-3.7,2.98-5.42,5.34-11.16,7.02-17.11.72-2.5,1.21-5.07,1.8-7.58-.06,0-.11-5.25.58-7.13Z"/><path class="cls-30_global-warming-4" d="M289.84,186.46c1.23.05,2.02.9,2.04,2.41l-1.25-1.16-.45.17c.22.76.44,1.48.67,2.27-.49-.01-.97.07-1.43.23-1.75,1.04-3.39,2.27-5.6,2.15-.24,0-.71.31-.72.49.02.36.17.7.43.96.47.46,1.24.76,1.52,1.27.34.7.64,2.12.36,2.27-1.17.76-.64,1.59-.45,2.46-.46-.08-.93-.1-1.4-.07-2.68.55-3.3,0-3.03-2.69,0-.05-.13-.11-.28-.24-.14.26-.37.49-.35.71.16,1.86.33,3.72.58,5.56.09.37.32.68.64.88,1.48.91,3.2,1.36,4.94,1.3.88.06,1.68-.52,1.89-1.38.28-.75.65-1.46,1.11-2.11.47-.61.98-1.2,1.52-1.76.82-.05,1.81.14,2.54-.21.99-.49,1.45-.2,2.05.5.73.8,1.51,1.56,2.34,2.27.84.76,1.75,1.47,2.55,2.27.26.42.44.89.54,1.38l-1.86.08c-.06.14-.13.29-.19.42.52.32,1.32,1.02,1.52.89.87-.74,1.7-1.53,2.46-2.39l-6.07-5.69.26-.27c4.27,2.38,7.13,6.21,9.99,10.15,1.16-1.34-.27-1.95-.5-3.03h3.37c-.49-1.43-.83-2.74-1.36-3.97-2.49-5.93-5.81-11.47-9.86-16.46-1.65-1.97-3.95-3.4-6.07-4.97-.7-.68-1.81-.66-2.49.03-.04.04-.07.08-.11.12-.6.72-1.21,1.33-2.27,1.18-.21,0-.71.51-.72.8-.04,1.37,1.71,3.1,3.15,3.15Z"/><path class="cls-31_global-warming-4" d="M268.13,168.79c-.27-.28-.52-.57-.76-.87,2.23-.46,2.7-.76,2.57-2.23-.11-1.24.36-1.21,1.23-.82.25.08.5.14.76.16l.05-.25c-.56-.25-1.1-.54-1.61-.88-3.55-2.84-7.66-4.22-12.09-4.9-1.82-.27-3.57-.96-5.38-1.35-.96-.23-1.95-.31-2.93-.24-1.84.18-3.67.53-5.5.85-.34.06-.87.22-.92.42-.05.37.1.74.39.98.9.52,1.87.91,2.88,1.14,2.46.37,4.75,3.6,3.62,5.76-.9,1.73-.7,3.49-1,5.22-.21,1.27,2.09,3.89,3.39,3.86.56-.04,1.09-.26,1.52-.62.44-.44.81-.96,1.08-1.52.59-1.18,1.82-1.91,3.14-1.87.84-.06,1.66-.32,2.38-.76.94-.63,2.11-.81,3.2-.49,1.52.45,3.4,1,4.92-.92-.32-.21-.63-.44-.93-.68Z"/><path class="cls-29_global-warming-4" d="M229.77,165.14c1.34,0,2.68-.18,4.03-.27.19-.03.38.01.54.12.99,1.05,1.96,2.12,3.1,3.36-1.14.06-2.1-.17-2.6.21-.76.65-1.72,1.01-2.71,1.02-.44.08-.86.24-1.25.46,0,.13.04.27.06.39.2.08.47.27.61.2,1.64-.76,2.34.32,3.21,1.39.76.96,2.11,1.21,3.16.6l-1.02-1.52,2,.76v-3.07c.53.27,1.08.48,1.65.63.46.06.93-.06,1.31-.33.17-.15,0-.82-.16-1.18-.31-.64-.85-1.18-1.12-1.83-.64-1.41-1.94-2.4-3.47-2.62-1.75-.22-3.03-1.62-5.07-1.33-1.2.17-2.27.13-3.11,1.05-.34.36-.49.86-.42,1.36.3.39.77.61,1.26.6Z"/><path class="cls-27_global-warming-4" d="M212.71,222.98c-1.81-1.62-3.99-2.78-6.34-3.4-.75-.16-1.53-.14-2.27.07-.66.28-1.28.66-1.83,1.11l.36.52,1.04-.36c1.22-.43,3.89.37,4.42,1.32.96,1.67,2.96,2.09,4.63.74Z"/><path class="cls-28_global-warming-4" d="M282.11,186.58c.7.35,1.21.76.38,1.64-.25.26-.1.96-.06,1.45.08.43.2.86.34,1.27.89.09,1.93.24,2.96.27.28,0,.64-.34.82-.61.09-.26.04-.54-.12-.76-1.38-1.77-2.79-3.52-4.22-5.24-.41-.36-.86-.67-1.34-.92-.13,1.46.14,2.34,1.24,2.9Z"/><path class="cls-9_global-warming-4" d="M242.4,188.04c.1-.25-.24-.76-.51-1.02-.61-.61-1.3-1.13-2.27-1.92-1.44.78-2.51,2.12-2.95,3.7,1.71.09,3.22.24,4.72.21.39,0,.86-.57,1.01-.97Z"/><path class="cls-6_global-warming-4" d="M243.46,157.6c.09.09.37,0,.56,0,1.09-.12,2.19-.21,3.28-.39.61-.13,1.21-.3,1.8-.51-2.43-1.27-10.11-1.44-11.37-.64.07.07.13.16.2.18,1.8.53,3.96-.27,5.54,1.35Z"/><path class="cls-7_global-warming-4" d="M233.59,158.83v.4c1.43.32,2.92,1.05,4.26.83,1.52-.24,2.86-1.35,4.28-2.09l-.14-.39c-1.52-.17-3-.35-4.49-.51-.14,0-.35,0-.4.11-.7,1.24-2.11,1.9-3.5,1.64Z"/><path class="cls-8_global-warming-4" d="M214.14,225.89c1.16-.06,2.33-.05,3.48-.2.34-.16.57-.48.61-.85-.27-1.03-4.13-1.9-4.39-.99-.36,1.27-1.36,1.08-2.14,1.43,0,.17-.05.33-.08.5.49.08.97.17,1.46.2.35-.01.7-.05,1.05-.1Z"/><path class="cls-17_global-warming-4" d="M272.23,174.5c-.65-.3-1.36-.44-2.08-.41-.43,0-.86.4-1.29.62.24.36.39.86.76,1.05.8.4,1.62.76,2.46,1.06l1.75-.96c-.48-.52-1.02-.98-1.61-1.37Z"/><path class="cls-13_global-warming-4" d="M280.89,188.51c0-2.98-.66-3.57-2.78-2.39q.42,3.23,2.78,2.39Z"/><path class="cls-11_global-warming-4" d="M236.48,160.75c-1.91-.27-3.79-.56-5.68-.76-.31,0-.67.45-1.22.85,3.72.9,6.23.85,6.9-.09Z"/><path class="cls-10_global-warming-4" d="M211.14,214.47c-.43-.11-.94-.42-1.27-.28s-.53.7-.72,1.11c-.12.28-.18.57-.19.87v1.68l.39-.15c.46-.63.97-1.23,1.37-1.89.19-.43.33-.87.42-1.33Z"/><path class="cls-16_global-warming-4" d="M224.34,171.69l3.32-.2c.2-.95-.13-1.52-1.21-1.68s-1.96.61-2.12,1.89Z"/><path class="cls-12_global-warming-4" d="M208.94,265.4l2.92,3.75c.88-2.05.2-2.79-2.92-3.75Z"/><path class="cls-19_global-warming-4" d="M226.98,228.99c-.36-.69-.67-1.62-2.27-1.33,2.4,1.52,1.52,3.35.99,5.19.61-1.3,2.12-2.27,1.29-3.87Z"/><path class="cls-15_global-warming-4" d="M222.94,164.43c.81-.42,1.57-.93,2.27-1.52l-.43-.6-3.36,1.42-.07.35c.52.12,1.18.53,1.58.35Z"/><path class="cls-18_global-warming-4" d="M235.83,157.2c-1.23-1.16-2.7-1.22-3.25-.44-.14.2.26,1.08.33,1.06.86-.11,1.71-.34,2.91-.62Z"/><path class="cls-14_global-warming-4" d="M311.03,211.12c.08-2.55-.76-3.79-2.27-3.53l2.27,3.53Z"/><path class="cls-21_global-warming-4" d="M220.99,226.33c.21.08.62-.36.94-.55l-1.46-1.36-1.17.88c.53.4,1.09.75,1.68,1.04Z"/><path class="cls-5_global-warming-4" d="M283.53,198.27c-.34-.25-.76-.76-1.02-.7-.45.15-.82.48-1.01.92-.08.19.43.62.88,1.22l1.14-1.44Z"/><path class="cls-22_global-warming-4" d="M237.13,250.4c.27.33.54.66.99,1.21.47-.53.95-.85,1.02-1.24.05-.23-.61-.83-.89-.8s-.74.53-1.11.83Z"/><path class="cls-20_global-warming-4" d="M294.39,203.25c.29.54.64,1.05,1.03,1.52,0,0,.43-.27.92-.58l-1.46-1.59c-.16.24-.54.55-.49.66Z"/><path class="cls-4_global-warming-4" d="M207.63,225.93l1.91.53c.08-.29.14-.58.22-.86-.6-.12-1.2-.27-1.8-.33-.09,0-.22.43-.33.67Z"/><path class="cls-2_global-warming-4" d="M227.99,162.34c-1.21-.61-1.94-.25-2.38.67l.24.33,2.15-1.01Z"/><path class="cls-3_global-warming-4" d="M308.08,211.39l2.13.72.22-.61-2.12-.76-.23.65Z"/><path class="cls-33_global-warming-4 targetColor" d="M297.06,331.24c.25.26.54.46.87.6.64.19,1.32.08,1.87-.3,1.96-1.23,2.06-4.22.84-6.18-4.66-7.42-8.04,1.69-3.58,5.88Z" style="fill: rgb(104, 225, 253);"/><path class="cls-33_global-warming-4 targetColor" d="M251.06,343.51c-.13.99-.1,2.17.76,2.72.63.35,1.41.3,1.99-.14.56-.44.96-1.05,1.16-1.73.42-1.24.57-5.18-1.16-5.73-2.31-.73-2.57,3.49-2.74,4.88Z" style="fill: rgb(104, 225, 253);"/><path class="cls-33_global-warming-4 targetColor" d="M215.05,350.41c-.63,1.16-.88,2.49-.7,3.79.4,1.36,1.48,2.42,2.85,2.8.77.27,1.61.27,2.38,0,1.52-.61,2.13-2.37,2.33-3.98.2-1.61.3-8.08-1.74-8.88-2.54-1.04-4.47,4.76-5.12,6.27Z" style="fill: rgb(104, 225, 253);"/><path class="cls-33_global-warming-4 targetColor" d="M186.61,329.58c.46.87,1.3,1.77,2.27,1.57s1.31-1.15,1.62-1.99l1.02-2.86c.12-.3.2-.62.23-.95,0-2.16-3.07-4.59-5.05-3.26-2.15,1.45-1.05,5.67-.08,7.49Z" style="fill: rgb(104, 225, 253);"/></g><g id="sun_global-warming-4"><path class="cls-32_global-warming-4 targetColor" d="M445.76,335.57c-12.28,12.23-28.63,20.61-38.23,35.1-6.73,10.13-9.52,22.44-15.92,32.76-12.89,20.68-38.6,30.33-62.98,30.75-53.73.99-104.21-30.22-158.47-21.19-27.46,4.55-50.64,10.82-76.7-2.9-20.9-11.04-37.54-30.98-42.36-54.34-3.32-16.09-1.62-32.89-4.89-48.97-6.54-32.22-32.14-58.3-37.56-90.73-4.66-28,6.75-56.11,24.26-78.86,3.14-4.06,6.46-7.98,9.95-11.67,7.23-7.68,15.2-14.86,24.56-19.71,16.75-8.69,36.34-9.36,54.82-13.26,25.31-5.31,48.75-16.89,72.6-26.99,3.33-1.44,6.67-2.82,10.02-4.15,27.42-10.94,57.62-18.78,86.22-11.61,31.09,7.79,55.93,32.91,69.1,62.18,8.24,18.2,12.62,38.44,24.11,54.84,17.76,25.39,49.61,37.7,68.51,62.24,23.74,30.8,20.55,79.13-7.05,106.51Z" style="fill: rgb(104, 225, 253);"/><ellipse class="cls-23_global-warming-4 targetColor" cx="239.83" cy="381.85" rx="108.91" ry="11.6" style="fill: rgb(104, 225, 253);"/></g></svg>