<svg id="_0233_global_warming_1" xmlns="http://www.w3.org/2000/svg" xmlns:xlink="http://www.w3.org/1999/xlink" viewBox="0 0 500 500" data-imageid="global-warming-1-73" imageName="Global Warming 1" class="illustrations_image" style="width: 166px;"><defs><style>.cls-1_global-warming-1-73{fill:none;}.cls-1_global-warming-1-73,.cls-2_global-warming-1-73,.cls-3_global-warming-1-73,.cls-4_global-warming-1-73,.cls-5_global-warming-1-73,.cls-6_global-warming-1-73,.cls-7_global-warming-1-73,.cls-8_global-warming-1-73,.cls-9_global-warming-1-73,.cls-10_global-warming-1-73,.cls-11_global-warming-1-73,.cls-12_global-warming-1-73,.cls-13_global-warming-1-73,.cls-14_global-warming-1-73,.cls-15_global-warming-1-73,.cls-16_global-warming-1-73,.cls-17_global-warming-1-73,.cls-18_global-warming-1-73,.cls-19_global-warming-1-73,.cls-20_global-warming-1-73,.cls-21_global-warming-1-73,.cls-22_global-warming-1-73,.cls-23_global-warming-1-73,.cls-24_global-warming-1-73,.cls-25_global-warming-1-73,.cls-26_global-warming-1-73,.cls-27_global-warming-1-73,.cls-28_global-warming-1-73,.cls-29_global-warming-1-73,.cls-30_global-warming-1-73,.cls-31_global-warming-1-73,.cls-32_global-warming-1-73,.cls-33_global-warming-1-73,.cls-34_global-warming-1-73,.cls-35_global-warming-1-73,.cls-36_global-warming-1-73,.cls-37_global-warming-1-73,.cls-38_global-warming-1-73,.cls-39_global-warming-1-73{stroke-width:0px;}.cls-2_global-warming-1-73{fill:url(#linear-gradient);}.cls-3_global-warming-1-73{fill:url(#linear-gradient-33-global-warming-1-73);}.cls-4_global-warming-1-73{fill:url(#linear-gradient-29-global-warming-1-73);}.cls-5_global-warming-1-73{fill:url(#linear-gradient-32-global-warming-1-73);}.cls-6_global-warming-1-73{fill:url(#linear-gradient-30-global-warming-1-73);}.cls-7_global-warming-1-73{fill:url(#linear-gradient-31-global-warming-1-73);}.cls-8_global-warming-1-73{fill:url(#linear-gradient-36-global-warming-1-73);}.cls-9_global-warming-1-73{fill:url(#linear-gradient-34-global-warming-1-73);}.cls-10_global-warming-1-73{fill:url(#linear-gradient-35-global-warming-1-73);}.cls-11_global-warming-1-73{fill:url(#linear-gradient-28-global-warming-1-73);}.cls-12_global-warming-1-73{fill:url(#linear-gradient-25-global-warming-1-73);}.cls-13_global-warming-1-73{fill:url(#linear-gradient-11-global-warming-1-73);}.cls-14_global-warming-1-73{fill:url(#linear-gradient-12-global-warming-1-73);}.cls-15_global-warming-1-73{fill:url(#linear-gradient-13-global-warming-1-73);}.cls-16_global-warming-1-73{fill:url(#linear-gradient-10-global-warming-1-73);}.cls-17_global-warming-1-73{fill:url(#linear-gradient-17-global-warming-1-73);}.cls-18_global-warming-1-73{fill:url(#linear-gradient-16-global-warming-1-73);}.cls-19_global-warming-1-73{fill:url(#linear-gradient-19-global-warming-1-73);}.cls-20_global-warming-1-73{fill:url(#linear-gradient-15-global-warming-1-73);}.cls-21_global-warming-1-73{fill:url(#linear-gradient-23-global-warming-1-73);}.cls-22_global-warming-1-73{fill:url(#linear-gradient-21-global-warming-1-73);}.cls-23_global-warming-1-73{fill:url(#linear-gradient-18-global-warming-1-73);}.cls-24_global-warming-1-73{fill:url(#linear-gradient-14-global-warming-1-73);}.cls-25_global-warming-1-73{fill:url(#linear-gradient-22-global-warming-1-73);}.cls-26_global-warming-1-73{fill:url(#linear-gradient-20-global-warming-1-73);}.cls-27_global-warming-1-73{fill:url(#linear-gradient-27-global-warming-1-73);}.cls-28_global-warming-1-73{fill:url(#linear-gradient-24-global-warming-1-73);}.cls-29_global-warming-1-73{fill:url(#linear-gradient-26-global-warming-1-73);}.cls-30_global-warming-1-73{fill:url(#linear-gradient-4-global-warming-1-73);}.cls-31_global-warming-1-73{fill:url(#linear-gradient-2-global-warming-1-73);}.cls-32_global-warming-1-73{fill:url(#linear-gradient-3-global-warming-1-73);}.cls-33_global-warming-1-73{fill:url(#linear-gradient-8-global-warming-1-73);}.cls-34_global-warming-1-73{fill:url(#linear-gradient-9-global-warming-1-73);}.cls-35_global-warming-1-73{fill:url(#linear-gradient-7-global-warming-1-73);}.cls-36_global-warming-1-73{fill:url(#linear-gradient-5-global-warming-1-73);}.cls-37_global-warming-1-73{fill:url(#linear-gradient-6-global-warming-1-73);}.cls-38_global-warming-1-73{isolation:isolate;opacity:.24;}.cls-38_global-warming-1-73,.cls-39_global-warming-1-73{fill:#68e1fd;}</style><linearGradient id="linear-gradient-global-warming-1-73" x1="719.64" y1="2485.74" x2="739.24" y2="2232.49" gradientTransform="translate(-473.11 2797.69) scale(1 -1)" gradientUnits="userSpaceOnUse"><stop offset="0" stop-color="#231f20" stop-opacity="0"/><stop offset="1" stop-color="#231f20"/></linearGradient><linearGradient id="linear-gradient-2-global-warming-1-73" x1="690.6" y1="2589.91" x2="682.97" y2="2213.15" xlink:href="#linear-gradient-global-warming-1-73"/><linearGradient id="linear-gradient-3-global-warming-1-73" x1="807.13" y1="2664.53" x2="796.67" y2="2147.96" xlink:href="#linear-gradient-global-warming-1-73"/><linearGradient id="linear-gradient-4-global-warming-1-73" x1="681.62" y1="2672.08" x2="670.94" y2="2144.38" xlink:href="#linear-gradient-global-warming-1-73"/><linearGradient id="linear-gradient-5-global-warming-1-73" x1="692.47" y1="2671.94" x2="681.78" y2="2143.98" xlink:href="#linear-gradient-global-warming-1-73"/><linearGradient id="linear-gradient-6-global-warming-1-73" x1="687.37" y1="2671.96" x2="676.69" y2="2144.22" xlink:href="#linear-gradient-global-warming-1-73"/><linearGradient id="linear-gradient-7-global-warming-1-73" x1="708.52" y1="2671.59" x2="697.84" y2="2143.73" xlink:href="#linear-gradient-global-warming-1-73"/><linearGradient id="linear-gradient-8-global-warming-1-73" x1="700.71" y1="2671.73" x2="690.02" y2="2143.91" xlink:href="#linear-gradient-global-warming-1-73"/><linearGradient id="linear-gradient-9-global-warming-1-73" x1="726.73" y1="2671.22" x2="716.04" y2="2143.36" xlink:href="#linear-gradient-global-warming-1-73"/><linearGradient id="linear-gradient-10-global-warming-1-73" x1="683.47" y1="2672.03" x2="672.78" y2="2144.36" xlink:href="#linear-gradient-global-warming-1-73"/><linearGradient id="linear-gradient-11-global-warming-1-73" x1="715.75" y1="2587.53" x2="725.56" y2="2378.22" xlink:href="#linear-gradient-global-warming-1-73"/><linearGradient id="linear-gradient-12-global-warming-1-73" x1="776.5" y1="2562.91" x2="770.79" y2="2450.98" xlink:href="#linear-gradient-global-warming-1-73"/><linearGradient id="linear-gradient-13-global-warming-1-73" x1="606.75" y1="2549.9" x2="909.4" y2="2543.83" gradientTransform="translate(-471 2803.46) scale(1 -1)" xlink:href="#linear-gradient-global-warming-1-73"/><linearGradient id="linear-gradient-14-global-warming-1-73" x1="743.1" y1="2565.73" x2="760.26" y2="2565.52" xlink:href="#linear-gradient-global-warming-1-73"/><linearGradient id="linear-gradient-15-global-warming-1-73" x1="767.29" y1="2565.73" x2="784.45" y2="2565.52" xlink:href="#linear-gradient-global-warming-1-73"/><linearGradient id="linear-gradient-16-global-warming-1-73" x1="786.15" y1="2664.36" x2="743.49" y2="2583.4" gradientTransform="translate(-473.11 2797.69) scale(1 -1)" gradientUnits="userSpaceOnUse"><stop offset="0" stop-color="#fff" stop-opacity="0"/><stop offset=".95" stop-color="#fff"/></linearGradient><linearGradient id="linear-gradient-17-global-warming-1-73" x1="825.02" y1="2692.59" x2="782.36" y2="2611.64" xlink:href="#linear-gradient-16-global-warming-1-73"/><linearGradient id="linear-gradient-18-global-warming-1-73" x1="713.69" y1="2589.29" x2="710.02" y2="2437.36" gradientTransform="translate(-471 2803.46) scale(1 -1)" xlink:href="#linear-gradient-global-warming-1-73"/><linearGradient id="linear-gradient-19-global-warming-1-73" x1="710.71" y1="2592.21" x2="654.12" y2="2484.77" gradientTransform="translate(-471 2803.46) scale(1 -1)" xlink:href="#linear-gradient-global-warming-1-73"/><linearGradient id="linear-gradient-20-global-warming-1-73" x1="718.61" y1="2588.1" x2="662.01" y2="2480.65" gradientTransform="translate(-471 2803.46) scale(1 -1)" xlink:href="#linear-gradient-global-warming-1-73"/><linearGradient id="linear-gradient-21-global-warming-1-73" x1="726.51" y1="2583.99" x2="669.91" y2="2476.54" gradientTransform="translate(-471 2803.46) scale(1 -1)" xlink:href="#linear-gradient-global-warming-1-73"/><linearGradient id="linear-gradient-22-global-warming-1-73" x1="715.17" y1="2589.92" x2="658.57" y2="2482.47" gradientTransform="translate(-471 2803.46) scale(1 -1)" xlink:href="#linear-gradient-global-warming-1-73"/><linearGradient id="linear-gradient-23-global-warming-1-73" x1="723.06" y1="2585.81" x2="666.47" y2="2478.36" gradientTransform="translate(-471 2803.46) scale(1 -1)" xlink:href="#linear-gradient-global-warming-1-73"/><linearGradient id="linear-gradient-24-global-warming-1-73" x1="730.96" y1="2581.69" x2="674.36" y2="2474.24" gradientTransform="translate(-471 2803.46) scale(1 -1)" xlink:href="#linear-gradient-global-warming-1-73"/><linearGradient id="linear-gradient-25-global-warming-1-73" x1="719.62" y1="2587.62" x2="663.03" y2="2480.17" gradientTransform="translate(-471 2803.46) scale(1 -1)" xlink:href="#linear-gradient-global-warming-1-73"/><linearGradient id="linear-gradient-26-global-warming-1-73" x1="727.51" y1="2583.51" x2="670.92" y2="2476.06" gradientTransform="translate(-471 2803.46) scale(1 -1)" xlink:href="#linear-gradient-global-warming-1-73"/><linearGradient id="linear-gradient-27-global-warming-1-73" x1="735.41" y1="2579.39" x2="678.81" y2="2471.94" gradientTransform="translate(-471 2803.46) scale(1 -1)" xlink:href="#linear-gradient-global-warming-1-73"/><linearGradient id="linear-gradient-28-global-warming-1-73" x1="724.07" y1="2585.32" x2="667.48" y2="2477.87" gradientTransform="translate(-471 2803.46) scale(1 -1)" xlink:href="#linear-gradient-global-warming-1-73"/><linearGradient id="linear-gradient-29-global-warming-1-73" x1="731.97" y1="2581.21" x2="675.37" y2="2473.76" gradientTransform="translate(-471 2803.46) scale(1 -1)" xlink:href="#linear-gradient-global-warming-1-73"/><linearGradient id="linear-gradient-30-global-warming-1-73" x1="739.87" y1="2577.09" x2="683.27" y2="2469.65" gradientTransform="translate(-471 2803.46) scale(1 -1)" xlink:href="#linear-gradient-global-warming-1-73"/><linearGradient id="linear-gradient-31-global-warming-1-73" x1="698.37" y1="2556.07" x2="700.27" y2="2439.55" gradientTransform="translate(-471 2803.46) scale(1 -1)" xlink:href="#linear-gradient-global-warming-1-73"/><linearGradient id="linear-gradient-32-global-warming-1-73" x1="685.15" y1="2672.07" x2="674.46" y2="2144.16" xlink:href="#linear-gradient-global-warming-1-73"/><linearGradient id="linear-gradient-33-global-warming-1-73" x1="692.24" y1="2543.2" x2="690.5" y2="2518.16" gradientTransform="translate(-471 2803.46) scale(1 -1)" xlink:href="#linear-gradient-global-warming-1-73"/><linearGradient id="linear-gradient-34-global-warming-1-73" x1="715.5" y1="2543.21" x2="713.76" y2="2518.16" gradientTransform="translate(-471 2803.46) scale(1 -1)" xlink:href="#linear-gradient-global-warming-1-73"/><linearGradient id="linear-gradient-35-global-warming-1-73" x1="711.55" y1="2536.31" x2="877.35" y2="2532.98" gradientTransform="translate(-471 2803.46) scale(1 -1)" xlink:href="#linear-gradient-global-warming-1-73"/><linearGradient id="linear-gradient-36-global-warming-1-73" x1="737.47" y1="2536.31" x2="903.26" y2="2532.98" gradientTransform="translate(-471 2803.46) scale(1 -1)" xlink:href="#linear-gradient-global-warming-1-73"/></defs><path id="background_global-warming-1-73" class="cls-38_global-warming-1-73 targetColor" d="M464.98,309.76c-8.63,14.03-21.89,25.43-27.49,40.9-3.92,10.83-3.68,22.78-7.26,33.71-7.19,21.92-28.92,36.61-51.5,42.6-49.75,13.13-103.87-4.05-152.33,16.61-24.5,10.45-44.62,21.46-72.02,14.78-21.98-5.36-42.03-19.89-51.9-40.23-6.79-14.02-9.08-29.84-15.84-43.86-13.49-28.12-43.33-46.27-55.84-74.84-10.79-24.65-6.66-53.06,4.42-77.93,1.98-4.45,4.17-8.8,6.56-12.99,4.95-8.68,10.72-17.11,18.31-23.67,13.58-11.83,31.65-16.87,47.94-24.66,22.31-10.67,41.47-26.59,61.32-41.3,2.75-2.07,5.54-4.1,8.37-6.09,22.96-16.27,49.24-30.34,77.5-30.26,30.73.08,59.62,17.51,78.6,41.37,11.87,14.88,20.61,32.44,35.07,44.89,22.37,19.28,54.84,23.34,78.08,41.58,29.2,22.83,37.36,67.92,18,99.39Z" style="fill: rgb(104, 225, 253);"/><g id="earth_global-warming-1-73"><path class="cls-39_global-warming-1-73 targetColor" d="M362.52,305.33c-.08,63.53-52.3,114.98-116.65,114.9-64.35-.08-116.45-51.64-116.37-115.18.01-8.71,1.02-17.4,3.02-25.89.42-1.68.85-3.36,1.33-5.02,3.58-2.7,11.6-5.14,22.88-7.16,14.21-2.55,33.66-4.5,55.99-5.48,10.46-.47,21.57-.69,33.05-.69,25.82,0,49.58,1.21,68.72,3.31,8.96.99,16.83,2.15,23.44,3.46,10.34,2.03,17.47,4.43,20.41,7.04.38,1.33.74,2.7,1.05,4.06,2.09,8.73,3.14,17.68,3.13,26.65Z" style="fill: rgb(104, 225, 253);"/><path class="cls-2_global-warming-1-73" d="M362.52,305.33c-.08,63.53-52.3,114.98-116.65,114.9-64.35-.08-116.45-51.64-116.37-115.18.01-8.71,1.02-17.4,3.02-25.89.42-1.68.85-3.36,1.33-5.02,3.58-2.7,11.6-5.14,22.88-7.16,14.21-2.55,33.66-4.5,55.99-5.48,10.46-.47,21.57-.69,33.05-.69,25.82,0,49.58,1.21,68.72,3.31,8.96.99,16.83,2.15,23.44,3.46,10.34,2.03,17.47,4.43,20.41,7.04.38,1.33.74,2.7,1.05,4.06,2.09,8.73,3.14,17.68,3.13,26.65Z"/><path class="cls-31_global-warming-1-73" d="M271.73,339.15c-1.06,1.16-2.12,2.37-3.08,3.6-1.47,1.84-2.18,4.16-2,6.49.41,5.22-1.09,10.03-3.59,14.56-.41.66-1.02,1.19-1.73,1.51-1.6.73-3.38,1.16-4.96,1.92-2.12.99-3.29,2.46-2.85,5.07.21,1.13-.53,2.44-.88,3.68-.85,2.65-2.21,5.12-4,7.28-1.26,1.65-2.5,2.2-4.38,1.42-.43-.1-.88-.14-1.32-.12.53,1.85,1.44,3.63,1.41,5.34-.06,2.63-2.68,1.7-4.35,2.26-.24,1.58,0,3.54-2.7,3.68,1.91,1.85.44,3.72.46,5.52-.1,1.02.08,2.04.54,2.96.69.86.83,2.02.38,3.02-.26,1.04-.42,2.09-.5,3.16-.14.73-.21,1.94-.59,2.06-.8.23-2.09.29-2.67-.21-1.5-1.19-3.05-2.37-3.44-4.61-.24-1.28-1.53-2.37-2.44-3.49-.68-.79-1.35-1.39-.3-2.37.35-.42.49-.97.38-1.51-.71-1.66-1.65-3.25-2.33-4.93-1.02-2.49-2.26-4.99-2.76-7.6-1.21-6.47-2.03-12.99-3-19.49-.1-.4-.14-.81-.12-1.21,1.05-5.34-1.91-8.88-5.67-11.95-1.25-.82-1.87-2.32-1.55-3.77.23-1.74-.38-3.63-.8-5.4-.65-2.46-1.47-4.87-2.33-7.25-.18-.52-.8-.87-1.26-1.28-.14.64-.56,1.33-.41,1.92.44,1.77,1.09,3.48,1.65,5.22-.15.11-.3.23-.47.38-2.03-1.1-4.23-1.86-5.23-4.47-.75-1.61-1.69-3.11-2.82-4.49-1.29-1.78-1.97-3.54-1-5.74.27-.75.2-1.57-.18-2.26-.84-1.05-.79-2.55.12-3.54.8-1.1,1.38-2.37,2.17-3.48,2.85-3.88,2.09-8.03.97-12.21-.11-.49-.8-1.21-1.17-1.16-.61.16-1.11.59-1.35,1.16-.41,1.58-1.17,1.36-2.23.7-1.35-.84-3-1.36-4-2.49-1.51-1.9-2.88-3.9-4.11-5.98-.29-.43-.55-1.25-.88-1.28-3.02-.2-4.7-2.52-6.82-4.05-1.06-.88-2.49-1.17-3.82-.79-1.39.36-2.86.24-4.17-.35-2.57-1.46-5-3.14-7.28-5.02-.13-.13-.24-.27-.33-.43-.29-.68-.39-1.42-.3-2.15.35-1.84-.08-3.74-1.2-5.25-1.92-2.8-3.11-6.03-3.47-9.4-.09-.61-.8-1.16-1.17-1.74-.26.69-.8,1.42-.74,2.08.41,2.76,1.05,5.52,1.6,8.24.12.64.18,1.28.26,1.92-.35.29-.7.55-1.05.79-.1-.54-.25-1.07-.44-1.58-.68-1.45-1.41-2.87-2.12-4.32-.07-.12-.1-.25-.11-.38,0-2.26.06-4.5,0-6.76,0-.95-.06-2.23-.65-2.75-.3-.25-.55-.56-.74-.9,14.04-2.55,33.22-4.5,55.28-5.48-.17.09-.35.17-.53.24-3.94,1.51-6.64,4.12-6.2,8.81.13,1.7.08,3.41-.14,5.1-.06.55-.89,1.02-1.38,1.51-.56-.53-1.38-.99-1.6-1.63-.18-1.07-.24-2.16-.18-3.25.06-.68-.03-1.36-.26-2-.8-1.58-6.43-2.06-7.37-.66-1.21,1.77-2.47,1.82-4.23.9-.86-.45-1.87-.54-2.79-.24-3.06,1.31-5.97,2.85-7.02,6.44-.56,1.83-1.7,3.49-2.09,5.31-.34,1.59-.28,3.23.18,4.79.49,1.95,2.26,3.32,4.29,3.34,2.2.06,3.4-1.25,4.61-2.96.88-1.17,2.06-2.09,3.4-2.67,1.6-.69,2.35.15,1.82,1.86s-1.26,3.53-1.85,5.3v.12c-.23.69-.38,1.42-.59,2.26,1.5.17,2.71.26,3.94.47,1.28.06,2.27,1.14,2.21,2.4,0,.11-.02.21-.04.32-.18,2.04-.41,4.09-.47,6.12-.09,2.82,1.97,4.03,4.64,3.16,1.31-.33,2.69-.24,3.94.26,1.41.58,2.32.53,2.84-.79,1.06-2.67,4.26-2.82,5.76-4.99.21-.26,1-.12,1.41-.14-.35,1.91-.67,3.65-1.02,5.4l.88.17c.26-.99.47-1.97.74-2.99.5-1.94,1.6-2.26,3.2-1.02,2.48,2,5.65,2.98,8.85,2.73,1.53-.09,2.93-1.48,4.79-1.97-.15.43-.18,1.01-.47,1.3-1.47,1.3-1.03,2.29.35,3.27.39.28.72.65.93,1.07,1.45,3.11,4.15,4.01,7.26,4.32,3.72.41,5.59,2.06,6.54,5.71.07.41.22.79.45,1.14,1.2,1.42.62,2.63-.33,3.86-.76.95-1.44,1.97-2.09,2.87,1.48.33,2.99.57,4.5.73.68-.04,1.34-.26,1.91-.64,3.37-2,5.28-1.14,5.78,2.61,4.79-1.42,9.13-.06,13.16,2.23,3.02,1.75,3.2,4.95.85,7.53Z"/><path class="cls-1_global-warming-1-73" d="M336.62,267.57c-6.52-1.31-14.31-2.47-23.17-3.46.76-.64,1.47-1.39,2.35-2.18,2.14,1.89,4.7,1.58,7.46.47,1.11-.47,2.58-.2,3.84-.11,1.89.14,3.71.58,5.59.63s2.79.79,3.05,2.44c.12.79.41,1.55.87,2.21Z"/><path class="cls-32_global-warming-1-73" d="M359.52,310.21c.33,1.94.52,3.9.56,5.86.01,1.56-.22,3.12-.7,4.61-1.47,4.41-2.12,9.05-3.4,13.51-2.44,8.51-5.85,16.71-10.17,24.46-1.3,2.35-3.35,4.21-5.84,5.28-1.14.52-2.17,1.25-3.26,1.82-.56.29-1.15.5-2.12.9.18-.9.12-1.48.38-1.74,1.6-1.66,1.88-3.39.62-5.36-.11-.18-.16-.38-.14-.58.47-7.1-1.09-14.62,3.84-20.97.35-.72.48-1.53.38-2.32,0-1.63-.35-3.31-.12-4.9.24-1.81-.39-3.62-1.7-4.91-1.73-1.85-1.73-3.71-.88-5.82.42-.86.71-1.78.85-2.73,0-.5-.59-1.04-.97-1.54-.18-.23-.62-.4-.62-.64-.14-1.48-1.03-1.45-2.23-1.36-.66-.07-1.25-.46-1.56-1.04-.56-1.39-1.6-2.03-2.91-1.65-2.06.54-4,1.42-6.02,2.15-.73.33-1.52.52-2.32.54-2.27-.39-4.61-.04-6.67.99-.83.24-1.73.09-2.44-.4-2.73-1.92-5.03-4.12-6.26-7.42-.65-1.83-2.44-3.22-3.59-4.91-.63-.88-1.05-1.89-1.23-2.95-.34-2.56.06-5.17,1.14-7.52h0c.56-1.22.09-3.16-.44-4.53-.85-2.32-.85-4.5.56-6.44,2.21-2.99,4.67-5.74,6.87-8.73.82-1.12,1.37-2.42,1.6-3.79.23-1.45.58-2.52,1.94-3.34.28-.17.54-.35.8-.55,8.84.99,16.63,2.15,23.17,3.46.9,1.24,2.19,2.16,3.67,2.61,1.15.46,2.03,1.53,3,2.37.47.41.8,1.05,1.33,1.28,1.01.36,2.04.66,3.08.9.21-.9.38-1.77.65-3.16.91.29,2,.52,2.96.93,1.7.79,3.38,1.58,4.99,2.44.52.25.93.7,1.12,1.25.18.79.35,1.58.5,2.37,1.1,5.08,1.84,10.22,2.21,15.4.21,2.98.3,5.97.23,8.96.08,1.27-.12,2.55-.58,3.74-.43,1.12-.52,2.33-.28,3.49Z"/><path class="cls-30_global-warming-1-73" d="M212.83,286.03c-2.76-2.25-5.69-4.07-9.16-4.84-1.08-.23-2.21-.2-3.28.09-.95.41-1.84.94-2.64,1.58l.53.74,1.49-.53c1.77-.61,5.59.53,6.39,1.89,1.35,2.41,4.26,2.96,6.66,1.08Z"/><path class="cls-36_global-warming-1-73" d="M214.91,290.18c1.68-.09,3.36-.08,5.03-.28.49-.23.82-.69.87-1.21-.38-1.47-5.97-2.71-6.34-1.42-.53,1.82-1.96,1.58-3.09,2.05,0,.24-.07.47-.1.71.7.1,1.41.25,2.11.29.51-.02,1.02-.07,1.53-.14Z"/><path class="cls-37_global-warming-1-73" d="M207.39,346.59l4.22,5.36c1.28-2.93.25-3.98-4.22-5.36Z"/><path class="cls-35_global-warming-1-73" d="M233.47,294.62c-.51-.99-.98-2.31-3.28-1.9,3.48,2.13,2.18,4.78,1.43,7.42.86-1.85,3.04-3.24,1.85-5.51Z"/><path class="cls-33_global-warming-1-73" d="M224.83,290.82c.3.12.89-.5,1.36-.79l-2.12-1.94-1.68,1.25c.76.57,1.58,1.07,2.44,1.48Z"/><path class="cls-34_global-warming-1-73" d="M248.14,325.18l1.43,1.73c.68-.79,1.37-1.21,1.48-1.78.06-.32-.89-1.18-1.3-1.14-.58.06-1.07.76-1.61,1.18Z"/><path class="cls-16_global-warming-1-73" d="M205.49,290.24l2.76.79c.1-.41.22-.79.32-1.23-.87-.17-1.73-.39-2.61-.47-.13-.05-.31.58-.47.92Z"/><path class="cls-39_global-warming-1-73 targetColor" d="M359.82,277.26c0,.44-.13.87-.35,1.25l-.09.17c-3.29,5.48-25.11,10.18-56.4,12.82-16.78,1.39-36.36,2.2-57.22,2.2-4.38,0-8.69,0-12.95-.12h-1.6c-14.38-.26-27.91-.9-40.07-1.86-8.84-.69-16.95-1.53-24.15-2.55-18.68-2.58-31.31-6.06-34.49-9.98-.46-.54-.73-1.21-.76-1.91,0-1.07.7-2.12,2.09-3.11,3.58-2.7,11.6-5.14,22.88-7.16,14.21-2.55,33.66-4.5,55.99-5.48,10.46-.47,21.57-.69,33.05-.69,25.82,0,49.58,1.21,68.72,3.31,8.96.99,16.83,2.15,23.44,3.46,10.34,2.03,17.47,4.43,20.41,7.04.86.61,1.41,1.57,1.49,2.62Z" style="fill: rgb(104, 225, 253);"/><path class="cls-13_global-warming-1-73" d="M359.82,277.26c0,.44-.13.87-.35,1.25l-.09.17c-3.29,5.48-25.11,10.18-56.4,12.82-16.78,1.39-36.36,2.2-57.22,2.2-4.38,0-8.69,0-12.95-.12h-1.6c-14.38-.26-27.91-.9-40.07-1.86-8.84-.69-16.95-1.53-24.15-2.55-18.68-2.58-31.31-6.06-34.49-9.98-.46-.54-.73-1.21-.76-1.91,0-1.07.7-2.12,2.09-3.11,3.58-2.7,11.6-5.14,22.88-7.16,14.21-2.55,33.66-4.5,55.99-5.48,10.46-.47,21.57-.69,33.05-.69,25.82,0,49.58,1.21,68.72,3.31,8.96.99,16.83,2.15,23.44,3.46,10.34,2.03,17.47,4.43,20.41,7.04.86.61,1.41,1.57,1.49,2.62Z"/></g><g id="factory_global-warming-1-73"><path class="cls-39_global-warming-1-73 targetColor" d="M161.89,255.17c-.94-5.05-3.56-10.03-7.99-12.68,3.09,1.7,5.94,3.77,8.51,6.17,3.41-6.3,1.01-14.13-5.36-17.5-2.26-1.19-4.82-1.71-7.37-1.48,1.29-.05,2.54-.44,3.62-1.14-1.77-3.51-3.16-7.2-4.15-11,1.51,3.4,3.32,6.65,5.43,9.72l1.21-6.4c-.58,2.12-1.17,4.36-.62,6.5s2.64,4.05,4.79,3.61c2.24-6.22-2.87-13.85-9.53-14.25,2.98-.74,6.12.49,7.77,3.05l.04-6.79c-.48,4.14.91,8.27,3.8,11.31l14.05-13.53c-2.31,3.64-5.23,6.86-8.64,9.53l5.47,2.96c-1.91,2.05-5.52-2.37-7.85-.84-.48.37-.84.87-1.05,1.44-1.27,2.88-1.55,6.1-.8,9.15,2.25-1.33,3.93-3.42,4.74-5.89-1.82,4.02-2.28,8.51-1.31,12.8,3.13-6.01,7.28-11.45,12.26-16.08-7.72,7.04-12.8,16.46-14.38,26.72,4-.79,7.1-3.94,8.79-7.6s2.22-7.66,2.7-11.62l-.5,5.29c4.8-1.06,9.47-2.63,13.93-4.69-3.42,4.18-10.55,4.17-13.44,8.68-1.16,1.81-1.45,4.13-2.88,5.74-1.1,1.23-2.73,1.87-4.05,2.89-2.79,2.15-3.92,5.89-3.76,9.39.17,3.49,1.45,6.83,2.72,10.1-1.92.7-3.9,1.25-5.91,1.63-.86-4.76.62-10.15-.24-15.21Z" style="fill: rgb(104, 225, 253);"/><path class="cls-39_global-warming-1-73 targetColor" d="M345.92,250.47c-4.06-5.42-10.51-8.6-17.34-8.53-4.89.09-10.13,1.81-14.45-.47-3.92-2.07-5.55-6.63-7.81-10.4s-6.79-7.3-10.79-5.4c-5.5,2.63-4.23,12.79-10.16,14.2-3.04.73-6.22-1.58-9.26-.79-4.71,1.17-4.73,7.71-7.14,11.88-2.09,3.64-6.22,5.52-9.7,7.89-3.48,2.37-6.7,6.37-5.52,10.39,1.5,5.07,8.32,5.9,13.67,5.74l43.88-1.33,17.58-.53c4.55-.13,12.26,1.1,16.49-.79,7.81-3.59,4.52-16.46.55-21.88Z" style="fill: rgb(104, 225, 253);"/><path class="cls-14_global-warming-1-73" d="M345.92,250.47c-4.06-5.42-10.51-8.6-17.34-8.53-4.89.09-10.13,1.81-14.45-.47-3.92-2.07-5.55-6.63-7.81-10.4s-6.79-7.3-10.79-5.4c-5.5,2.63-4.23,12.79-10.16,14.2-3.04.73-6.22-1.58-9.26-.79-4.71,1.17-4.73,7.71-7.14,11.88-2.09,3.64-6.22,5.52-9.7,7.89-3.48,2.37-6.7,6.37-5.52,10.39,1.5,5.07,8.32,5.9,13.67,5.74l43.88-1.33,17.58-.53c4.55-.13,12.26,1.1,16.49-.79,7.81-3.59,4.52-16.46.55-21.88Z"/><path class="cls-39_global-warming-1-73 targetColor" d="M286.41,270.01l4.69-78.94h7.99l4.69,80.85s-10.75,3.27-17.37-1.91Z" style="fill: rgb(104, 225, 253);"/><polygon class="cls-39_global-warming-1-73 targetColor" points="172.41 272.19 219.97 272.19 219.97 242.38 172.41 234.22 172.41 272.19" style="fill: rgb(104, 225, 253);"/><polygon class="cls-15_global-warming-1-73" points="172.41 272.19 219.97 272.19 219.97 244.56 172.41 236.4 172.41 272.19"/><path class="cls-39_global-warming-1-73 targetColor" d="M262.42,270.01l4.69-78.94h7.99l4.69,80.85s-10.75,3.27-17.37-1.91Z" style="fill: rgb(104, 225, 253);"/><path class="cls-24_global-warming-1-73" d="M262.42,270.01l4.69-78.94h7.99l4.69,80.85s-10.75,3.27-17.37-1.91Z"/><path class="cls-20_global-warming-1-73" d="M286.61,270.01l4.67-78.94h7.99l4.69,80.85s-10.74,3.27-17.35-1.91Z"/><path class="cls-18_global-warming-1-73" d="M267.93,183.56c1.37-2.54,3.58-4.87,3.64-7.75-4.9-1.53-9.83-3.44-13.62-6.87-3.8-3.43-6.26-8.68-5.12-13.61,1.6-6.86,8.88-10.52,15-14.14,2.15-1.27,4.33-2.74,5.48-4.94,2.14-4.09,0-9.04.3-13.64.34-5.63,4.38-10.56,9.31-13.41,6.85-3.94,15.1-4.49,23.03-4.92l51.66-2.84c5.19-.28,11.43-.06,14.16,4.31,1.56,2.49,1.41,5.75.32,8.47s-3.04,5.03-4.99,7.23c-3.18,3.58-6.47,7.06-9.88,10.45-4,3.94-8.16,7.75-13.14,10.3-12.06,6.2-26.75,4.17-39.73,8.18-3,.93-6.3,2.67-6.78,5.74-.63,4.06,4.06,7.01,5.04,11.04.89,3.63-1.6,7.41-4.89,9.24s-7.19,2.12-10.99,2.28-7.67.24-11.15,1.7c-1.15.36-2.09,1.19-2.59,2.27-.92,2.77,3.28,5.82,1.6,8.2-1.16,1.62-4.67,1.15-6.07,0-2.19-1.71-1.75-5.15-.59-7.31Z"/><path class="cls-17_global-warming-1-73" d="M291.92,183.56c1.37-2.54,3.58-4.87,3.64-7.75-4.91-1.53-9.83-3.44-13.58-6.87-3.76-3.43-6.26-8.68-5.12-13.61,1.6-6.86,8.88-10.52,14.99-14.14,2.16-1.27,4.34-2.74,5.49-4.94,2.14-4.09,0-9.04.3-13.64.34-5.63,4.37-10.56,9.31-13.41,6.84-3.94,15.1-4.49,23.03-4.92l51.61-2.84c5.19-.28,11.43-.06,14.16,4.31,1.6,2.49,1.41,5.75.32,8.47s-3.04,5.03-4.99,7.23c-3.17,3.58-6.46,7.06-9.87,10.45-4,3.94-8.16,7.75-13.14,10.3-12.06,6.2-26.75,4.17-39.73,8.18-3,.93-6.3,2.67-6.78,5.74-.63,4.06,4.06,7.01,5.04,11.04.89,3.63-1.6,7.41-4.89,9.24-3.29,1.83-7.19,2.12-10.99,2.28s-7.66.24-11.14,1.7c-1.15.36-2.09,1.19-2.59,2.27-.92,2.77,3.28,5.82,1.6,8.2-1.16,1.62-4.67,1.15-6.07,0-2.19-1.71-1.75-5.15-.59-7.31Z"/><polygon class="cls-39_global-warming-1-73 targetColor" points="222.17 271.1 262.42 271.1 262.42 212.85 221.62 212.85 222.17 271.1" style="fill: rgb(104, 225, 253);"/><polygon class="cls-23_global-warming-1-73" points="222.17 271.1 262.42 271.1 262.42 212.85 221.62 212.85 222.17 271.1"/><rect class="cls-19_global-warming-1-73" x="228.92" y="222.38" width="6.48" height="6.4"/><rect class="cls-26_global-warming-1-73" x="238.98" y="222.38" width="6.48" height="6.4"/><rect class="cls-22_global-warming-1-73" x="249.05" y="222.38" width="6.48" height="6.4"/><rect class="cls-25_global-warming-1-73" x="228.92" y="233.13" width="6.48" height="6.4"/><rect class="cls-21_global-warming-1-73" x="238.98" y="233.13" width="6.48" height="6.4"/><rect class="cls-28_global-warming-1-73" x="249.05" y="233.13" width="6.48" height="6.4"/><rect class="cls-12_global-warming-1-73" x="228.92" y="243.88" width="6.48" height="6.4"/><rect class="cls-29_global-warming-1-73" x="238.98" y="243.88" width="6.48" height="6.4"/><rect class="cls-27_global-warming-1-73" x="249.05" y="243.88" width="6.48" height="6.4"/><rect class="cls-11_global-warming-1-73" x="228.92" y="254.64" width="6.48" height="6.4"/><rect class="cls-4_global-warming-1-73" x="238.98" y="254.64" width="6.48" height="6.4"/><rect class="cls-6_global-warming-1-73" x="249.05" y="254.64" width="6.48" height="6.4"/><polygon class="cls-39_global-warming-1-73 targetColor" points="260.36 278.31 195.01 278.31 195.01 260.35 207.22 260.35 235.54 242.38 235.4 260.35 260.15 242.79 260.36 260.35 260.36 278.31" style="fill: rgb(104, 225, 253);"/><polygon class="cls-7_global-warming-1-73" points="260.36 278.31 195.01 278.31 195.01 260.35 207.22 260.35 235.54 242.38 235.4 260.35 260.15 242.79 260.36 260.35 260.36 278.31"/><path class="cls-5_global-warming-1-73" d="M210.59,273.89c-.62-.16-1.37-.59-1.83-.39s-.8.99-1.04,1.58c-.17.39-.27.82-.28,1.25-.04.79,0,1.58,0,2.37l.57-.22c.67-.9,1.41-1.75,1.98-2.7.27-.6.47-1.23.6-1.88Z"/><rect class="cls-3_global-warming-1-73" x="215.69" y="266.07" width="9.92" height="5.31"/><rect class="cls-9_global-warming-1-73" x="238.95" y="266.07" width="9.92" height="5.31"/><rect class="cls-39_global-warming-1-73 targetColor" x="263.87" y="262.6" width="12.82" height="5.31" style="fill: rgb(104, 225, 253);"/><polygon class="cls-39_global-warming-1-73 targetColor" points="260.63 277.36 286.69 277.36 286.69 261.03 260.63 256.56 260.63 277.36" style="fill: rgb(104, 225, 253);"/><polygon class="cls-10_global-warming-1-73" points="260.63 277.36 286.69 277.36 286.69 262.23 260.63 257.75 260.63 277.36"/><polygon class="cls-39_global-warming-1-73 targetColor" points="286.54 277.36 312.6 277.36 312.6 261.03 286.54 256.56 286.54 277.36" style="fill: rgb(104, 225, 253);"/><polygon class="cls-8_global-warming-1-73" points="286.54 277.36 312.6 277.36 312.6 262.23 286.54 257.75 286.54 277.36"/><path class="cls-39_global-warming-1-73 targetColor" d="M144.54,256.75c-.42-5.62-1.83-11.27-4.93-16.01,2.97,2.01,4.83,5.25,5.07,8.8.72-10.35,1.53-20.68,2.44-31,1.73,6.72-1.65,13.73-1.19,20.65,2.33-2.21,4.84-4.24,7.49-6.07-.39,2.15-2.84,3.16-4.39,4.73-2.28,2.28-2.56,5.78-2.72,8.98-.39,8.09-.8,16.33,1.25,24.19.18.49.22,1.02.13,1.54-.46,1.07-1.7,1.57-2.79,1.11-.22-.09-.42-.22-.59-.37-.8-.91-.07-3.49,0-4.51.38-4,.46-8.03.22-12.04Z" style="fill: rgb(104, 225, 253);"/><path class="cls-39_global-warming-1-73 targetColor" d="M338.84,262.94c-.87-.99-1.94-1.79-3.14-2.37-4.05-2.13-10.2-1.91-11.99,2.26.99-2.22,2.34-4.27,4-6.07-1.82-.39-3.48-1.29-4.79-2.59,4.22-.03,8.24,1.8,10.97,4.99l.18-4.73c.06,3.6,2.97,6.53,6.62,6.64-.46-2.94-1.21-5.83-2.24-8.63-.54-1.48-1.23-3.01-2.56-3.89-1.11-.63-2.36-.96-3.64-.97-5.2-.39-11.3.83-13.71,5.39,3.55-2.78,3.47-8.94-.14-11.63,2.88,3.7,7.7,5.35,12.28,4.2-.85-3.91-4.2-6.8-8.24-7.1l5.46.17-1.01-5.44c1.21,4.39,3.04,9.41,7.42,10.78.7.15,1.37.39,2.01.71,1.78,1.11,1.66,3.94,3.29,5.22,1.5-4.12,2.57-8.38,3.2-12.72.24-1.25.24-2.54,0-3.79-.92-3.7-5.48-5.73-6.22-9.47l5.28,6.31c1.48-1.42,2.5-3.24,2.94-5.22-.33,1.48-1.23,2.78-1.6,4.26s0,3.35,1.39,3.94c2.58,1.03,4.91-3.16,7.61-2.48-5.04,1.6-8.6,6.07-8.99,11.28l9.8-.84c-4.08.32-8.93,1.14-10.61,4.84-.69,1.51-.69,3.23,0,4.73.14.33.35.62.62.85,1.45,1.1,3.14-1.08,3.64-2.82-1.83.95-.39,4.09,1.67,4.24s3.79-1.42,5.24-2.87l10.96-10.99c-1.35,3.57-3.54,6.78-6.39,9.35l2.96,2.97c-1.6.13-2.6-2.22-4.23-2.09-1.16.1-1.73,1.39-2.4,2.32-2.44,3.31-7.53,2.75-11.59,1.83.08,3.67.61,7.32,1.6,10.86l5.55-4.43c-2.94,2.18-5.47,5.07-6.47,8.56-1,3.49-.23,7.61,2.51,10.02,0-.12-6.08-1-6.64-1.12.09-4.87,3.15-9.88-.62-14.46Z" style="fill: rgb(104, 225, 253);"/></g></svg>