<svg version="1.1" id="Layer_1" xmlns="http://www.w3.org/2000/svg" xmlns:xlink="http://www.w3.org/1999/xlink" x="0px" y="0px" viewBox="0 0 500 500" style="width: 166px;" xml:space="preserve" data-imageid="presentation-2-51" imageName="Presentation 2" class="illustrations_image">
<style type="text/css">
	.st0_presentation-2-51{fill:#0DD280;}
	.st1_presentation-2-51{fill:url(#SVGID_1_);}
	.st2_presentation-2-51{fill:url(#SVGID_00000048470219953827701700000007714700778698659490_);}
	.st3_presentation-2-51{fill:url(#SVGID_00000001658264062116753130000004195812982193141907_);}
	.st4_presentation-2-51{fill:#008074;}
	.st5_presentation-2-51{fill:#FF666D;}
	.st6_presentation-2-51{fill:#EDBAB9;}
	.st7_presentation-2-51{fill:#FFE0DE;}
	.st8_presentation-2-51{fill:#4BE2C5;}
	.st9_presentation-2-51{fill:#4079A0;}
	.st10_presentation-2-51{fill:#68E1FD;}
	.st11_presentation-2-51{fill:#FFC963;}
	.st12_presentation-2-51{fill:#F2F2F2;}
	.st13_presentation-2-51{fill:none;}
	.st14_presentation-2-51{fill:url(#SVGID_00000005968876389751469310000007735277800131670179_);}
	.st15_presentation-2-51{fill:url(#SVGID_00000064321421844296676770000009493127869881963698_);}
	.st16_presentation-2-51{opacity:0.7;fill:#008074;enable-background:new    ;}
</style>
<path id="Base_presentation-2-51" class="st0_presentation-2-51" d="M456.8,348.2l-158.6,91.6c-8.1,4.7-18,4.7-26.1,0L52.7,313.1c-5-2.9-6.8-9.4-3.8-14.4&#10;&#9;c0.9-1.6,2.2-2.9,3.8-3.8l162.9-94.5c4.2-2.4,9.5-2.4,13.7,0l227.5,131.3c4.6,2.6,6.1,8.5,3.5,13&#10;&#9;C459.4,346.2,458.2,347.4,456.8,348.2z"/>
<g id="Shadow_presentation-2-51">
	
		<linearGradient id="SVGID_1_-presentation-2-51" gradientUnits="userSpaceOnUse" x1="255.5504" y1="783.2242" x2="226.1804" y2="800.7642" gradientTransform="matrix(1 0 0 1 0 -498)">
		<stop offset="0" style="stop-color:#008074"/>
		<stop offset="1" style="stop-color:#F2F2F2;stop-opacity:0"/>
	</linearGradient>
	<path class="st1_presentation-2-51" d="M248.1,274.7c-11.5,6.7-19.7,11.2-37.3,21.3c13.4,8.1,23.7,15.6,25.2,16.5l39.6-23.3&#10;&#9;&#9;C272.6,287.5,262.4,281.7,248.1,274.7z"/>
	
		<linearGradient id="SVGID_00000109726774827198960210000003395643952876212889_-presentation-2-51" gradientUnits="userSpaceOnUse" x1="163.3928" y1="837.7216" x2="123.5128" y2="861.5516" gradientTransform="matrix(1 0 0 1 0 -498)">
		<stop offset="0" style="stop-color:#008074"/>
		<stop offset="1" style="stop-color:#F2F2F2;stop-opacity:0"/>
	</linearGradient>
	<path style="fill:url(#SVGID_00000109726774827198960210000003395643952876212889_);" d="M134.7,359.9c5,2.9,9.8,6.1,14.5,9.4&#10;&#9;&#9;l41.4-24.3c-4.2-2.2-18-10-37.4-19.6c-12.8,7.5-22.7,13-39.2,22.3C120.4,352.5,127.7,355.9,134.7,359.9z"/>
	
		<linearGradient id="SVGID_00000034071213548417851610000014603674373100110996_-presentation-2-51" gradientUnits="userSpaceOnUse" x1="248.9496" y1="886.8796" x2="209.0596" y2="910.7096" gradientTransform="matrix(1 0 0 1 0 -498)">
		<stop offset="0" style="stop-color:#008074"/>
		<stop offset="1" style="stop-color:#F2F2F2;stop-opacity:0"/>
	</linearGradient>
	<path style="fill:url(#SVGID_00000034071213548417851610000014603674373100110996_);" d="M220.6,410.6c4.4,3,9.3,5.2,13.8,8&#10;&#9;&#9;l41.8-24.5c-4.2-2.2-18-10-37.4-19.6c-12.9,7.6-22.9,13.1-39.6,22.6C206.8,400.7,213.6,405.8,220.6,410.6z"/>
</g>
<g id="Character_Female_presentation-2-51">
	<path class="st4_presentation-2-51" d="M260.9,381.3c-0.6-0.1-2.6-0.1-3.4-0.1c-2.3,1.8-5.3,2.4-7.9,2.7c-3.4,0.5-6.9-0.3-9.8-2.2&#10;&#9;&#9;c-0.3,3-0.6,5.3-0.6,5.3c-0.3,4,5,3.2,7,3.1c3.9-0.2,7.8-0.8,11.6-1.8c1.5-0.4,6.3-1.1,6.6-3.6S263.8,381.6,260.9,381.3z"/>
	<path class="st5_presentation-2-51" d="M251.7,366.8c0,0-3.1,14.2-1.6,14.2s10.8,0.3,10.8,0.3c-1.7,3.6-5.2,6-9.2,6.4c-7,1-12-6.1-12-6.1l2.8-17.8"/>
	<path class="st6_presentation-2-51" d="M238.6,360.2l-2.1,11.4c0,0,3.3,3.4,14.2,3c11-0.4,0-20.1,0-20.1"/>
	<path class="st6_presentation-2-51" d="M232.1,332.7c0,0,12.3-9.9,20.4-11c8.2-1.1,12.4,7.7,11.8,13.6s-20.1,9.1-20.1,9.1"/>
	<path class="st4_presentation-2-51" d="M272.3,389.8c-0.6-0.1-2.6-0.1-3.4-0.1c-2.3,1.8-5.3,2.4-8,2.7c-3.2,0.4-7-0.1-9.8-2.2c-0.3,3-0.6,5.3-0.6,5.3&#10;&#9;&#9;c-0.3,4,5,3.2,7,3.2c3.9-0.2,7.8-0.8,11.6-1.8c1.5-0.4,6.4-1.1,6.6-3.6S275.2,390.1,272.3,389.8z"/>
	<path class="st5_presentation-2-51" d="M263.2,375.3c0,0-3.1,14.3-1.6,14.2s10.8,0.3,10.8,0.3c-1.8,3.6-5.2,6-9.2,6.4c-7,1-12-6.1-12-6.1l2.8-17.8"/>
	<path class="st6_presentation-2-51" d="M232.9,333.2c0,0,12.3-9.8,20.4-11c8.1-1.2,12.4,7.7,11.8,13.6s-20.1,9.1-20.1,9.1"/>
	<path class="st7_presentation-2-51" d="M239.5,336.4c1.6-1.5,22.4-11.2,29.7-6.8s6.9,7.7,5.9,13.1s-8,34.5-8,34.5s-7,3.3-16.7,0.8l2.1-21.6&#10;&#9;&#9;l-27.7-15.1"/>
	<polygon class="st4_presentation-2-51" points="239.6,334.2 246.2,339.1 274.3,324.7 255.5,311.3 229.2,326.2 &#9;"/>
	<path class="st8_presentation-2-51" d="M211.6,318.1c0,0-0.4-16.5,7.1-16.8s17.4,5.1,17.9,13.9s2,25.1,2,28.2s-5.5,14.4-5.5,14.4"/>
	<path class="st5_presentation-2-51" d="M260.4,318.4l0.1-0.1c0.5-0.3,0.7-1,0.4-1.5c-0.3-0.5-1-0.7-1.5-0.4l0,0l-0.3,0.2c0-0.6-0.5-1.1-1.1-1.1&#10;&#9;&#9;c-0.2,0-0.4,0-0.5,0.1c-1.2,0.6-2.5,1.2-3.7,1.9c0.2-0.2,0.3-0.4,0.5-0.6c0.7-0.9-0.2-2.4-1.3-1.7c-1.5,0.9-2.9,1.9-4.4,2.9&#10;&#9;&#9;c-0.5,0.4-0.6,1.1-0.3,1.6c0,0,0,0,0,0.1l-0.2,0.2c-0.5,0.3-0.6,1-0.3,1.5c-0.1,0.3-0.1,0.7,0.1,1c-0.7,0.5-0.3,1.5,0.4,1.8&#10;&#9;&#9;l0.1,0.1l-1.3,0.5c-1.3,0.5-0.7,2.5,0.6,2.1l6.5-2.3c1.7-0.6,3.4-1.1,4.6-2.5c0.3-0.3,0.4-0.8,0.2-1.2c0.5-0.2,0.9-0.5,1.3-0.9&#10;&#9;&#9;s0.4-1,0.1-1.4C260.6,318.5,260.5,318.4,260.4,318.4z"/>
	<path class="st8_presentation-2-51" d="M233.7,322.5c0,0,11.8-4.8,15.3-5.8c0,0,3.6,2.5,2.6,9.2c0,0-10.6,10.8-17.2,14.1"/>
	<path class="st5_presentation-2-51" d="M224.5,298.9c0.3-0.4,0.3-1-0.1-1.4c-0.5-0.7-1.1-1.2-1.8-1.5c-0.9-0.3-1.8,0.2-2,1.1v0.1&#10;&#9;&#9;c-0.2,1.5,0.9,2.9,2.4,3c0.3,0,0.5,0,0.8,0C224.3,300,224.7,299.4,224.5,298.9L224.5,298.9z"/>
	<ellipse class="st4_presentation-2-51" cx="226.2" cy="391.3" rx="15.6" ry="5.8"/>
	<polyline class="st4_presentation-2-51" points="223.6,365.3 224.2,388.7 228.9,388.7 228.9,365.3 &#9;"/>
	<path class="st5_presentation-2-51" d="M204.8,352.1c-0.5-1.1-0.9-2.3-1.2-3.5c-2.3-9.1-3.9-43.4,11.6-42c16.9,1.5,11.2,43.9,28.4,42.6&#10;&#9;&#9;s24.2,3.2,17.2,9.8C246.7,372.2,213.4,372.5,204.8,352.1z"/>
	<path class="st5_presentation-2-51" d="M227,286.6c0,0,5.6,11.9,1.9,15.4c-2.6,2.5-7.8,2.3-10.5-2.2S221.9,284.4,227,286.6z"/>
	<path class="st4_presentation-2-51" d="M221.5,297.9c3-2.7,5-6.4,5.5-10.5c0.6-6.3-13.4-4.1-15.7,2s1.1,15.1,10.5,13.8L221.5,297.9z"/>
	<path class="st4_presentation-2-51" d="M215,298.7c-1,0.8-25.5,25.9-12.8,34.3c10.6,7,14.7-29.7,14.7-32.5"/>
</g>
<g id="Screen_presentation-2-51">
	<path class="st9_presentation-2-51" d="M328.1,189.4l-46.5,44.8c-0.7,0.6-0.7,1.7,0,2.3c0.6,0.7,1.7,0.7,2.3,0l46.5-44.8c0.6-0.7,0.6-1.7-0.1-2.3&#10;&#9;&#9;C329.7,188.9,328.8,188.9,328.1,189.4z"/>
	<path class="st9_presentation-2-51" d="M317,203.7l13.6,63.1c0.2,0.9,1.1,1.5,2,1.3s1.5-1.1,1.3-2l0,0L320.2,203c-0.2-0.9-1.1-1.5-2-1.3&#10;&#9;&#9;C317.4,201.9,316.8,202.8,317,203.7z"/>
	<path class="st9_presentation-2-51" d="M313.7,190.4l-2.7,64.5c0,0.9,0.7,1.7,1.6,1.7s1.7-0.7,1.7-1.6l2.7-64.5c0-0.9-0.7-1.7-1.6-1.7&#10;&#9;&#9;C314.5,188.8,313.7,189.5,313.7,190.4z"/>
	<polygon class="st10_presentation-2-51 targetColor" points="240,49.5 240,179.5 434.3,289.3 434.3,165.4 &#9;" style="fill: rgb(104, 225, 253);"/>
	<polygon class="st8_presentation-2-51" points="239.4,135.4 239.4,165.3 239.9,165.5 248.4,150.1 253.3,142.2 &#9;"/>
	<path class="st5_presentation-2-51" d="M259.7,162.7l-5.4-6c-0.4-0.4-0.8-0.8-1.2-1.3c-0.3-0.8-0.4-1.7-0.4-2.5c-0.1-1.2-0.3-2.5-0.7-3.6&#10;&#9;&#9;c-0.2-0.8-1-1.2-1.8-1c-0.6,0.2-1,0.7-1.1,1.4c0,0.8,0,1.5,0.1,2.3c-0.4-0.4-0.9-0.8-1.3-1.2c-1.8,3.2-3.6,6.4-5.5,9.5&#10;&#9;&#9;c1.1,0.1,2.1,0.1,3.2,0.1c3.9,2.1,7.1,5.4,10.1,8.7c0.5,0.6,1.4,0.6,1.9,0.1c0.2-0.2,0.3-0.4,0.4-0.6c0.2,0,0.3-0.1,0.4-0.1h0.1&#10;&#9;&#9;c0.7-0.4,0.9-1.3,0.5-2v-0.1c-0.1-0.3-0.4-0.6-0.7-0.7c-0.3-0.3-0.6-0.7-0.9-1.1c0,0.1,0.1,0.1,0.2,0.2&#10;&#9;&#9;C258.9,166.2,261,164.1,259.7,162.7z"/>
	<path class="st4_presentation-2-51" d="M248.7,158.1c-0.6-0.8-1-1.8-1.1-2.8c0.1-1,0.4-2,1.1-2.7c0.2-0.4-0.3-0.7-0.6-0.3c-0.7,0.9-1.1,1.9-1.2,3.1&#10;&#9;&#9;c0.1,1.1,0.6,2.2,1.2,3.1c0.1,0.1,0.3,0.2,0.5,0.1C248.7,158.4,248.8,158.2,248.7,158.1z"/>
	<path class="st5_presentation-2-51" d="M344.1,154.6c-0.8,0.2-1.7,0.4-2.5,0.7c0.6-0.4,1-1.1,1.1-1.8c0.2-0.7-0.3-1.4-0.9-1.5c-0.3-0.1-0.6,0-0.9,0.1&#10;&#9;&#9;c-2.2,1.1-4.5,2.2-6.7,3.3c0-0.2,0.1-0.3,0.1-0.5c0.4-1,0.5-2.1,0.4-3.2c-0.5-1.9-2.2-0.8-2.9,0.6c-0.9,2-1.1,4.1-2.9,5.7&#10;&#9;&#9;c-1,0.7-2.2,1.2-3.5,1.4c-1.3,0.4-2.5,0.7-3.8,1c-0.7,0.2-1,0.9-0.8,1.6c0.1,0.4,0.4,0.7,0.8,0.8c-0.6,0.4-0.7,1.1-0.4,1.7&#10;&#9;&#9;c0.1,0.2,0.3,0.3,0.5,0.4c-0.6,0.9,0.1,2.4,1.3,1.9c3-1.2,6-2.1,9.2-2.7c3.1-0.2,6.2-0.4,9.2-0.8c1.6-0.2,1.6-2.6,0-2.5h-0.2&#10;&#9;&#9;l2.8-0.5c1.4-0.2,1.1-2.6-0.3-2.5l-0.3,0.1h-0.1l-0.9,0.1l1.3-0.4c0.8-0.1,1.5-0.6,2-1.3c0.3-0.6,0-1.4-0.6-1.7&#10;&#9;&#9;C344.7,154.5,344.4,154.5,344.1,154.6z"/>
	<path class="st4_presentation-2-51" d="M334.1,156.7c-0.1-0.1-0.2-0.2-0.4-0.1c-0.1,0.1-0.2,0.2-0.2,0.3c0.4,1.6-0.1,3.3-1.3,4.4&#10;&#9;&#9;c-0.3,0.2,0.1,0.6,0.4,0.4C334.1,160.4,334.6,158.5,334.1,156.7z"/>
	<path class="st4_presentation-2-51" d="M341.8,154.8c-2,0.5-4,1.1-6,1.9c-0.3,0.1-0.2,0.7,0.1,0.5c2-0.7,4-1.3,6-1.9c0.1,0,0.2-0.2,0.2-0.3&#10;&#9;&#9;C342.1,154.8,341.9,154.7,341.8,154.8z"/>
	<path class="st4_presentation-2-51" d="M343.2,157.6l-6.4,1c-0.4,0.1-0.2,0.6,0.1,0.5l6.4-1C343.7,158.1,343.5,157.6,343.2,157.6z"/>
	<path class="st4_presentation-2-51" d="M342,160.5c-1.7,0.1-3.4,0.2-5.2,0.2c-0.2,0-0.3,0.1-0.3,0.3s0.1,0.3,0.3,0.3c1.7-0.1,3.4-0.1,5.2-0.2&#10;&#9;&#9;C342.4,161,342.4,160.4,342,160.5z"/>
	<path class="st5_presentation-2-51" d="M286.8,206.1l3-21.2c0,0-10.9-10.8-13.4-7.7c0,0-2.6,10.6-5.3,22C276.4,201.5,281.6,203.8,286.8,206.1z"/>
	<path class="st5_presentation-2-51" d="M301.8,212.9c-1.3-8.1-2.9-16.5-5-25.6l-12.9-1.4c0.2,6.4,0.5,12.7,0.8,19.1&#10;&#9;&#9;C290.4,207.7,296.1,210.3,301.8,212.9z"/>
	<path class="st11_presentation-2-51" d="M326.5,153.8c-6.8,2.6-14.9,4.9-20.5,4.2c-7-0.9-13.8-2.6-20.4-5.1c-0.9-0.3-10.6-4-14.2-0.8&#10;&#9;&#9;s-2.6,13.6-2.6,13.6l-13.1-11.3c-4.9,1.7-6.8,6.8-7.2,11.7c0.2,0.2,0.4,0.4,0.5,0.5c0.9,1.1,1.9,2.2,2.9,3.3&#10;&#9;&#9;c4.3,4.8,9.2,10.4,15.5,12.5c2.5,0.7,5.2,0.6,7.5-0.5c1.9-0.7,4.6-3,6.7-2.2c0.5,0.2,1,0.6,1.6,0.5c1.5-0.2,3.5-2.6,4.9-3.3&#10;&#9;&#9;c3.9-2,8.5-2.4,12.9-2.6c4.7-0.2,9.4-0.7,14.1-1.6c1.4-0.3,15.8-4,16.2-3.4C328.3,163.6,327.6,160.1,326.5,153.8z"/>
	<path class="st5_presentation-2-51" d="M275.5,144c-1,4.5-0.2,10.8,4.7,11.5c6.3,0.9,7.8-3.3,7.5-8.6c-0.3-4.2-2.4-10.7-8-8.8&#10;&#9;&#9;c-1.4,0.5-2.5,1.6-3.1,2.9C276,142,275.7,143,275.5,144z"/>
	<path class="st4_presentation-2-51" d="M275.1,145c-2.6-1.3-4.1-4.1-3.9-6.9c0.3-2.8,3-6.3,6.1-5c2.1,0.9,1.5,1,1.5,1s1.2-1.7,4.1-1.5&#10;&#9;&#9;s3.5,2.1,3.5,2.1s3.4,1.1,4.3,3.3c1,2.4-1.3,9.8-2.4,11.8s-1.7-2.1-2.1-3.8c-0.3-1.3-1.2-2.5-2.5-3c-1.8-0.5-2.7,1.1-4.2,1.8&#10;&#9;&#9;C278.2,145.5,276.6,145.6,275.1,145z"/>
	<path class="st11_presentation-2-51" d="M286.9,189.2c3.9-0.2,6.1-0.3,9.8-1.8l0.6-20.8l-25.1,11.8c0,0,0.9,5,2,9.6&#10;&#9;&#9;C278.4,189.1,282.7,189.5,286.9,189.2z"/>
	
		<ellipse transform="matrix(0.9916 -0.1291 0.1291 0.9916 -21.2634 50.6031)" class="st12_presentation-2-51" cx="379.7" cy="189.3" rx="17.1" ry="32.7"/>
	<path class="st11_presentation-2-51" d="M379.7,189.3v-32.1c0,0,10.5,3.1,15.7,22.8L379.7,189.3z"/>
	<path class="st8_presentation-2-51" d="M379.7,189.3l17.4,10.2c0,0,1.1-11.4-1.7-19.5L379.7,189.3z"/>
	<line class="st13_presentation-2-51" x1="359" y1="219.2" x2="393.9" y2="238.5"/>
	<path class="st12_presentation-2-51" d="M358.6,219.8l30.6,16.9l4.4,2.4c0.8,0.5,1.6-0.8,0.8-1.3l-30.6-16.9l-4.4-2.4&#10;&#9;&#9;C358.5,218,357.8,219.3,358.6,219.8L358.6,219.8z"/>
	<line class="st13_presentation-2-51" x1="359" y1="226.8" x2="393.9" y2="246.1"/>
	<path class="st12_presentation-2-51" d="M358.6,227.4l30.6,16.9l4.4,2.4c0.8,0.5,1.6-0.8,0.8-1.3l-30.6-16.9l-4.4-2.4&#10;&#9;&#9;C358.5,225.6,357.8,226.9,358.6,227.4L358.6,227.4z"/>
	<line class="st13_presentation-2-51" x1="359" y1="234.9" x2="393.9" y2="254.2"/>
	<path class="st12_presentation-2-51" d="M358.6,235.6l30.6,16.9l4.4,2.4c0.8,0.5,1.6-0.8,0.8-1.3l-30.6-16.9l-4.4-2.4&#10;&#9;&#9;C358.5,233.8,357.8,235.1,358.6,235.6L358.6,235.6z"/>
	
		<linearGradient id="SVGID_00000146493066999227709110000005784133333859172267_-presentation-2-51" gradientUnits="userSpaceOnUse" x1="415.3844" y1="712.6313" x2="393.3944" y2="748.1014" gradientTransform="matrix(1 0 0 1 0 -498)">
		<stop offset="0" style="stop-color:#F2F2F2;stop-opacity:0"/>
		<stop offset="1" style="stop-color:#F2F2F2"/>
	</linearGradient>
	<polygon style="fill:url(#SVGID_00000146493066999227709110000005784133333859172267_);" points="409,169.6 409,263.8 416.6,268 &#10;&#9;&#9;416.6,174.3 &#9;"/>
	<path class="st12_presentation-2-51" d="M416.8,268.4l-8.1-4.4v-94.9l8.1,5.1V268.4z M409.2,263.7l7.1,3.9v-93.1l-7.1-4.5V263.7z"/>
	<line class="st13_presentation-2-51" x1="249.1" y1="71.2" x2="329" y2="117.5"/>
	<path class="st12_presentation-2-51" d="M248.8,71.9l7.9,4.6l19,11l23.1,13.4l19.9,11.6l6.6,3.8c1,0.6,2,1.3,3.1,1.8l0.1,0.1c0.4,0.2,0.8,0,1-0.4&#10;&#9;&#9;c0.1-0.3,0-0.7-0.2-0.9l-7.9-4.6l-19-11l-23.1-13.4l-19.9-11.6l-6.6-3.8c-1-0.6-2.1-1.3-3.1-1.8l-0.1-0.1c-0.4-0.2-0.8,0-1,0.3&#10;&#9;&#9;C248.3,71.2,248.5,71.7,248.8,71.9L248.8,71.9z"/>
</g>
<g id="Projector_presentation-2-51">
	<polyline class="st9_presentation-2-51" points="234,275.7 234,284.4 259.6,298.7 281.6,284.4 281.6,275.7 &#9;"/>
	<polygon class="st10_presentation-2-51 targetColor" points="234,275.7 255.9,261.2 281.6,275.7 259.1,290.6 &#9;" style="fill: rgb(104, 225, 253);"/>
	<path class="st12_presentation-2-51" d="M249.1,273.5c0,0,3.3-7.6,9.4-7c6.1,0.6,8.8,3.8,9.4,9.5c-2,2-4.6,3.3-7.5,3.8&#10;&#9;&#9;C255.3,280.7,247.6,275.9,249.1,273.5z"/>
	
		<linearGradient id="SVGID_00000159470515869073539130000009524944981103048894_-presentation-2-51" gradientUnits="userSpaceOnUse" x1="326.892" y1="721.2075" x2="291.442" y2="778.3875" gradientTransform="matrix(1 0 0 1 0 -498)">
		<stop offset="0" style="stop-color:#F2F2F2;stop-opacity:0"/>
		<stop offset="1" style="stop-color:#F2F2F2"/>
	</linearGradient>
	<path style="fill:url(#SVGID_00000159470515869073539130000009524944981103048894_);" d="M435.3,226.5L248.5,108.4l-8.5,71.1&#10;&#9;&#9;l18.4,87l8.1,4.7l167.8,18.1c0.4,0.1,0.7,0.2,1,0.3V226.5z"/>
	<circle class="st9_presentation-2-51" cx="255.4" cy="273.1" r="2.1"/>
</g>
<g id="Character_Male_presentation-2-51">
	<path class="st5_presentation-2-51" d="M170.2,329l-1.6,7.6c0,0,4.9-0.9,6.6-0.7s3.9,3.3,1.8,5.3s-5.7,1.9-9.4,2.7s-4.2,1-6.5,0.4s-2.7-3.8-2.7-3.8&#10;&#9;&#9;l1.8-13.2"/>
	<path class="st6_presentation-2-51" d="M158.2,321.6l-2.1,11.4c0,0,3.3,3.4,14.3,3s0-20.1,0-20.1"/>
	<ellipse class="st4_presentation-2-51" cx="143.9" cy="348.1" rx="15.6" ry="5.8"/>
	<polyline class="st4_presentation-2-51" points="141.3,322.1 141.9,345.5 146.6,345.5 146.6,322.1 &#9;"/>
	<path class="st5_presentation-2-51" d="M183,335.2l-1.6,7.6c0,0,4.9-0.9,6.6-0.7s3.9,3.2,1.8,5.3s-5.8,1.9-9.4,2.7s-4.2,1-6.5,0.4s-2.7-3.8-2.7-3.8&#10;&#9;&#9;l1.8-13.2"/>
	<path class="st6_presentation-2-51" d="M151.8,294.1c0,0,12.3-9.9,20.4-11s12.4,7.7,11.8,13.6s-20.1,9.1-20.1,9.1"/>
	<path class="st7_presentation-2-51" d="M158.3,297.4c1.6-1.5,22.4-11.2,29.7-6.8s6.9,7.7,5.9,13.1s-8,34.5-8,34.5s-7,3.3-16.7,0.8l2.1-21.6&#10;&#9;&#9;l-27.7-15.1"/>
	<path class="st8_presentation-2-51" d="M143.1,262.6c1.1,0.8,10.6,2,12.6,6.3s5,27,5,27s-5.7,8.5-15.6,5.5c-2.9-0.9-18.1-28.7-18.5-31.5&#10;&#9;&#9;C125.6,262.3,143.1,262.6,143.1,262.6z"/>
	<path class="st5_presentation-2-51" d="M124.4,311.4c-0.5-1.1-0.9-2.3-1.2-3.5c-2.3-9.1-3.9-43.4,11.6-42c16.9,1.5,11.2,43.9,28.4,42.6&#10;&#9;&#9;s24.2,3.2,17.2,9.8C166.3,331.5,133,331.8,124.4,311.4z"/>
	<path class="st5_presentation-2-51" d="M146.8,248c0.1,0.8,1.6,12.4-1.9,15s-11.1-3.5-11.3-6.6s-2.8-9.4,0.5-11S145.9,242.3,146.8,248z"/>
	<path class="st4_presentation-2-51" d="M146.8,248c0,0,2.9-2.2,3.4-4.2s-2-3.4-4.4-3.4s-4.5,0.6-6.5-0.6c-2.3-1.3-5.1-1.3-7.3,0&#10;&#9;&#9;c-1.9,1.3-2.3,4.6-3.6,6.2s-3.8,1.8-3.8,4.9s4.6,3.4,4.9,5.5s1.4,5.1,4.2,5.6s6.6,0.6,6.9,0.2s-1.8-7.3,0.2-7.8&#10;&#9;&#9;S146.9,252.9,146.8,248z"/>
	<path class="st5_presentation-2-51" d="M186,246.1c0-1.4-0.5-2.7-1.4-3.7c-0.1-0.1-0.2-0.2-0.3-0.2c-0.1-1.3-0.4-2.5-1.4-3c-0.2-0.1-0.4-0.1-0.6-0.1&#10;&#9;&#9;c-0.5-0.1-0.9,0.2-1,0.7c0,0.1,0,0.1,0,0.2v1.4c-0.1-0.3-0.3-0.6-0.6-0.7c-0.4-0.2-0.8-0.2-1.2,0c-0.4,0.1-0.7,0.4-0.7,0.9l0.2,5.8&#10;&#9;&#9;c-0.3-1.1-0.9-3.2-2.5-2.1c-1.2,0.9-0.3,3.2-0.1,4.4c0.4,2.3,0.9,4.5,1.6,6.7c0.1,0.2,0.2,0.3,0.3,0.5c-0.1,0.2-0.1,0.5-0.2,0.7&#10;&#9;&#9;c-0.4,1.5-0.8,3.6-2,4.6c-0.9,0.8,0.4,2.1,1.3,1.3l0.1-0.1v0.1c-0.3,1,1.2,1.7,1.7,0.7l0.2-0.4c0.1,0.1,0.2,0.2,0.3,0.2&#10;&#9;&#9;c-0.1,0.2-0.1,0.4-0.2,0.6c-0.4,1.1,1.4,1.6,1.8,0.5l0,0c0.1,0.5,0.5,0.8,1,0.7c0.3-0.1,0.6-0.3,0.6-0.6c0.2-0.5,0.1,1.1,0.3,0.6&#10;&#9;&#9;c0.5,0.2-0.5-1.5-0.2-2c1.1-2.2,4-4.4,3.9-11.4C187,250.3,188.4,246.8,186,246.1z"/>
	<path class="st4_presentation-2-51" d="M179.4,241.9c0-0.4-0.6-0.4-0.6,0c0.1,2.4,0.3,4.9,0.5,7.4c0,0.4,0.6,0.4,0.6,0&#10;&#9;&#9;C179.6,246.8,179.5,244.3,179.4,241.9z"/>
	<path class="st4_presentation-2-51" d="M181.8,240c0-0.2-0.2-0.3-0.4-0.2c-0.1,0-0.2,0.1-0.2,0.2l0.2,9.9c0,0.2,0.2,0.3,0.4,0.2&#10;&#9;&#9;c0.1,0,0.2-0.1,0.2-0.2L181.8,240z"/>
	<path class="st4_presentation-2-51" d="M183.9,242.7l-0.2,7.6c0,0.2,0.1,0.3,0.3,0.3s0.3-0.1,0.3-0.3l0.2-7.6c0-0.2-0.1-0.3-0.3-0.3&#10;&#9;&#9;S183.9,242.5,183.9,242.7z"/>
	<path class="st4_presentation-2-51" d="M185.8,246.3c-0.1,1.9-0.2,3.7-0.5,5.6c0,0.4,0.6,0.4,0.6,0c0.2-1.9,0.4-3.7,0.5-5.6&#10;&#9;&#9;C186.4,245.9,185.8,245.9,185.8,246.3z"/>
	<path class="st8_presentation-2-51" d="M152,265.6c0,0,9.4,3.4,11.8,3.2s12.6-13.3,12.6-13.3s7.1,2,9.4,8.3c0,0-13.2,18.9-19,20s-12.8-1.7-12.8-1.7"/>
</g>
<g id="Smaller_Screens_presentation-2-51">
	<path class="st10_presentation-2-51 targetColor" d="M108.6,134.5v32.1c0,2.1,1.7,3.8,3.8,3.8c0.7,0,1.3-0.2,1.9-0.5l27.8-16.1c1.2-0.7,1.9-1.9,1.9-3.3v-32&#10;&#9;&#9;c0-2.1-1.7-3.8-3.8-3.8c-0.7,0-1.3,0.2-1.9,0.5l-27.8,16C109.3,132,108.6,133.2,108.6,134.5z" style="fill: rgb(104, 225, 253);"/>
	<path class="st10_presentation-2-51 targetColor" d="M68.2,156.3v32.1c0,2.1,1.7,3.8,3.8,3.8c0.7,0,1.3-0.2,1.9-0.5l27.8-16.1c1.2-0.7,1.9-1.9,1.9-3.3v-32.1&#10;&#9;&#9;c0-2.1-1.7-3.8-3.8-3.8c-0.7,0-1.3,0.2-1.9,0.5l-27.8,16C68.9,153.7,68.2,155,68.2,156.3z" style="fill: rgb(104, 225, 253);"/>
	<path class="st10_presentation-2-51 targetColor" d="M68.2,156.3v32.1c0,2.1,1.7,3.8,3.8,3.8c0.7,0,1.3-0.2,1.9-0.5l27.8-16.1c1.2-0.7,1.9-1.9,1.9-3.3v-32.1&#10;&#9;&#9;c0-2.1-1.7-3.8-3.8-3.8c-0.7,0-1.3,0.2-1.9,0.5l-27.8,16C68.9,153.7,68.2,155,68.2,156.3z" style="fill: rgb(104, 225, 253);"/>
	<path class="st10_presentation-2-51 targetColor" d="M108.6,181.2v32.1c0,2.1,1.7,3.8,3.8,3.8c0.7,0,1.3-0.2,1.9-0.5l27.8-16.1c1.2-0.7,1.9-1.9,1.9-3.3v-32.1&#10;&#9;&#9;c0-2.1-1.7-3.8-3.8-3.8c-0.7,0-1.3,0.2-1.9,0.5l-27.8,16C109.3,178.6,108.6,179.9,108.6,181.2z" style="fill: rgb(104, 225, 253);"/>
	<path class="st16_presentation-2-51" d="M68.2,156.3v32.1c0,2.1,1.7,3.8,3.8,3.8c0.7,0,1.3-0.2,1.9-0.5l27.8-16.1c1.2-0.7,1.9-1.9,1.9-3.3v-32.1&#10;&#9;&#9;c0-2.1-1.7-3.8-3.8-3.8c-0.7,0-1.3,0.2-1.9,0.5l-27.8,16C68.9,153.7,68.2,155,68.2,156.3z"/>
	<path class="st10_presentation-2-51 targetColor" d="M68.2,202.8V235c0,2.1,1.7,3.8,3.8,3.8c0.7,0,1.3-0.2,1.9-0.5l27.8-16.1c1.2-0.7,1.9-1.9,1.9-3.3v-32&#10;&#9;&#9;c0-2.1-1.7-3.8-3.8-3.8c-0.7,0-1.3,0.2-1.9,0.5l-27.8,16C68.9,200.3,68.2,201.5,68.2,202.8z" style="fill: rgb(104, 225, 253);"/>
	<path class="st16_presentation-2-51" d="M108.6,181.2v32.1c0,2.1,1.7,3.8,3.8,3.8c0.7,0,1.3-0.2,1.9-0.5l27.8-16.1c1.2-0.7,1.9-1.9,1.9-3.3v-32.1&#10;&#9;&#9;c0-2.1-1.7-3.8-3.8-3.8c-0.7,0-1.3,0.2-1.9,0.5l-27.8,16C109.3,178.6,108.6,179.9,108.6,181.2z"/>
</g>
</svg>